<?xml version="1.0" encoding="utf-8"?>
<!-- Generator: Adobe Illustrator 25.4.1, SVG Export Plug-In . SVG Version: 6.00 Build 0)  -->
<svg version="1.1" id="Слой_1" xmlns="http://www.w3.org/2000/svg" xmlns:xlink="http://www.w3.org/1999/xlink" x="0px" y="0px"
	 viewBox="0 0 3438 2463.3" style="enable-background:new 0 0 3438 2463.3;" xml:space="preserve">
<style type="text/css">
	.st0{fill:none;stroke:#66B0F0;stroke-width:6;stroke-linecap:round;stroke-miterlimit:10;}
	.st1{fill:#D0F0E4;stroke:#66B0F0;stroke-width:6;stroke-linejoin:round;stroke-miterlimit:10;}
	.st2{fill:none;stroke:#9A3B82;stroke-width:3;stroke-linecap:round;stroke-miterlimit:10;}
	.st3{fill:#FFFFFF;stroke:#FE5244;stroke-width:5;stroke-miterlimit:10;}
	.st4{fill:#E57281;}
	.st5{fill:#9A3B82;}
	.st6{fill:#D82F25;}
	.st7{fill:none;stroke:#FFFFFF;stroke-width:6;stroke-linecap:round;stroke-miterlimit:10;}
	.st8{opacity:0.7;fill:none;stroke:#FFFFFF;stroke-width:6;stroke-linecap:round;stroke-miterlimit:10;enable-background:new    ;}
	.st9{fill:#FE5244;}
	.st10{fill:#FFFFFF;stroke:#66B0F0;stroke-width:6;stroke-linejoin:round;stroke-miterlimit:10;}
	.st11{fill:#FFFFFF;stroke:#FFCF2D;stroke-width:6;stroke-miterlimit:10;}
	.st12{fill:#FFCF2D;}
	.st13{fill:none;stroke:#FE5244;stroke-width:6;stroke-linecap:round;stroke-linejoin:round;stroke-miterlimit:10;}
	.st14{fill:#FFFFFF;stroke:#3FB1B5;stroke-width:6;stroke-linecap:round;stroke-miterlimit:10;}
	.st15{fill:none;stroke:#3FB1B5;stroke-width:6;stroke-linecap:round;stroke-miterlimit:10;}
	.st16{fill:#3FB1B5;}
	.st17{fill:none;stroke:#FE5244;stroke-width:6;stroke-linejoin:round;stroke-miterlimit:10;}
	.st18{fill:#D0F0E4;}
	.st19{fill:#66B0F0;}
	.st20{fill:#FFFFFF;}
	.st21{fill:#F0E1D4;}
	.st22{fill:none;stroke:#D0F0E4;stroke-width:10;stroke-miterlimit:10;}
	.st23{fill:none;stroke:#FFCF2D;stroke-width:10;stroke-linecap:round;stroke-miterlimit:10;}
	.st24{fill:#FFCF2D;stroke:#FFCF2D;stroke-width:6;stroke-miterlimit:10;}
	.st25{fill:none;stroke:#FFFFFF;stroke-width:6;stroke-miterlimit:10;}
	.st26{fill:none;stroke:#FFCF2D;stroke-width:6;stroke-miterlimit:10;}
	.st27{fill:#FFFFFF;stroke:#3FB1B5;stroke-width:6;stroke-linejoin:round;stroke-miterlimit:10;}
	.st28{fill:none;stroke:#3FB1B5;stroke-width:5;stroke-linecap:round;stroke-miterlimit:10;}
	.st29{fill:#A0505A;}
	.st30{fill:none;stroke:#73325A;stroke-width:6;stroke-linecap:round;stroke-miterlimit:10;}
	.st31{fill:none;stroke:#FFCF2D;stroke-width:6;stroke-linecap:round;stroke-linejoin:round;stroke-miterlimit:10;}
	.st32{fill:#73325A;}
	.st33{fill:none;stroke:#9A3B82;stroke-width:4;stroke-linecap:round;stroke-miterlimit:10;}
	.st34{fill:none;stroke:#9A3B82;stroke-width:5;stroke-linecap:round;stroke-miterlimit:10;}
</style>
<g id="GIRL_x27_S_LEGS">
	<g id="CHAIR">
		<g>
			<line class="st0" x1="1051.5" y1="1370" x2="944.8" y2="2449.2"/>
			<line class="st0" x1="1485.8" y1="1370" x2="1592.5" y2="2449.2"/>
			<path class="st0" d="M978.1,2133.6c0,0,257-135.7,582,0"/>
		</g>
		<path class="st1" d="M1546.1,1370h-541.6c-36,0-65.2-29.2-65.2-65.2v-27.2h672v27.1C1611.3,1340.8,1582.1,1370,1546.1,1370z"/>
	</g>
	<g id="LEGS">
		<g id="RIGHT_1_">
			<g>
				<path class="st2" d="M1161.2,1763.7l-19.8,22.3c-12.1,13.7-10.9,34.6,2.8,46.7c6.8,6.1,15.5,8.8,23.9,8.3
					c8.5-0.5,16.7-4.2,22.8-11.1l21-23.6c0-0.1,0.1-6.1,0.1-6.2c-9.4-5.1-20.4-6.9-31.3-16.6
					C1173.3,1776.9,1166.7,1770.2,1161.2,1763.7z"/>
				<path class="st3" d="M1074.3,1807.9l95.5-87.5l111.1,39.8l-110.2,158.7c-8.8,12.7-26.4,15.7-39,6.7l-52.9-38.2
					C1052.6,1868.3,1050.3,1829.8,1074.3,1807.9z"/>
			</g>
			<g>
				<path class="st4" d="M1535.4,1271.3c6.3,30.8,1.8,64.3-16,94.3l-234.8,394.5l0,0l0,0c-2.2,8.9-30.5,10.3-63.1,2.6
					c-32.7-7.7-57.4-21.4-55.3-30.3l109.3-465.1c16.8-71.5,88.4-115.9,160-99.1C1488.9,1180.8,1525.5,1222.8,1535.4,1271.3z"/>
				<path class="st5" d="M1537.8,1307.5c-14.6-11.5-32-20.1-51.7-24.7c-71.5-16.8-143.1,27.5-160,99.1l-90.2,383.8
					c-4.7-0.7-9.5-1.7-14.5-2.9c-32.7-7.7-57.4-21.4-55.3-30.3l109.3-465.1c16.8-71.5,88.4-115.9,160-99.1
					c53.4,12.6,90,54.6,100,103.1C1537.9,1283.1,1538.7,1295.3,1537.8,1307.5z"/>
				<path class="st6" d="M1226.3,1476.8l-60.1,255.6c-2.1,8.9,22.6,22.7,55.3,30.3c32.7,7.7,61,6.3,63.1-2.6l0,0l140.8-236.5
					L1226.3,1476.8z"/>
				<line class="st7" x1="1425.4" y1="1523.6" x2="1226.3" y2="1476.8"/>
				<line class="st8" x1="1219.6" y1="1508" x2="1408.3" y2="1552.4"/>
				<line class="st8" x1="1211.2" y1="1543.6" x2="1388.4" y2="1585.3"/>
				<line class="st8" x1="1202.8" y1="1579.3" x2="1368.5" y2="1618.2"/>
				<line class="st8" x1="1194.5" y1="1614.9" x2="1348.6" y2="1651.1"/>
				<line class="st8" x1="1186.1" y1="1650.5" x2="1328.8" y2="1684"/>
				<line class="st8" x1="1177.7" y1="1686.1" x2="1308.9" y2="1716.9"/>
				<line class="st8" x1="1169.3" y1="1721.7" x2="1290.5" y2="1750.2"/>
			</g>
		</g>
		<g id="LEFT_1_">
			<path class="st4" d="M1283.3,1926.9v-638.2c0-73.5-59.6-133-133-133l0,0c-89.9,0-153.9,87.2-126.9,173l138.3,437.8l-20.2,119.1
				c-5.3,31.8,13.6,62.7,44.3,72.4l38.4,12.2C1253.4,1979.4,1283.3,1957.6,1283.3,1926.9z"/>
			<path class="st9" d="M1283.3,1493.9v272.6c0,9.2-27.2,16.9-60.8,16.9c-33.5,0-60.8-7.8-60.8-17l0,0l-85.9-272.5H1283.3z"/>
			<polyline class="st7" points="1075.7,1490.9 1283.3,1490.9 1284.3,1756.5 			"/>
			<path class="st3" d="M1141.5,1885.5c-5.3,31.8,13.6,62.7,44.3,72.4l38.4,12.2c29.2,9.3,59.1-12.5,59.1-43.2l-3.4-160.4
				c0,9.2-23.8,16.9-57.3,16.9s-58.5-10.1-58.6-19.3L1141.5,1885.5z"/>
			<path class="st9" d="M1250.2,1803.2v29.8c0,18.3-14.8,33.1-33.1,33.1c-9.1,0-17.4-3.7-23.4-9.7s-9.7-14.3-9.7-23.4v-31.6
				c0-0.1,0-0.1,0-0.2c10.5,2.4,23.9,3.9,38.4,3.9C1232.5,1805.1,1241.9,1804.4,1250.2,1803.2z"/>
			<line class="st7" x1="1280.2" y1="1535.9" x2="1088.8" y2="1535.9"/>
			<line class="st7" x1="1280.2" y1="1572.5" x2="1100.6" y2="1572.5"/>
			<line class="st7" x1="1280.2" y1="1609" x2="1112.4" y2="1609"/>
			<line class="st7" x1="1280.2" y1="1645.6" x2="1124.2" y2="1645.6"/>
			<line class="st7" x1="1280.2" y1="1682.2" x2="1136.1" y2="1682.2"/>
			<line class="st7" x1="1280.2" y1="1718.8" x2="1147.9" y2="1718.8"/>
			<line class="st7" x1="1280.2" y1="1755.4" x2="1158.2" y2="1755.4"/>
		</g>
	</g>
</g>
<g id="TEACHER_x27_S_LEGS">
	<g id="CHAIR_1_">
		<g>
			<path class="st0" d="M2197.3,1576.7h79.9c63.3,0,114.6,51.3,114.6,114.6v482.5c0,63.3-51.3,114.6-114.6,114.6h-31.4
				c-36.5,0-66.1,29.6-66.1,66.1"/>
			<circle class="st10" cx="2182.7" cy="2392.2" r="57"/>
		</g>
		<path class="st1" d="M2171.5,1576.7h488.9c22,0,39.8-17.8,39.8-39.8v-33.5c0-22-17.8-39.8-39.8-39.8h-488.9
			c-25.3,0-45.8,20.5-45.8,45.8v21.4C2125.7,1556.2,2146.2,1576.7,2171.5,1576.7z"/>
		<g>
			<path class="st0" d="M2628.9,1576.7H2549c-63.3,0-114.6,51.3-114.6,114.6v482.5c0,63.3,51.3,114.6,114.6,114.6h31.4
				c36.5,0,66.1,29.6,66.1,66.1"/>
			<circle class="st10" cx="2643.6" cy="2392.2" r="57"/>
		</g>
	</g>
	<g id="LEGS_1_">
		<g id="LEFT_2_">
			<g>
				<g>
					<path class="st11" d="M1739.1,2233.6l36,73.7c12.1,24.8,18.4,51.9,18.4,79.3v55.9c0,9.7-8.1,17.6-18.1,17.6h-411.2
						c-10.9,0-19.7-8.6-19.7-19.2v-17.3c0-7,3.9-13.4,10.2-16.8c42.7-22.9,180.6-94.5,207.3-171L1739.1,2233.6z"/>
					<path class="st11" d="M1791,2356.8h-32.2c-29.8,0-57.5,15.1-73.1,39.8l-13.7,21.8c-8.2,13-22.7,20.9-38.3,20.9h-289"/>
					<path class="st12" d="M1766.1,2288.9c-30.9,1-71.9-2.2-121.4-11.2c-32.5-5.9-63.4-14.9-90.3-25c3.1-5.6,5.6-11.2,7.6-16.8
						l177.1-2.3L1766.1,2288.9z"/>
				</g>
				<g>
					<path class="st13" d="M1476.3,2332.5l32.6-51.7c12.2-19.3-1.3-44.6-24.1-45.2l0,0c-20.6-0.6-35.5,19.7-28.7,39.2L1476.3,2332.5
						z"/>
					<path class="st13" d="M1474.5,2332.8l-35.6-29.3c-13.3-10.9-33.5-3.3-36.1,13.8l0,0c-2.4,15.4,11.4,28.4,26.6,25.2
						L1474.5,2332.8z"/>
					<line class="st13" x1="1471.3" y1="2331.3" x2="1552.2" y2="2331.3"/>
					<line class="st13" x1="1447.7" y1="2353.9" x2="1528.5" y2="2353.9"/>
					<line class="st13" x1="1507.6" y1="2307.6" x2="1586.4" y2="2307.6"/>
				</g>
			</g>
			<path class="st14" d="M2219.8,1202.9l-185.5,70.2l-178.4,929.1c-7.2,17-101.8,41.4-190.1,41.4c-93,0-168.3-25.9-168.3-44.2
				l109.6-853.4c14.3-112.6,110.1-197.1,223.7-197.1h385.5l1.8,53.9L2219.8,1202.9z"/>
			<path class="st15" d="M1660.7,2243.4l108.2-842.5c14.1-111.2,114.9-196.6,280.8-196.6"/>
			<path class="st16" d="M2133.7,1192.9L1934,1803.6l-77.8-248.8C1808.2,1395.7,1894.7,1192.9,2133.7,1192.9z"/>
		</g>
		<g id="RIGHT_2_">
			<g>
				<g>
					<path class="st11" d="M2352.7,2229.9l71.9,179.1c10,24.8-9.7,51.3-38.1,51.3h-270.8c-13.4,0-24.3-10.1-24.3-22.7v-18
						c0-8.2,2.6-16.1,7.6-22.9l47.5-51.9c27.7-30.2,42.9-68.7,42.9-108.4v-0.5L2352.7,2229.9z"/>
					<path class="st11" d="M2109,2386.1c15-7,31.5-10.7,48.3-10.7h86.9c15.4,0,30.6,3.1,44.6,9.1l31.8,13.5"/>
					<path class="st12" d="M2356.1,2238.1c-5.6,22.1-79.9,39.7-170.7,39.7h-1.5c3.7-13.5,5.6-27.4,5.6-41.5v-0.5l163.3-5.9
						L2356.1,2238.1z"/>
				</g>
				<g>
					<path class="st17" d="M2214.7,2319.4l54.7-0.5c22.6-0.3,36.3-25,24.6-44.3l0,0c-10.6-17.5-35.4-18.9-47.9-2.7L2214.7,2319.4z"
						/>
					<path class="st17" d="M2214.7,2319.4l-28.6-35.5c-10.7-13.3-31.8-9.9-37.7,6.1l0,0c-5.4,14.4,5.3,29.8,20.7,29.7L2214.7,2319.4
						z"/>
				</g>
				<line class="st13" x1="2184.3" y1="2339.8" x2="2302.8" y2="2339.8"/>
			</g>
			<g>
				<path class="st14" d="M2415.5,2182.3c0,21.7-78.4,62.4-160.2,62.4c-73.5,0-134.4-14.6-145.9-33.1l-202.2-646.8
					c-56.1-185.7,82.9-372.9,276.8-372.9h33.2l-4.7-166.8h415.2l40.9,169.7c33,137-70.8,272.2-211.7,272.2h-186.4L2415.5,2182.3z"/>
				<path class="st15" d="M2286.6,2241.6l-191.1-611.4c-68.7-198.5,8.4-302.5,191.7-302.5h167.1c52.9,0,95.8-42.9,95.8-95.8v-206.4"
					/>
			</g>
		</g>
	</g>
</g>
<g id="TABLE">
	<path class="st10" d="M3238.2,1277.6H138.9c-12.2,0-16.8-16-6.5-22.5l548-266.6h2041l522.4,270.2
		C3252.4,1264.4,3248.4,1277.6,3238.2,1277.6z"/>
	<path class="st18" d="M3155.5,1247.9H217.7c-13.6,0-18.8-17.9-7.2-25.2l472.9-231.2h2033.3l446.3,231.4
		C3174.2,1230.3,3169,1247.9,3155.5,1247.9z"/>
	<g>
		<line class="st0" x1="300" y1="1277.6" x2="96.5" y2="2449.2"/>
		<line class="st0" x1="406.1" y1="1277.6" x2="609.6" y2="2449.2"/>
	</g>
	<g>
		<line class="st0" x1="2962.7" y1="1277.6" x2="2759.2" y2="2449.2"/>
		<line class="st0" x1="3068.8" y1="1277.6" x2="3272.3" y2="2449.2"/>
	</g>
</g>
<g id="PENCILS_x26_RULER">
	<path class="st10" d="M676.9,945.8l-28.8,203.9c-1.7,12.1-12,21-24.2,21h-56.3c-12.2,0-22.5-9-24.2-21l-28.8-203.9
		c0,18.3,36.3,33.1,81.1,33.1C640.6,978.9,676.9,964,676.9,945.8z"/>
	<g>
		<path class="st19" d="M658.8,967.6l-25.7,180.5c-1.9,13.5-13.6,23.6-27.2,23.6h-19.3c-13.6,0-25.3-10.1-27.2-23.6l-25.7-180
			c2,0.9,4.2,1.7,6.4,2.5l25.2,176.7c1.4,9.7,9.2,17.2,18.8,18.3c0.8,0.1,1.6,0.2,2.5,0.2h19.3c1.2,0,2.4-0.1,3.5-0.3
			c9.1-1.5,16.4-8.8,17.7-18.2l25.2-177.1C654.7,969.4,656.8,968.5,658.8,967.6z"/>
	</g>
	<g>
		<path class="st19" d="M632.3,975.6l-22.9,189.9l-0.3,2.6c-0.2,1.5-1.5,2.6-3,2.6c-0.1,0-0.2,0-0.4,0c-1.7-0.2-2.8-1.7-2.6-3.3
			l0.2-1.6l22.8-189.1C628.3,976.3,630.3,975.9,632.3,975.6z"/>
	</g>
	<g>
		<path class="st19" d="M587.8,1170.7c-0.1,0-0.2,0-0.4,0c-1.5,0-2.8-1.1-3-2.6l-0.3-2.5L561.2,976c2,0.4,4.1,0.7,6.2,1l22.8,188.8
			l0.2,1.6C590.6,1169,589.4,1170.5,587.8,1170.7z"/>
	</g>
	<g>
		<path class="st19" d="M679.8,945.8c0,8.4-7.9,16-20.9,21.9c-2,0.9-4.2,1.8-6.4,2.6c-6,2.1-12.7,4-20.1,5.4c-2,0.4-4.1,0.7-6.2,1.1
			c-8.7,1.3-18.2,2.1-28.1,2.2c-0.8,0-1.5,0-2.3,0c-1.1,0-2.2,0-3.3,0c-8.8-0.1-17.2-0.8-25-1.9c-2.1-0.3-4.1-0.6-6.2-1
			c-7.7-1.4-14.8-3.2-21.1-5.4c-2.2-0.8-4.4-1.6-6.4-2.5c-13.7-5.9-22-13.7-22-22.3c0-0.7,0.1-1.4,0.2-2.1
			c2.8-17.3,39.2-30.9,83.8-30.9c44.6,0,81.1,13.7,83.8,30.9C679.7,944.4,679.8,945.1,679.8,945.8z"/>
		<path class="st19" d="M599.3,1165.1c0,0.2,0,0.5-0.1,0.7c-0.3,1.3-1.5,2.3-2.9,2.3l0,0c-1.4,0-2.6-1-2.9-2.3
			c-0.1-0.2-0.1-0.4-0.1-0.6l-1-185.2c0-0.4,0.1-0.7,0.2-1.1c1.1,0,2.2,0,3.3,0c0.8,0,1.6,0,2.3,0c0.1,0.3,0.2,0.6,0.2,1
			L599.3,1165.1z"/>
	</g>
	<g>
		<path class="st12" d="M596.3,972.8c-17.8-0.5-34.1-3.2-47.3-7.5l-47.2-197.9h45.5L596.3,972.8z"/>
		<g>
			<g>
				<path class="st20" d="M553.2,792.4h-18.6c-1.4,0-2.5-1.1-2.5-2.5s1.1-2.5,2.5-2.5H552L553.2,792.4z"/>
			</g>
			<g>
				<path class="st20" d="M558.2,813.4h-18.6c-1.4,0-2.5-1.1-2.5-2.5s1.1-2.5,2.5-2.5H557L558.2,813.4z"/>
			</g>
			<g>
				<path class="st20" d="M563.2,834.4h-18.6c-1.4,0-2.5-1.1-2.5-2.5s1.1-2.5,2.5-2.5H562L563.2,834.4z"/>
			</g>
			<g>
				<path class="st20" d="M568.3,855.4h-18.6c-1.4,0-2.5-1.1-2.5-2.5s1.1-2.5,2.5-2.5h17.4L568.3,855.4z"/>
			</g>
			<g>
				<path class="st20" d="M573.3,876.4h-18.6c-1.4,0-2.5-1.1-2.5-2.5s1.1-2.5,2.5-2.5h17.4L573.3,876.4z"/>
			</g>
			<g>
				<path class="st20" d="M578.3,897.4h-17.7c-1.4,0-2.5-1.1-2.5-2.5s1.1-2.5,2.5-2.5h16.5L578.3,897.4z"/>
			</g>
			<g>
				<path class="st20" d="M583.3,918.4h-18.7c-1.4,0-2.5-1.1-2.5-2.5s1.1-2.5,2.5-2.5h17.5L583.3,918.4z"/>
			</g>
			<g>
				<path class="st20" d="M588.3,939.4h-18.7c-1.4,0-2.5-1.1-2.5-2.5s1.1-2.5,2.5-2.5h17.5L588.3,939.4z"/>
			</g>
			<g>
				<path class="st20" d="M593.3,960.3c-0.2,0.1-0.4,0.1-0.7,0.1h-19c-1.4,0-2.5-1.1-2.5-2.5s1.1-2.5,2.5-2.5h18.5L593.3,960.3z"/>
			</g>
		</g>
	</g>
	<g>
		<g>
			<g>
				<path class="st9" d="M937.8,1194.8C937.8,1194.8,937.7,1194.9,937.8,1194.8l-4.2,15.3c-0.1,0.4-0.4,0.6-0.7,0.5l-216-64.5
					c-0.3-0.1-0.4-0.5-0.3-0.8l4.1-15.2c0-0.2,0.2-0.3,0.3-0.4s0.3-0.1,0.4-0.1l216,64.5c0.1,0,0.2,0.2,0.3,0.3
					C937.8,1194.5,937.8,1194.7,937.8,1194.8z"/>
			</g>
			<g>
				<path class="st12" d="M723.9,1130.5l-4.4,16.3c-0.3,1.1-1.2,1.8-2.1,1.6l-4.9-1.5c-0.8-0.2-1.3-1.4-1-2.5l4.4-16.3
					c0.3-1.1,1.2-1.8,2.1-1.6l4.9,1.5C723.7,1128.2,724.2,1129.3,723.9,1130.5z"/>
			</g>
			<g>
				<path class="st9" d="M704,1129.3l-2,7.6c-0.6,2.1,0.7,4.3,2.9,5l6.9,2l4.1-15.3l-6.9-2C706.8,1126,704.6,1127.2,704,1129.3z"/>
			</g>
			<g>
				<polygon class="st20" points="937.2,1194.7 943.7,1201.3 948.7,1206.4 941.9,1208 933.1,1210 				"/>
				<path class="st9" d="M949.2,1206.5L949.2,1206.5c-0.1,0.4-0.3,0.6-0.5,0.6l-15.6,3.6c-0.2,0-0.4,0-0.5-0.2s-0.1-0.4-0.1-0.6
					l4.1-15.2c0.1-0.2,0.2-0.4,0.4-0.5c0.2-0.1,0.4-0.1,0.5,0.1L949,1206C949.2,1206,949.3,1206.2,949.2,1206.5z M933.9,1209.1
					l13.5-3.1l-9.9-10.1L933.9,1209.1z"/>
			</g>
			<g>
				<polygon class="st21" points="943.7,1201.3 948.7,1206.4 941.9,1208 				"/>
				<path class="st9" d="M949.2,1206.5L949.2,1206.5c-0.1,0.4-0.3,0.6-0.5,0.6l-6.8,1.6c-0.2,0-0.4,0-0.5-0.2s-0.1-0.4-0.1-0.6
					l1.8-6.6c0.1-0.2,0.2-0.4,0.4-0.5c0.2-0.1,0.4-0.1,0.5,0.1l5,5.1C949.2,1206,949.3,1206.2,949.2,1206.5z"/>
			</g>
		</g>
	</g>
	<path class="st9" d="M632.9,839.9c0,0.6,0,1.3-0.1,1.9l-16.3,130c-6.5,0.7-13.2,1.1-20.2,1.1l8-133.9c0.5-7.5,6.7-13.4,14.3-13.4
		C626.6,825.6,632.9,832.1,632.9,839.9z"/>
</g>
<g id="BAG">
	<g>
		<path class="st16" d="M2884.5,2056.6h198.2c6.2-22.2,26.5-38.5,50.7-38.5h-198.2C2911,2018.1,2890.7,2034.4,2884.5,2056.6z"/>
		<path class="st14" d="M2936.9,2021.3c29,0,52.6,23.6,52.6,52.6v52.6h198.2v-52.6c0-29.1-23.6-52.6-52.6-52.6H2936.9z"/>
	</g>
	<polygon class="st11" points="3289.1,2052.5 3108.2,2052.5 3119.2,2102.7 3300.1,2102.7 	"/>
	<path class="st11" d="M3382,2449.1h-421.9c33.9,0,59.1-31.4,51.7-64.5l-57.9-260.1c-2.8-12.8-14.2-21.9-27.3-21.9h421.9
		c13.1,0,24.4,9.1,27.3,21.9l57.9,260.1C3441.1,2417.7,3415.9,2449.1,3382,2449.1z"/>
	<path class="st22" d="M3269.5,2106.7l20.9,93.9c12.1,54.2-29.2,105.7-84.7,105.7H3188c-66.6,0-124.2-46.2-138.7-111.2l-19.7-88.4"
		/>
	<path class="st23" d="M3290.5,2105.7l20.9,93.9c12.1,54.2-29.2,105.7-84.7,105.7H3209c-66.6,0-124.2-46.2-138.7-111.2l-19.7-88.4"
		/>
	<path class="st24" d="M2960.1,2449.1h-69.6c-33.9,0-59.1-31.4-51.7-64.5l57.9-260.1c2.8-12.8,14.2-21.9,27.3-21.9h2.8
		c13.1,0,24.4,9.1,27.3,21.9l57.9,260.1C3019.2,2417.7,2994,2449.1,2960.1,2449.1z"/>
	<line class="st25" x1="2926.6" y1="2102.7" x2="2926.6" y2="2388.9"/>
	<polyline class="st7" points="2860.3,2439.7 2926.5,2388.1 2992.3,2440.1 	"/>
</g>
<g id="PLANT">
	<path class="st16" d="M158.2,2010c0,0-125.5-161.2-105.6-211c17-42.5,55.7-2.9,55.7-2.9L158.2,2010z"/>
	<path class="st16" d="M250.5,2179.8c0,0,130.7-144,127.7-195.8s-50.3-27.5-50.3-27.5L250.5,2179.8z"/>
	<path class="st12" d="M386.9,2306.5c0,43.4-18.4,83-48.6,113.2c-24.3,24.2-57.3,37.6-91.6,37.6H140.2c-34.3,0-67.3-13.4-91.6-37.6
		C18.4,2389.6,0,2349.9,0,2306.5c0-61.8,37.2-115.9,93-145.9h201C349.7,2190.5,386.9,2244.7,386.9,2306.5z"/>
	<ellipse class="st16" cx="193.5" cy="2167.1" rx="102.9" ry="27.3"/>
	<path class="st14" d="M250.5,2179.8c-16.3,2.9-35.9,4.6-57,4.6c-20,0-38.7-1.5-54.4-4.1c-37.2-39.5-127.8-144.3-94.3-196.1
		c41.8-64.7,113.5,25.9,113.5,25.9s-84.6-259.8-39.8-317.5s79.9,44.8,79.9,44.8s22.6-124.4,83.3-112.5
		c57.9,11.4-31.8,299.9-40.2,326.5c4.3-12.8,30.3-83.4,81-76.9C370.5,1880.6,276.9,2115.7,250.5,2179.8z"/>
	<path class="st15" d="M281.6,1624.8c0,0-85.6,237.4-88.1,559.6"/>
	<path class="st15" d="M198.3,1737.3c4.6,25.8,22.1,140.7,13.2,199.4"/>
	<path class="st15" d="M322.4,1874.4c0,0-97.6,125.6-108.5,309.4"/>
	<path class="st15" d="M54.3,1972.3c0,0,116.6,73.9,118.6,211.6"/>
	<circle class="st26" cx="95.2" cy="1917" r="20.4"/>
	<circle class="st26" cx="48" cy="1897.2" r="9.4"/>
	<circle class="st26" cx="61.5" cy="2133.6" r="9.4"/>
	<circle class="st26" cx="311.7" cy="1832.2" r="20.4"/>
	<circle class="st26" cx="317.7" cy="1767.8" r="9.4"/>
	<circle class="st26" cx="351.8" cy="1843.2" r="9.4"/>
</g>
<g id="TEACHER">
	<g id="BLOUSE">
		<path class="st9" d="M2420.6,397.8l201.3,56.8c88.1,24.1,152,100.5,160,191.5l30.7,339.5H1747.3l98.4-381.5
			c16.1-63.6,64.3-114,127.1-132.9l235.1-73.4L2420.6,397.8L2420.6,397.8z"/>
		<g>
			<g>
				<circle class="st20" cx="1807.2" cy="946.6" r="9.7"/>
				<circle class="st20" cx="1908.2" cy="946.6" r="9.7"/>
				<circle class="st20" cx="2009.2" cy="946.6" r="9.7"/>
				<circle class="st20" cx="2110.2" cy="946.6" r="9.7"/>
				<circle class="st20" cx="2211.2" cy="946.6" r="9.7"/>
				<circle class="st20" cx="2312.2" cy="946.6" r="9.7"/>
				<circle class="st20" cx="2413.2" cy="946.6" r="9.7"/>
				<circle class="st20" cx="2514.2" cy="946.6" r="9.7"/>
				<circle class="st20" cx="2615.2" cy="946.6" r="9.7"/>
				<circle class="st20" cx="2716.2" cy="946.6" r="9.7"/>
			</g>
			<g>
				<circle class="st20" cx="1859.2" cy="878.6" r="9.7"/>
				<circle class="st20" cx="1960.2" cy="878.6" r="9.7"/>
				<circle class="st20" cx="2061.2" cy="878.6" r="9.7"/>
				<circle class="st20" cx="2162.2" cy="878.6" r="9.7"/>
				<circle class="st20" cx="2263.2" cy="878.6" r="9.7"/>
				<circle class="st20" cx="2364.2" cy="878.6" r="9.7"/>
				<circle class="st20" cx="2465.2" cy="878.6" r="9.7"/>
				<circle class="st20" cx="2566.2" cy="878.6" r="9.7"/>
				<circle class="st20" cx="2667.2" cy="878.6" r="9.7"/>
				<circle class="st20" cx="2768.2" cy="878.6" r="9.7"/>
			</g>
			<g>
				<circle class="st20" cx="1807.2" cy="808.6" r="9.7"/>
				<circle class="st20" cx="1908.2" cy="808.6" r="9.7"/>
				<circle class="st20" cx="2009.2" cy="808.6" r="9.7"/>
				<circle class="st20" cx="2110.2" cy="808.6" r="9.7"/>
				<circle class="st20" cx="2211.2" cy="808.6" r="9.7"/>
				<circle class="st20" cx="2312.2" cy="808.6" r="9.7"/>
				<circle class="st20" cx="2413.2" cy="808.6" r="9.7"/>
				<circle class="st20" cx="2514.2" cy="808.6" r="9.7"/>
				<circle class="st20" cx="2615.2" cy="808.6" r="9.7"/>
				<circle class="st20" cx="2716.2" cy="808.6" r="9.7"/>
			</g>
			<g>
				<circle class="st20" cx="1859.2" cy="743.6" r="9.7"/>
				<circle class="st20" cx="1960.2" cy="743.6" r="9.7"/>
				<circle class="st20" cx="2061.2" cy="743.6" r="9.7"/>
				<circle class="st20" cx="2162.2" cy="743.6" r="9.7"/>
				<circle class="st20" cx="2263.2" cy="743.6" r="9.7"/>
				<circle class="st20" cx="2364.2" cy="743.6" r="9.7"/>
				<circle class="st20" cx="2465.2" cy="743.6" r="9.7"/>
				<circle class="st20" cx="2569.2" cy="743.6" r="9.7"/>
				<circle class="st20" cx="2667.2" cy="743.6" r="9.7"/>
				<circle class="st20" cx="2768.2" cy="743.6" r="9.7"/>
			</g>
			<g>
				<circle class="st20" cx="1908.2" cy="676.6" r="9.7"/>
				<circle class="st20" cx="2110.2" cy="676.6" r="9.7"/>
				<circle class="st20" cx="2211.2" cy="676.6" r="9.7"/>
				<circle class="st20" cx="2312.2" cy="676.6" r="9.7"/>
				<circle class="st20" cx="2413.2" cy="676.6" r="9.7"/>
				<circle class="st20" cx="2514.2" cy="676.6" r="9.7"/>
				<circle class="st20" cx="2615.2" cy="676.6" r="9.7"/>
				<circle class="st20" cx="2716.2" cy="676.6" r="9.7"/>
			</g>
			<g>
				<circle class="st20" cx="1859.2" cy="610.6" r="9.7"/>
				<circle class="st20" cx="1960.2" cy="610.6" r="9.7"/>
				<circle class="st20" cx="2061.2" cy="610.6" r="9.7"/>
				<circle class="st20" cx="2162.2" cy="610.6" r="9.7"/>
				<circle class="st20" cx="2263.2" cy="610.6" r="9.7"/>
				<circle class="st20" cx="2364.2" cy="610.6" r="9.7"/>
				<circle class="st20" cx="2465.2" cy="610.6" r="9.7"/>
				<circle class="st20" cx="2566.2" cy="610.6" r="9.7"/>
				<circle class="st20" cx="2667.2" cy="610.6" r="9.7"/>
				<circle class="st20" cx="2763.2" cy="610.6" r="9.7"/>
			</g>
			<g>
				<circle class="st20" cx="1908.2" cy="545.6" r="9.7"/>
				<circle class="st20" cx="2009.2" cy="545.6" r="9.7"/>
				<circle class="st20" cx="2110.2" cy="545.6" r="9.7"/>
				<circle class="st20" cx="2211.2" cy="545.6" r="9.7"/>
				<circle class="st20" cx="2312.2" cy="545.6" r="9.7"/>
				<circle class="st20" cx="2413.2" cy="545.6" r="9.7"/>
				<circle class="st20" cx="2514.2" cy="545.6" r="9.7"/>
				<circle class="st20" cx="2615.2" cy="545.6" r="9.7"/>
				<circle class="st20" cx="2716.2" cy="545.6" r="9.7"/>
			</g>
			<g>
				<circle class="st20" cx="2211.2" cy="423.6" r="9.7"/>
				<circle class="st20" cx="2312.2" cy="423.6" r="9.7"/>
				<circle class="st20" cx="2413.2" cy="423.6" r="9.7"/>
				<path class="st20" d="M2523.4,426.8c-1.3,3.8-4.9,6.5-9.2,6.5c-5.3,0-9.7-4.3-9.7-9.7c0-0.7,0.1-1.4,0.2-2.1L2523.4,426.8z"/>
			</g>
			<g>
				<circle class="st20" cx="1960.2" cy="484.6" r="9.7"/>
				<circle class="st20" cx="2061.2" cy="484.6" r="9.7"/>
				<circle class="st20" cx="2152.6" cy="471.7" r="9.7"/>
				<circle class="st20" cx="2263.2" cy="484.6" r="9.7"/>
				<circle class="st20" cx="2364.2" cy="484.6" r="9.7"/>
				<circle class="st20" cx="2465.2" cy="484.6" r="9.7"/>
				<circle class="st20" cx="2566.2" cy="484.6" r="9.7"/>
				<circle class="st20" cx="2667.2" cy="484.6" r="9.7"/>
			</g>
		</g>
		<g>
			<line class="st7" x1="2580.7" y1="988.5" x2="2558.7" y2="689.2"/>
			<path class="st7" d="M2060.2,988.5v-90.7l-20.8-12.2c-35.1-20.6-52.7-61.5-43.6-101.1l31.9-139.2"/>
			<polyline class="st7" points="2202.8,396.4 2269.4,589.3 2423.9,396.4 			"/>
			<polyline class="st7" points="2380.6,448.9 2446,524.7 2513.7,428.2 			"/>
			<polyline class="st7" points="2221.4,448.9 2145.1,513.7 2100.6,429.6 			"/>
			<line class="st7" x1="1999.3" y1="645.3" x2="2013" y2="709.2"/>
		</g>
	</g>
	<g id="PAPER">
		<polygon class="st12" points="2280,1247.9 2005.9,1247.9 1884.7,1058.6 2158.8,1058.6 		"/>
		<polygon class="st27" points="2114.7,1206.8 1840.5,1206.8 1719.4,1017.6 1993.5,1017.6 		"/>
		<g>
			<g>
				<path class="st28" d="M1778.1,1045.2l10.2,4.4c6.8,2.9,12.9,3,15.2,0.2l3.7-4.7c2.2-2.8,8.4-2.8,15.2,0.2l10.2,4.4
					c6.8,2.9,12.9,3,15.2,0.2l4.1-5.3c2.2-2.8,8.4-2.8,15.2,0.2l13.5,5.9c6.8,2.9,12.9,3,15.2,0.2l4.9-6.2c2.2-2.8,8.4-2.8,15.2,0.2
					l15.5,6.8c6.8,2.9,12.9,3,15.2,0.2l5.3-6.8"/>
				<path class="st28" d="M1819.6,1089.6c6.8,2.9,12.9,3,15.2,0.2l3.7-4.7c2.2-2.8,8.4-2.8,15.2,0.2l10.2,4.4
					c6.8,2.9,12.9,3,15.2,0.2l4.1-5.3c2.2-2.8,8.4-2.8,15.2,0.2l13.5,5.9c6.8,2.9,12.9,3,15.2,0.2l4.9-6.2c2.2-2.8,8.4-2.8,15.2,0.2
					l15.5,6.8c6.8,2.9,12.9,3,15.2,0.2l5.3-6.8"/>
				<path class="st28" d="M1840.7,1125.1l10.2,4.4c6.8,2.9,12.9,3,15.2,0.2l3.7-4.7c2.2-2.8,8.4-2.8,15.2,0.2l10.2,4.4
					c6.8,2.9,12.9,3,15.2,0.2l4.1-5.3c2.2-2.8,8.4-2.8,15.2,0.2l13.5,5.9c6.8,2.9,12.9,3,15.2,0.2l4.9-6.2c2.2-2.8,8.4-2.8,15.2,0.2
					l15.5,6.8c6.8,2.9,12.9,3,15.2,0.2l5.3-6.8"/>
				<path class="st28" d="M1872,1165.1l10.2,4.4c6.8,2.9,12.9,3,15.2,0.2l3.7-4.7c2.2-2.8,8.4-2.8,15.2,0.2l10.2,4.4
					c6.8,2.9,12.9,3,15.2,0.2l4.1-5.3c2.2-2.8,8.4-2.8,15.2,0.2l13.5,5.9c6.8,2.9,12.9,3,15.2,0.2l4.9-6.2c2.2-2.8,8.4-2.8,15.2,0.2
					l15.5,6.8c6.8,2.9,12.9,3,15.2,0.2l5.3-6.8"/>
			</g>
		</g>
	</g>
	<g id="HAND">
		<path class="st29" d="M2168.5,1098h525.8c69.6,0,124.1-59.9,117.5-129.1l0,0c-6.6-69.5-71.7-118.2-140.2-104.8l-605.1,84.3
			c-22.9,3.2-43,17.1-53.9,37.5l-53.6,99.6c-1.9,2.5-3.2,5.4-4,8.4l-20.1,77.7h11.3c17.5,0,33.7-9.7,41.9-25.2l10.1-18.9l116.3,12.6
			c21.8,2.7,42.5-12.2,50.3-32.6L2168.5,1098z"/>
		<g>
			<line class="st30" x1="1999.3" y1="1124.1" x2="2034.4" y2="1051.4"/>
			<line class="st30" x1="2046.1" y1="1128.7" x2="2081.2" y2="1056"/>
			<line class="st30" x1="2091.9" y1="1134.4" x2="2126.9" y2="1061.7"/>
			<line class="st30" x1="2168.5" y1="1098" x2="2184.5" y2="1050.3"/>
		</g>
	</g>
	<g id="HEAD_3_">
		<g id="HAIR_1_">
			<path class="st11" d="M2297.9,55.4c0,0,68.8-43.2,136,11.3c63.4,51.5,33.8,153,10.6,136c-19.9-14.5,135.2-64,183.8,50.9
				c55.1,130.2-69,204.1-210.5,139.7h-205.3l-218.3,68.1c0,0-110.9-56.4-50.6-166.4c55.7-101.5,188.8-65.3,173.8-40.2
				c-21.1,35.2-111.3-76.2-47.9-181.4C2136.5-37.8,2288.7,3.6,2297.9,55.4z"/>
			<path class="st31" d="M2342.2,200.5c0,0-62.3-29.6-50.8-90.3c0,0-28.5,81.8-120.8,81.2c-42.4-0.3-40.6-44.3-18-64.9"/>
		</g>
		<g id="NECK">
			<polygon class="st29" points="2419.5,397.5 2367,258.1 2217.8,258.1 2206.1,397.5 2270.4,582.3 			"/>
			<path class="st32" d="M2299,368l-78.7,69.5l-14.2-40l11.7-139.4H2350v2.6C2349.9,302.4,2331.2,341.8,2299,368z"/>
		</g>
		<g id="HEAD_2_">
			<path class="st29" d="M2401.1,231v5.6c0,15.2-12.4,27.6-27.6,27.6h-30c-5.6,42.5-42,75.4-86,75.4c-24,0-45.7-9.7-61.4-25.4
				s-25.4-37.4-25.4-61.4v-58.4c92.3,0.7,118.8-75.2,118.8-75.2c-6.1,57,45.9,81.5,53.8,84.8v-0.6h30.2
				C2388.7,203.4,2401.1,215.8,2401.1,231z"/>
			<g>
				<path class="st30" d="M2272.6,177.8c0,0,21.5,0.4,36,15.8"/>
				<ellipse class="st32" cx="2268.1" cy="236.4" rx="6.1" ry="10.7"/>
				<ellipse class="st32" cx="2184.8" cy="236.4" rx="6.1" ry="10.7"/>
				<path class="st30" d="M2221.7,287.9c0,0,16.4,7.9,31.3-6.6"/>
				<path class="st30" d="M2351.2,241.9c0-13,10.6-23.6,23.6-23.6"/>
				<path class="st30" d="M2180.2,178.8c0,0-21.5,0.4-36,15.8"/>
			</g>
			<g id="GLASSES">
				<ellipse class="st17" cx="2181.5" cy="234.9" rx="34.3" ry="40.3"/>
				<ellipse class="st17" cx="2273.6" cy="234.9" rx="34.3" ry="40.3"/>
				<path class="st17" d="M2239.4,234.9c0,0-12.3-8.8-23.6,0"/>
			</g>
		</g>
	</g>
</g>
<g id="GIRL">
	<g id="DRESS">
		<path class="st5" d="M1159.4,669.4H1354c95.2,0,186.9,36.4,256.1,101.7L1724.5,879l-170,47.5l-32.7-30.8
			c-11.9-11.1-31.3-5.3-35.1,10.5l-14.2,59.8h-379.1l-17.2-100.3c-4.7-16.3-25.7-20.8-36.6-7.8l-13.3,15.9L766.2,869l171.3-126.6
			C1001.7,695,1079.5,669.4,1159.4,669.4z"/>
		<path class="st16" d="M1170.9,669.4l102.2,177.8l96.3-177.3c11.3,0.6,22.5,1.7,33.6,3.3c-4.4,26.6-26.3,185.6,65,292.8h-379.1
			c0,0,76.3-152.9,45.7-296.1L1170.9,669.4z"/>
	</g>
	<g id="COPYBOOK">
		<polygon class="st2" points="936.5,1168.2 1682.9,1168.2 1537.6,966.1 1093.4,966.1 		"/>
		<polygon class="st27" points="1682.9,1168.2 936.5,1168.2 1093.4,966.1 1537.6,966.1 		"/>
		<path class="st16" d="M1309.7,1168.2H936.5C1158.3,1033.4,1309.7,1168.2,1309.7,1168.2z"/>
		<path class="st16" d="M1309.7,1168.2h373.2C1461.1,1033.4,1309.7,1168.2,1309.7,1168.2z"/>
		<line class="st15" x1="1309.7" y1="1168.2" x2="1309.7" y2="966.1"/>
	</g>
	<g id="HANDS">
		<g id="RIGHT">
			<path class="st4" d="M1480.8,1030.4L1588,879.3c16.4-20.9,41.5-33.2,68.1-33.2l0,0c47.8,0,86.6,38.8,86.6,86.6v3
				c0,30.8-16.4,59.3-43,74.8l-143.2,82l-39.6,68.1c-7.4,12.7-20.9,20.5-35.6,20.5h-125.1c0,0-0.4-22.7,24.6-30.3
				s29.2-32.3,29.2-32.3s-12.4,9.6-37.1,0.5l47.6-68.3c8.8-12.7,23.3-20.3,38.8-20.3L1480.8,1030.4L1480.8,1030.4z"/>
			<path class="st33" d="M1520,1107.2l-31.5,54.1c-5.9,10.1-16.6,16.3-28.3,16.3"/>
			<path class="st33" d="M1486.3,1107.2l-31.5,54.1c-5.9,10.1-16.6,16.3-28.3,16.3"/>
			<path class="st33" d="M1452.6,1107.2l-31.5,54.1c-5.9,10.1-16.6,16.3-28.3,16.3"/>
			<line class="st33" x1="1480.8" y1="1030.4" x2="1503.5" y2="1030.4"/>
		</g>
		<g id="LEFT">
			<g>
				<path class="st4" d="M1322.3,938.3c-1,0.6-1,2.1,0,2.7c3,1.7,5,5,5,8.8v9.6c0,3.8-2,7-5,8.8c-1,0.6-1,2.1,0,2.7c3,1.7,5,5,5,8.8
					v9.6c0,3.8-2,7-5,8.8c-1,0.6-1,2.1,0,2.7c3,1.7,5,5,5,8.8v9.6c0,5.6-4.4,10.1-9.9,10.1H842.7c-62.4,0-113.6-52.9-100.7-115.3
					c9.8-47.4,50.7-79.7,96.1-79.7c7.3,0,14.8,0.9,22.3,2.6l338.5,73.2h117c6.3,0,11.4,5.2,11.4,11.6v8
					C1327.3,933.2,1325.3,936.5,1322.3,938.3z"/>
				<line class="st33" x1="1320.8" y1="939.6" x2="1267.6" y2="939.6"/>
				<line class="st33" x1="1320.8" y1="969.4" x2="1267.6" y2="969.4"/>
				<line class="st33" x1="1320.8" y1="999.2" x2="1267.6" y2="999.2"/>
			</g>
			<path class="st20" d="M1228.5,910.3c0,0-75.2-110.3-54.5-112.3s73.9,111.8,73.9,111.8L1228.5,910.3z"/>
		</g>
	</g>
	<g id="HEAD">
		<path id="HEAD_1_" class="st4" d="M1414.4,661.3c0.2,7.5-2.8,14.3-7.7,19.2c-4.8,4.8-11.4,7.7-18.6,7.7h-22.5
			c-3.9,42-39.1,74.8-82.1,74.8h-24.1c-42.9,0-78.2-32.8-82.1-74.8h-22.6c-7.3,0-13.9-2.9-18.6-7.7c-4.9-4.9-7.9-11.7-7.7-19.2
			c0.3-14.4,12.5-25.8,26.9-25.8h21.7v-14.9c0-18.5,15-33.4,33.4-33.4h122.1c18.5,0,33.4,15,33.4,33.4v14.9h21.6
			C1402,635.5,1414.1,646.9,1414.4,661.3z"/>
		<g id="FACE">
			<path class="st34" d="M1374.2,676.6c0-11.4,9.2-20.6,20.6-20.6"/>
			<path class="st34" d="M1298.9,679.4c0,0,20.9-4.2,33.4,8"/>
			<path class="st34" d="M1205.5,682.5c0,0,13.6-11.3,32.4-3c11.2,4.9,16.9,23.8,18.6,45.7c0,0,10.7,11.4,28.7,0"/>
			<path class="st34" d="M1166.6,676.6c0-11.4-9.2-20.6-20.6-20.6"/>
			<ellipse class="st5" cx="1230.4" cy="707.3" rx="3.8" ry="7.3"/>
			<ellipse class="st5" cx="1309.4" cy="707.3" rx="3.8" ry="7.3"/>
		</g>
		<g id="HAIR">
			<path class="st12" d="M1518.9,582.3c-21.2,38.4-69.5,52.3-107.8,31.1c-6.5-3.6-12.3-8-17.4-12.9c-4.5,20.9-11.7,35.2-11.7,35.2
				s-10.1,4.1-27.8,8.3c2.2-7.2,7.4-32.8-17.1-56.5c0,0,17,33.7-7.8,60.2c-0.5,0.5-1,1.1-1.4,1.6c-41.6,6.7-103.2,9.2-170.6-13.6
				c0,0-25.3-41.6-12.8-85.3c-7.4,2.2-15.3,3.4-23.5,3.4c-45.6,0-82.6-37-82.6-82.6s37-82.6,82.6-82.6c45.6,0,82.6,37,82.6,82.6
				c0,5.3-0.5,10.5-1.5,15.6c60-31.2,144.3-12.1,176.2,22c0.5-1.1,1.1-2.1,1.6-3.1c21.2-38.4,69.5-52.3,107.8-31.1
				C1526.1,495.6,1540.1,543.9,1518.9,582.3z"/>
			<g>
				<g>
					<g>
						<path class="st9" d="M1242.7,430.8c-6-4.7-11.8-6-17.4-3.7c-8.2,3.3-15.2,14.4-20.7,33.1c-0.8,2.5-0.4,2-1,4.4
							c-0.1-15.3-4.2-22.8-10-28.1c-4.2-3.8-9.7-4.9-16.3-3.2c-3.6,1-6.2,3.2-7.2,6.5c-2.2,6.6,1.4,17.4,11.1,32.9
							c5,8,10.2,15.1,12.8,18.4l-53.1,59.2c-1.1,1.2-1,3.1,0.2,4.2c0.6,0.5,1.3,0.8,2,0.8c0.8,0,1.6-0.3,2.2-1l54.7-61l0.1-0.1
							l3.6-4.1l0,0c2-1.3,11.6-7.2,21.3-15.2c14.9-12.2,22.8-22.6,23.3-31.1C1248.7,438.1,1246.7,434,1242.7,430.8z M1175.8,441.7
							c0.3-0.9,0.9-2,3.1-2.6c1.5-0.4,2.9-0.6,4.2-0.6c2.6,0,4.7,0.8,6.5,2.4c8,7.3,7.6,29.3,6.2,42.8
							C1185.4,469.5,1173.3,449.4,1175.8,441.7z M1242.4,442.5c-0.7,11.9-23.1,29.2-36.5,38.2c3-16,10.3-43.5,21.7-48.1
							c1-0.4,2.1-0.6,3.2-0.6c2.6,0,5.3,1.2,8.2,3.5C1241.5,437.5,1242.6,439.7,1242.4,442.5z"/>
					</g>
				</g>
				<g>
					<path class="st9" d="M1423.2,466.1c-5-4.8-10.3-6.5-15.9-5.1c-7.8,1.9-15.6,10-23.1,24.1c-1.5,2.8-2.9,5.6-4,8.2
						c-0.2-3.8-0.5-8.1-1.1-12.6c-2.3-18.3-7.2-29.8-14.5-34.1c-5.1-3-11.2-2.6-17.9,1.4c-4.6,2.7-7.2,6.6-7.5,11.4
						c-1.2,17.2,27.2,41.5,34.9,47.8l18.9,94.4c0.3,1.4,1.5,2.4,2.9,2.4c0.2,0,0.4,0,0.6-0.1c1.6-0.3,2.7-1.9,2.3-3.5l-18.4-92
						c3-1.2,11.8-5,20.9-10c15.6-8.6,23.8-16.1,25.1-22.9C1426.8,473,1426.6,469.5,1423.2,466.1z M1373.7,499.1
						c-11.5-10-29.4-28.2-28.7-39.4c0.2-2.8,1.6-5,4.6-6.7c2.9-1.7,5.4-2.5,7.6-2.5c1.5,0,2.9,0.4,4.2,1.1
						c5.5,3.2,9.6,13.8,11.6,29.7c0.8,6.5,1.1,12.7,1.2,17.3C1374.1,498.7,1373.9,498.9,1373.7,499.1z M1420.5,474.3
						c-1.5,7.8-21.4,19.1-37,26.1c5.1-12.2,14.9-31.1,25.2-33.6c0.7-0.2,1.4-0.3,2.2-0.3c2.7,0,5.4,1.3,8.2,3.9
						C1420.7,472.1,1420.7,473.4,1420.5,474.3z"/>
				</g>
			</g>
		</g>
	</g>
</g>
</svg>
