<?xml version="1.0" encoding="utf-8"?>
<!-- Generator: Adobe Illustrator 25.4.1, SVG Export Plug-In . SVG Version: 6.00 Build 0)  -->
<svg version="1.1" id="Слой_1" xmlns="http://www.w3.org/2000/svg" xmlns:xlink="http://www.w3.org/1999/xlink" x="0px" y="0px"
	 viewBox="0 0 3758.6 2834.8" style="enable-background:new 0 0 3758.6 2834.8;" xml:space="preserve">
<style type="text/css">
	.st0{fill:#D0F0E4;}
	.st1{fill:none;stroke:#FFCF2D;stroke-width:6;stroke-miterlimit:10;}
	.st2{fill:none;stroke:#FE5244;stroke-width:5;stroke-miterlimit:10;}
	.st3{fill:#A0505A;}
	.st4{fill:#FFCF2D;}
	.st5{fill:#FFFFFF;stroke:#9A3B82;stroke-width:5;stroke-miterlimit:10;}
	.st6{fill:none;stroke:#9A3B82;stroke-width:5;stroke-miterlimit:10;}
	.st7{fill:#9A3B82;}
	.st8{fill:#FE5244;}
	.st9{fill:none;stroke:#FFFFFF;stroke-width:6;stroke-linecap:round;stroke-miterlimit:10;}
	.st10{fill:#FFFFFF;stroke:#3FB1B5;stroke-width:5;stroke-linecap:round;stroke-miterlimit:10;}
	.st11{fill:#FFFFFF;stroke:#3FB1B5;stroke-width:4.9998;stroke-linecap:round;stroke-miterlimit:9.9997;}
	.st12{fill:#FFFFFF;stroke:#FE5244;stroke-width:5;stroke-miterlimit:10;}
	.st13{fill:none;stroke:#73325A;stroke-width:4;stroke-linecap:round;stroke-miterlimit:10;}
	.st14{fill:#73325A;}
	.st15{fill:#FFFFFF;stroke:#9A3B82;stroke-width:4;stroke-miterlimit:10;}
	.st16{fill:#3FB1B5;}
	.st17{fill:none;stroke:#3FB1B5;stroke-width:5;stroke-linecap:round;stroke-miterlimit:10;}
	.st18{fill:#E57281;}
	.st19{fill:none;stroke:#FE5244;stroke-width:5;stroke-linecap:round;stroke-miterlimit:10;}
	.st20{fill:none;stroke:#9A3B82;stroke-width:4;stroke-linecap:round;stroke-miterlimit:10;}
	.st21{fill:#FFFFFF;stroke:#FE5244;stroke-width:4.9999;stroke-miterlimit:9.9997;}
	.st22{fill:#FFFFFF;}
</style>
<g id="GRASS">
	<path class="st0" d="M3739.2,2831.2l-1178.9,2.1c-144.5,1-298,1.5-457.2,1.5c-387.5,0-741.7-3.2-1012.6-8.5H0
		c0-192.6,212-108,267.9-74c65,39.5-18.7-170.8,114-170.8c113.6,0,178.6,57.1,178.6,57.1s3.1-111,110.8-112.6
		c107.7-1.6,176.1,93.3,261.1,171.4c35.1,32.2,77.3,57.8,117.2,77.3c275.7-5.8,646.1-9.4,1053.5-9.4c193,0,377.6,0.8,547.9,2.3l0,0
		c302.6,0,579.7-159.1,658.3-199c194.2-98.8,102.2,136.7,102.2,136.7s149.7-63,255-62.5C3815.2,2643.4,3739.2,2831.2,3739.2,2831.2z
		"/>
	<g>
		<g>
			<path class="st1" d="M3127.5,2825.4c0,0,29.8-268.2-164.2-354.5c0,0-28.6,291.8,68.2,272.7c36.3-7.2-41.6-78-168.6-81
				c0,0,97.3,163.5,215.5,165.8"/>
			<path class="st1" d="M3078.8,2828c0,0,11.2-122.7,130.8-160.9c108-34.4-81,157.9-81,157.9"/>
		</g>
	</g>
	<g>
		<path class="st2" d="M393.2,2816.8c0,0-171.5-117.5-219.8-309.2c0,0,151.8,45.4,216.2,142c0,0,26.4-219.9,90.2-293.9
			c0,0,34.5,49.6,38.8,233.4c0,0,78.2-133.2,136.4-176.2c0,0-8,173.3-49.6,261.8c0,0,60.1-46.8,100.7-0.9
			c40.6,45.9-39,113.1-39,113.1"/>
		<path class="st2" d="M479.9,2362.2c0,0,1.7,400.6-16.5,452.5"/>
		<path class="st2" d="M649.4,2423c0,0-119.6,307.3-186,391.7"/>
		<path class="st2" d="M603.6,2676.1c-4.4,16.1-34.7,60.5-40.7,41.4c-5.9-19.1,48.6-50,62.3-55.1"/>
		<path class="st2" d="M389.7,2649.7c8.1,15.6,35.5,59.4,7.8,58.3c-18.1-0.7-2.9-92.6-2.9-92.6"/>
	</g>
</g>
<g id="_x32__CHARACTER">
	<g id="LEGS_1_">
		<g id="LEFT_LEG_1_">
			<g>
				<path class="st3" d="M2650.6,2487.5c-68,33.3-61.6,97.2-62.2,140.1c-0.7,45.7-87.9,69.6-87.9,69.6
					c23.2-73.1,6.7-148.4,6.7-148.4L2650.6,2487.5z"/>
				<path class="st4" d="M2722.7,2655.8l-15.5,8.4l-32.5-74.3c-1.7-3.9-5.5-6.2-9.4-6.2c-1.3,0-2.7,0.3-4,0.8
					c-3.3,1.4-5.7,4.5-6.1,8.1l-14.3,107.7l-188.1,102.4c-5.6-13.4,29.3-47,47.8-105.5c0,0,87.3-23.9,87.9-69.6
					c0.6-42.9-5.7-106.9,62.2-140.1l14.3-6.1C2743,2517.3,2722.7,2655.8,2722.7,2655.8z"/>
			</g>
			<path class="st5" d="M2664.9,1953.8v527.6l-155.6,67.5l-116.6-529.7C2444.9,2021.2,2531.9,2010.2,2664.9,1953.8z"/>
			<line class="st6" x1="2550.5" y1="2000.2" x2="2581.2" y2="2517.5"/>
			<path class="st7" d="M2664.9,1953.8v138.1l-264.8-38.3l-7.4-34.4C2444.9,2021.2,2531.9,2010.2,2664.9,1953.8z"/>
		</g>
		<g id="RIGHT_LEG_1_">
			<g>
				<path class="st4" d="M3449.1,1595.8l-100.6,21.2c-3.4,0.7-6.8-0.4-9.2-2.9c-1.7-1.9-2.6-4.2-2.6-6.6c0-2.6,1-5.2,3.1-7.1
					l56-52.5l-12.4-11.1c0,0-130,25.5-137.4,106.6l9.9,10.8c51.1,50.2,106.2,24.3,144.7,11.3c36.8-12.4,80.7,44.7,89.4,56.5
					c0.1,0,0.3,0,0.4,0c58-1.9,99.1,18.7,109.2,9.4L3449.1,1595.8z"/>
				<path class="st3" d="M3256,1654.2c51.1,50.2,106.2,24.3,144.7,11.3c41-13.8,89.9,56.5,89.9,56.5
					c-72.6,2.3-134.5,40.8-134.5,40.8L3256,1654.2z"/>
			</g>
			<path class="st5" d="M2634.8,1958.3c0,0,25.3,170.9,219.4,167.7c194.1-3.2,499.8-364.2,499.8-364.2L3246.5,1644L2634.8,1958.3z"
				/>
			<path class="st6" d="M2746.7,1911.9c6.4,45,36.6,87.4,128.7,85.9c136.8-2.2,330.1-181.7,432.3-287.5"/>
		</g>
	</g>
	<g id="DRESS_1_">
		<path class="st8" d="M3482,1295.4c-17.7-6.7-59.8,16.3-91.5,56.3c-34.1,42.9-47.9,88.5-32.9,100.4l-480.3-255.4
			c-23.6-12.5-50.8,8.9-44.1,34.7l145.4,550.8c-492.5,319.6-650.4,223.8-650.4,223.8V196c0,0.1,0,0.1,0.1,0.2
			c4.2,10.7,49.3,3.2,100.8-16.9c47.4-18.4,83.6-41,85.9-52.8l0.1-0.1v570.3c0,35.8,19.3,68.7,50.5,86.2L3482,1295.4z"/>
		<path class="st8" d="M3482,1295.4c-17.7-6.7-59.8,16.3-91.5,56.3c-34.1,42.9-47.9,88.5-32.9,100.4l-480.3-255.4
			c-23.6-12.5-50.8,8.9-44.1,34.7l145.4,553c-125.2,81.3-228.8,133.5-313.7,169.5c-133,56.3-220,67.4-272.2,65.4
			c-45.5-1.7-64.5-13.3-64.5-13.3V196c0,0.1,0,0.1,0.1,0.2c4.2,10.7,49.3,3.2,100.8-16.9c47.4-18.4,83.6-41,85.9-52.8l0.1-0.1v570.3
			c0,35.8,19.3,68.7,50.5,86.2L3482,1295.4z"/>
		<line class="st9" x1="2793.1" y1="1152.3" x2="3357.6" y2="1458.5"/>
		<polygon class="st4" points="2579,790.3 2515.7,1158.2 2838.8,935.7 		"/>
		<polyline class="st9" points="2579,790.3 2515.7,1158.2 2838.8,935.7 		"/>
	</g>
	<g id="ARMS_1_">
		<g id="LEFT_ARM_1_">
			<g>
				<g>
					<path class="st10" d="M2576.4,80.2l-417.1,85.5c-15.4,3.2-31.3-10.5-35.4-30.6c-4.1-20.1,5.1-38.9,20.5-42.1l417.1-85.5
						L2576.4,80.2z"/>
					
						<ellipse transform="matrix(0.9796 -0.2008 0.2008 0.9796 43.5093 516.7258)" class="st11" cx="2568.8" cy="43.9" rx="28.5" ry="37.1"/>
				</g>
				<path class="st8" d="M2338.4,116.6c0,0-134.9,151.6-120.2,185c19.2,19.1,34.8,27.5,32.5,34.6c-2.5,7.7-34.8,54.2-34.8,54.2
					l-3.2-34.5l-30.9,10.2c0,0,32.6-47.6,34.7-62.2c-13.4-10.2-40.7-31.4-39.8-46.2c1-15.7,48.8-71.5,83.5-110l-52.3,17.3
					l-10.3-48.3l94.1-17.3L2338.4,116.6z"/>
				<circle class="st12" cx="2320.1" cy="94.8" r="28.4"/>
			</g>
			<path class="st7" d="M2515,126.5c-2.3,11.8-38.5,34.4-85.9,52.8c-51.5,20-96.6,27.6-100.8,16.9c0-0.1,0-0.1-0.1-0.2
				c-3.6-10.8,34.6-35.5,85.8-55.4c51.5-20,96.6-27.6,100.8-16.9C2515.1,124.5,2515.2,125.4,2515,126.5z"/>
			<path class="st3" d="M2480.3,42.5l-5.5,79.4l-2.6,38c-12.5,6.6-27.2,13.2-43.1,19.4c-27,10.5-52.2,17.5-70.7,20.4v-72.6
				l75.9-15.6c0,0,4.2-27.1,12.2-49.8C2454.4,38.9,2480.3,42.5,2480.3,42.5z"/>
			<path class="st13" d="M2436.4,108.2c-1.1,4.5-34.1,15-34.1,39"/>
			<path class="st14" d="M2474.8,121.9l-2.6,38c-12.5,6.6-27.2,13.2-43.1,19.4c-27,10.5-52.2,17.5-70.7,20.4v-32.8
				c14.8-8.7,34.1-17.9,55.6-26.3C2436.4,131.8,2457.6,125.4,2474.8,121.9z"/>
			<g>
				<path class="st3" d="M2425.1,82.2l-84.7,19.4c-4.5,1-8.7-2.6-8.7-7.6V42.6c0-6.9,4.2-12.9,10.3-14.9l83.7-27.3
					c5.3-1.7,10.6,2.5,10.6,8.4v58.6C2436.2,74.5,2431.6,80.7,2425.1,82.2z"/>
				<path class="st13" d="M2361.7,93.6c-4.6,1-9-2.5-9-7.3V37c0-6.6,4.3-12.4,10.6-14.3"/>
				<path class="st13" d="M2386.1,88.3c-4.6,1-9-2.6-9-7.5V30c0-6.8,4.3-12.8,10.6-14.7"/>
				<path class="st13" d="M2413.4,82.5c-4.6,1-9-2.7-9-7.7V22.2c0-7,4.3-13.2,10.6-15.2"/>
			</g>
		</g>
		<g id="RIGHT_ARM_1_">
			<path class="st7" d="M3444.8,1394.8c-34.1,43-72.3,69.1-87.3,57.2s-1.2-57.4,32.9-100.4c31.8-40,73.8-63,91.5-56.3l3.5,2
				C3500.5,1309.3,3478.9,1351.9,3444.8,1394.8z"/>
			<path class="st3" d="M3599.1,1467.1l-22.7,12c-9,4.8-20.2,1.4-25-7.6l-23.9-44.4l-36.2-12.4c4,1.5,19.6,9.5,14.7,38.6l-85-31.7
				l-29.2-10.9l-27.7-17.7c6.5-13.2,15.4-27.4,26.5-41.3c9.3-11.7,19.4-21.9,29.5-30.3l28.9,20.2l29.6,3.2l48.1,5.1
				c7.7,0.8,15.1,3.4,21.6,7.5l38.4,27.3c5.6,4,9.3,10,10.2,16.8l7.8,54.6C3605.4,1460.6,3603.1,1465,3599.1,1467.1z"/>
			<path class="st13" d="M3543.2,1378.2l33.3,23.7c4.8,3.4,8,8.7,8.9,14.6l6.8,44.1c0.5,3.9-1.4,7.7-4.9,9.5"/>
			<path class="st13" d="M3522.6,1386.1l33.3,23.7c4.8,3.4,8,8.7,8.9,14.6l6.8,44.1c0.5,3.9-1.4,7.7-4.9,9.5"/>
			<line class="st13" x1="3491.3" y1="1414.6" x2="3467.1" y2="1406.4"/>
			<path class="st14" d="M3478.6,1344.8c-8.1,15.3-19.9,32.7-33.7,50.1c-7.9,9.9-15.9,18.9-23.9,26.7l-29.2-10.9l-27.7-17.7
				c6.5-13.2,15.4-27.4,26.5-41.3c9.3-11.7,19.4-21.9,29.5-30.3l28.9,20.2L3478.6,1344.8z"/>
		</g>
	</g>
	<g id="HEAD_1_">
		<g id="CAP">
			<polygon class="st8" points="2605.4,523.3 2819.3,618.2 2895.6,841.4 2740.6,730.6 2668.3,642.3 			"/>
			<path class="st7" d="M2668.3,642.3c0,0,70,12,98.2,90l14.9-15c0,0-27.1-75.9-98.7-95.4L2668.3,642.3z"/>
			<path class="st4" d="M3085.5,739.2c-24-13.6-46.2-21.1-53.3-18.4c0.5-1.2,0.8-2.6,0.7-4c-0.4-4.4-4-7.7-8.3-7.7
				c-0.2,0-0.4,0-0.7,0c-4.6,0.4-8,4.4-7.7,9c0,0.3,0.1,0.6,0.1,0.8l-25.4,16.3c-5.7,3.7-12.7,3.9-18.7,0.6s-9.5-9.3-9.5-16.1v-36.5
				c0-15.9-7.9-30.6-21.2-39.4c-13.3-8.8-30-10.2-44.6-4l-48.4,21.6l-18.4-53.9l-215-95.3c-1.3-0.6-2.9,0-3.5,1.4
				c-0.6,1.3,0,2.9,1.4,3.5l212.8,94.4l75.9,222.1c0.4,1.1,1.4,1.8,2.5,1.8c0.3,0,0.6-0.1,0.9-0.1c1.4-0.5,2.1-2,1.7-3.4
				l-56.5-165.4l48.8-21.8c13-5.6,27.8-4.3,39.5,3.5c11.8,7.8,18.8,20.8,18.8,35v36.5c0,8.8,4.6,16.6,12.3,20.8c3.6,2,7.5,3,11.4,3
				c4.4,0,8.8-1.3,12.7-3.8l25.2-16.1c1.5,1.4,3.5,2.2,5.6,2.2c0.2,0,0.5,0,0.7,0c1.8-0.1,3.4-0.8,4.6-1.9c0,7.1,18.2,23,43.2,37.2
				c5.4,3.1,10.8,5.9,15.9,8.3c3.1-2.6,5.7-5.7,7.8-9.4c2.1-3.6,3.4-7.5,4-11.5C3096,745.5,3090.9,742.3,3085.5,739.2z
				 M3024.8,721.6c-2.3,0.2-4.2-1.5-4.4-3.7s1.5-4.2,3.7-4.4c2.2-0.2,4.2,1.5,4.4,3.7C3028.7,719.4,3027,721.4,3024.8,721.6z"/>
		</g>
		<g id="HEAD_2_">
			<g id="NECK">
				<polygon class="st3" points="2654.4,773.8 2617.4,979.6 2743.5,882.4 2743.5,754.1 				"/>
				<polygon class="st14" points="2654.4,773.8 2649.8,799.6 2705.6,911.6 2743.5,882.4 2743.5,754.1 				"/>
			</g>
			<g id="HAIR">
				<path class="st15" d="M2670.4,644.4c0,0-63.1-15.7-82.8,20.9c-19.7,36.6,37.9,46.7,40.3,33.9c1.1-5.6-103.7-5.5-86.1,73.8
					c18.3,82.6,100.8,54.2,100.8,54.2l9.6-53.4L2670.4,644.4z"/>
				<path class="st15" d="M2742.5,762.8c0,0-94.2,122.8-11.4,175c66.4,41.8,83.5-17.1,65.7-25.2c-19.3-8.8-63.6,157.2,72.8,156.7
					c136.7-0.5,94.9-171.2,26-227.8c-32.9-27-142.7-102.5-142.7-102.5L2742.5,762.8z"/>
			</g>
			<g id="HEAD_3_">
				<path class="st3" d="M2739.7,732l7.1,4.5c6.9,4.4,8.9,13.5,4.6,20.4l-1.4,2.1c-4.4,6.9-13.5,9-20.4,4.6l-7.6-4.8
					c-8.4,6-58.9,39.7-90.1,6.2c-30.3-32.5,39.7-127.6,39.7-127.6c59.4,18.6,82.6,71.4,82.6,71.4L2739.7,732z"/>
				<g>
					<path class="st13" d="M2652.1,659c0,0,16.4,6.1,14.8,20.2c-1.6,14.1-16.4,36.3-12.9,40.1s8.2,4.5,8.2,4.5"/>
					<path class="st13" d="M2648.1,732.3c0,0,12.2,6.8,28.8,4.2"/>
					
						<ellipse transform="matrix(0.3562 -0.9344 0.9344 0.3562 1071.9073 2977.5276)" class="st14" cx="2696.7" cy="710.9" rx="7.2" ry="3.9"/>
					
						<ellipse transform="matrix(0.3562 -0.9344 0.9344 0.3562 1062.1342 2921.4089)" class="st14" cx="2651.1" cy="689.9" rx="6" ry="3.3"/>
					<path class="st13" d="M2734.5,749.2c2.8-4.4,8.6-5.7,13-2.9"/>
					<path class="st13" d="M2697.6,685.9c0,0,12.2,3.3,18.5,17.8"/>
				</g>
			</g>
			<path id="HAIR_1_" class="st15" d="M2715.8,661.6c0,0-13.3,44.1,24.8,74.2c22.4,17.7,23.7-3.6,23.7-3.6
				S2761.4,688.9,2715.8,661.6z"/>
		</g>
	</g>
</g>
<g id="_x31__CHARACTER">
	<g id="DRESS">
		<path class="st16" d="M1832.4,1791.7c-10.5-38.3-183.9-2.4-374.9,67.1c-182.7,66.5-331.2,156.2-332.8,192.3l-100.2-730.9
			c-1.5-10.3-10.3-17.9-20.7-17.9c-5.8,0-11,2.3-14.8,6.1c-3.8,3.8-6.1,9-6.1,14.8v624.2l0,0c-1.2-17.1-45.3-30.8-99.5-30.8
			s-98.2,13.7-99.5,30.8l0,0V1246c0-59.2,31-114,81.6-144.6l65.7-39.7l270.6-163.4l251.7-153.2V483.6c0,11.2,46.3,20.2,100.9,20.2
			c54.5,0,100.9-8.9,100.9-20.2v283.5c0,62.8-30.7,122.1-79.7,161.3l-153.1,109.4c-26.1,18.6-32.4,54.8-14.2,81.2
			c101.5,146.9,413.4,575.6,424,669.9C1832.4,1789.8,1832.4,1790.8,1832.4,1791.7z"/>
		<line class="st9" x1="1450.5" y1="722.7" x2="1450.5" y2="799.7"/>
		<polygon class="st9" points="931.4,1061.7 1265.1,1284.9 1202,898.3 1129.7,941.1 1146.7,1099.6 1003.3,1016.7 		"/>
		<path class="st17" d="M1821.7,1801.3c-12-33.1-171,5.1-362.1,74.6s-337.8,157.4-325.7,190.5c12,33.1,178.3-1.1,369.4-70.6
			C1694.4,1926.3,1833.8,1834.4,1821.7,1801.3z"/>
	</g>
	<g id="LEGS">
		<g id="RIGHT_LEG">
			<path class="st18" d="M1386.5,2491.8l-11,19.2l-12.2,21.4c-105.5,13.2-124.1-55.8-124.1-55.8l15.9-31.6
				C1297.7,2471.2,1351.7,2485.1,1386.5,2491.8z"/>
			<path class="st5" d="M1766.5,1989.7c-75,129.3-344.7,507.7-344.7,507.7s-14.1-1.5-35.3-5.6c-34.8-6.8-88.8-20.6-131.5-46.8
				c-9.9-6.1-19.1-12.8-27.4-20.3l195.5-397l49.4-104.1l27.4-57.8c3.3-1.2,6.6-2.3,9.8-3.4c1.6-0.6,3.2-1.1,4.9-1.7
				c4.9-1.7,9.7-3.3,14.5-4.9c4-1.3,7.9-2.6,11.8-4c11.9-4,23.6-7.7,35-11.3c76.6-24.2,142.1-40.5,186.3-45.5
				c9.8,13.7,21,33.4,27.4,58.1C1798.9,1889.2,1797.8,1935.8,1766.5,1989.7z"/>
			<g>
				<path class="st12" d="M1439.1,2786.9c-3.4,14.9-21.9,20.2-32.7,9.4l-241.7-240.9l75.6-78.9c0,0,17.5,68.9,123.1,55.8
					C1448.7,2661.1,1448.5,2745.4,1439.1,2786.9z"/>
				<path class="st8" d="M1429.2,2802.1c-16.4,6.3-34.9,3-48.2-8.7l-126.2-110.9c-3.1-2.8-3.5-7.5-0.9-10.8
					c2.5-3.1,2.3-7.7-0.6-10.5l-10.3-10c-2.8-2.8-7.3-2.9-10.3-0.3l-2.4,2c-2.9,2.5-7.1,2.5-9.9,0l-67.8-58.9
					c-8.8-7.6-9.1-21.2-0.8-29.3l11.8-11.4l243.2,245.5c7,7,17.1,7.3,24.3,2.6L1429.2,2802.1z"/>
				<g>
					<path class="st19" d="M1396.3,2564.5c0,0,20.5,18.2-28.5,40.3"/>
					<path class="st19" d="M1409.2,2586.4c0,0,20.5,18.2-28.5,40.3"/>
					<path class="st19" d="M1422.1,2608.3c0,0,20.5,18.2-28.5,40.3"/>
				</g>
			</g>
			<path class="st7" d="M1789.6,1853.1c-65-0.1-131.6,11.2-195.8,29c-5.1-18-12.3-32.3-17.9-41.6c76.6-24.2,142.1-40.5,186.3-45.5
				C1772.1,1808.8,1783.3,1828.5,1789.6,1853.1z"/>
		</g>
		<g id="LEFT_LEG">
			<path class="st18" d="M1111.8,2481.7l-19.3,24.7l-15.2,19.4c-106.3-2.1-114.8-73-114.8-73l23.1-33.1l0,0
				C1025.7,2451.9,1079.9,2471.9,1111.8,2481.7z"/>
			<path class="st5" d="M1596,1963c-5.8,24.7-18.2,51.3-41,78.7c-93.6,112.7-416.8,447.3-416.8,447.3s-126.2-28.4-180.1-96.4
				l217.6-309.1l0,0l80.3-114.1c55.4-29.5,125.8-60.8,203.6-89.2c40.6-14.8,79.7-28.1,116.3-39.7c5.5,9.3,12.8,23.7,17.9,41.6
				C1600.2,1904.3,1603.3,1932.1,1596,1963z"/>
			<g>
				<path class="st12" d="M1115.7,2788.6c-5.5,14.3-24.5,16.9-33.7,4.6l-204.7-273.1l86.1-67.3c0,0,7.4,70.9,113.8,73
					C1143.3,2665.5,1131,2748.9,1115.7,2788.6z"/>
				<path class="st8" d="M1103.8,2801.4c-17.1,3.9-35-2.1-46.4-15.4l-109-127.6c-2.7-3.2-2.4-7.9,0.6-10.8c3-2.7,3.3-7.3,0.9-10.5
					l-8.8-11.3c-2.4-3.1-6.8-3.9-10.2-1.8l-2.6,1.7c-3.2,2-7.3,1.4-9.8-1.4l-59-67.7c-7.6-8.8-6-22.2,3.4-29l13.3-9.6l205.7,276.9
					c5.9,7.9,15.9,9.6,23.7,6.1L1103.8,2801.4z"/>
				<g>
					<path class="st19" d="M1107.4,2563c0,0,17.7,20.9-34,35.8"/>
					<path class="st19" d="M1119.1,2586.5c0,0,17.7,20.9-34,35.8"/>
					<path class="st19" d="M1128.7,2610c0,0,17.7,20.9-34,35.8"/>
				</g>
			</g>
			<path class="st7" d="M1593.9,1882.1c-41.8,11.6-82.6,25.9-121.3,41.4c-167.1,67.3-295.2,158.7-296.8,159.8l80.3-114.1
				c55.4-29.5,125.8-60.8,203.6-89.2c13.6-4.9,27-9.7,40.3-14.4c3.3-1.2,6.6-2.3,9.8-3.4c1.6-0.6,3.2-1.1,4.9-1.7
				c4.9-1.7,9.7-3.3,14.5-4.9c4-1.3,7.9-2.6,11.8-4c11.9-4,23.6-7.7,35-11.3C1581.5,1849.9,1588.7,1864.2,1593.9,1882.1z"/>
		</g>
	</g>
	<g id="ARMS">
		<g id="LEFT_ARM">
			<path class="st10" d="M980.7,1960.9c0,17.4-43.5,31.6-97.2,31.6s-97.2-14.1-97.2-31.6c0-0.2,0-0.5,0-0.7
				c1.2-17.1,44.3-30.8,97.2-30.8c52.9,0,96,13.7,97.2,30.8C980.7,1960.4,980.7,1960.7,980.7,1960.9z"/>
			<path class="st18" d="M941.5,1937.4v82.1c0,26.6-14.7,50.9-38.1,63.4l-39.9,21.2c-9.7,5.2-20.6,7.9-31.6,7.9
				c-4.7,0-7.9-3.9-7.9-8c0-1.7,0.6-3.5,1.8-5l14.9-18c2.1-2.5,0.3-6.2-2.9-6.2h-87.7l-16,20.2c-8.5,10.7-21.5,17-35.1,17h-4.6
				c-5.7,0-9.2-6.1-6.4-11l1.8-3.3c-5.5,2.3-11.5,3.6-17.6,3.6h-4.6c-5.7,0-9.2-6.1-6.4-11l35.9-39.6l24.9-9.8v0.1l123.7-48.6l0,0
				V1934c11.7-1.5,24.4-2.4,37.8-2.4C905.2,1931.5,925.2,1933.7,941.5,1937.4z"/>
			<line class="st20" x1="718.8" y1="2045.1" x2="688.8" y2="2096.6"/>
			<path class="st20" d="M833.1,2090l18.4-22.5c3.6-4.4,0.5-10.9-5.2-10.9"/>
			<path class="st7" d="M941.5,1937.4v51.3c-16.3,3.7-36.3,5.9-58,5.9c-13.4,0-26.1-0.8-37.8-2.4v-58.4c11.7-1.5,24.4-2.4,37.8-2.4
				C905.1,1931.5,925.2,1933.7,941.5,1937.4z"/>
		</g>
		<g id="RIGHT_ARM">
			<path class="st17" d="M1653.2,472.9c0,11.3-44.2,20.2-98.7,20.2s-98.7-8.9-98.7-20.2s44.2-20.6,98.7-20.6
				S1653.2,461.7,1653.2,472.9z"/>
			<path class="st18" d="M1524.4,489.4c-12.2-0.8-23.3-2-32.9-3.7v-97.1c0-3.2,0.7-6.4,2.1-9.3l31.4-64.8c5.8-12,18-19.6,31.3-19.6
				h38.5l-84.2,154.9c-0.4,0.7-0.7,1.4-1,2.1C1504.7,464,1510.8,479.5,1524.4,489.4z"/>
			<path class="st7" d="M1596.8,450.1l12.4-21.6v58.6c-10.2,1.3-21.7,2.4-34,2.9L1596.8,450.1z"/>
			<g>
				<g>
					<path class="st12" d="M1778.2,111l-205,377.2c-7.6,14-28.4,17.3-46.6,7.4s-26.7-29.2-19.1-43.1l205-377.2L1778.2,111z"/>
					
						<ellipse transform="matrix(0.4775 -0.8786 0.8786 0.4775 829.9374 1582.1615)" class="st21" cx="1745.3" cy="93.3" rx="28.8" ry="37.4"/>
				</g>
				<path class="st8" d="M1652.6,249.4l96.9-80.2l-1.5,29.2l31,7.7l-74,45.7c56.8-12.2,158.8-29.4,174.3,0.6
					c6.1,11.8-5.4,35.9-13.1,53.2c-4.8,36.5,186.6-8.7,188.8-9.2l-29.5,27.3l29.5,16.8c0,0-160.6,30.6-202,22.2
					c-23.4-4.8-4.8-36.2,11.5-59.2c5-17.7-34.8-23.5-200.3-5.5L1652.6,249.4z"/>
				<circle class="st12" cx="1654" cy="269" r="28.6"/>
			</g>
			<path class="st18" d="M1676.4,364.8l-9.2,21.6l-10.8,25.2l-5.8,13.7l-8.9,20.9c-0.2,0.6-0.5,1.1-0.8,1.7c0,0,0,0.1-0.1,0.1
				c-2.9,4.9-8.4,8-14.4,8h-70.6c-8.5,0-14.4-8.1-11.2-15.6l5.1-12l11.3-26.5l9.7-22.8l8.5-20.1c2.5-5.9,8.6-9.7,15.3-9.7h70.6
				C1673.8,349.2,1679.6,357.3,1676.4,364.8z"/>
			<g>
				<path class="st20" d="M1573.2,379c2.9-3.3,7.2-5.2,11.8-5.2h67.4c7.1,0,12.2,6.1,11.5,12.6"/>
				<path class="st20" d="M1564,401.9c2.9-2.9,6.9-4.6,11.2-4.6h67.4c7.7,0,13.1,7.2,11.1,14.3"/>
				<path class="st20" d="M1553.4,428.3c2.9-2.7,6.8-4.3,10.9-4.3h67.4c8,0,13.5,7.7,10.9,15l0,0"/>
			</g>
			<path class="st18" d="M1633.5,294.8v1.8c0,18.3-14.8,33.2-33.2,33.2h-34.8v-35H1633.5z"/>
		</g>
	</g>
	<g id="HEAD">
		<g id="CAP_1_">
			<path class="st4" d="M788.4,1077.1c-3.2,4.8-6.5,9.3-9.8,13.4c-3.6-0.9-7.1-2.4-10.3-4.6c-3.2-2.2-5.9-4.8-8.1-7.9
				c2.6-4.5,5.5-9.3,8.8-14.1c16.2-24,33.6-40.5,39-36.9C813.4,1030.6,804.6,1053.1,788.4,1077.1z"/>
			<path class="st16" d="M935.8,716.8L810.9,901.2c-1.5,2.2,0.6,4.9,3.1,4.2l59.7-19.2c-7.3,8.7-11.8,20-11.8,32.2v58.1
				c0,22.7-18.1,41.2-40.7,41.8c-1.4-2.6-4.2-4.4-7.5-4.4c-2.3,0-4.4,0.9-6,2.5s-2.5,3.7-2.4,6c0,4.6,3.8,8.4,8.5,8.4l0,0
				c4.2,0,7.7-3.2,8.3-7.2c25-1.1,45.1-21.8,45.1-47.1v-58.1c0-14.6,7.2-27.9,18-35.9l120.1-38.6l154.2-127.1H935.8z M816,1024.4
				c-0.6,0.6-1.4,0.9-2.2,0.9c-0.8,0-1.6-0.3-2.2-0.9c-0.6-0.6-0.9-1.4-0.9-2.2c0-0.8,0.3-1.6,0.9-2.2s1.4-0.9,2.2-0.9l0,0
				c0.9,0,1.6,0.3,2.2,0.9s0.9,1.3,0.9,2.2C817,1023.1,816.6,1023.8,816,1024.4z"/>
			<g>
				<path class="st16" d="M800,900.8c-0.5,0-1-0.1-1.5-0.5c-1.2-0.8-1.5-2.5-0.7-3.7L928,704.4h235.8c1.5,0,2.7,1.2,2.7,2.7
					s-1.2,2.7-2.7,2.7h-233L802.2,899.6C801.7,900.4,800.9,900.8,800,900.8z"/>
			</g>
			<g>
				<path class="st22" d="M931.6,869.8l-15-6.8l0.8-2.3c0.3-0.9,7.6-22.1,25.6-44.6c16.7-20.9,46-46.6,91.1-51l2.6-0.2l2.6,18.9
					l-5.3,0.7l-1.9-13.8c-41.8,4.8-69.2,29-84.9,48.7c-14.1,17.6-21.5,34.8-23.8,40.8l10.5,4.8L931.6,869.8z"/>
			</g>
		</g>
		<g id="HEAD_4_">
			<g id="NECK_1_">
				<polygon class="st18" points="1007.6,1015.6 977.3,916.6 1048.2,881.9 1077.4,904.1 1127.6,942.2 1142.8,1093.6 				"/>
				<polygon class="st7" points="1077.4,904.1 1077.4,904.1 1023.3,1024.7 1007.6,1015.6 977.3,916.6 1048.2,881.9 				"/>
			</g>
			<path id="HEAD_5_" class="st18" d="M1017.3,923.1c-5.1,0.5-15.4-4.7-27.1-12.1l-13.7,11.1c-7.9,6.4-19.5,5.3-25.9-2.6
				c-2.8-3.4-4.2-7.6-4.2-11.7c0-5.3,2.3-10.6,6.8-14.3l5.6-4.6c-14.7-11-26.2-20.5-26.2-20.5s25.5-76.6,107-84.4
				c0,0,43.2,89.3,46.1,97.8C1088.6,890.4,1046.1,920.2,1017.3,923.1z"/>
			<path id="HAIR_2_" class="st4" d="M958.8,888.9c-14.7-11-26.2-20.5-26.2-20.5s9.4-28.3,35.2-52.3
				C940.8,843,981.1,873,958.8,888.9z"/>
			<g id="FACE">
				<path class="st20" d="M973,837.3c0,0,4.3-11.6,15.2-17.6"/>
				<path class="st20" d="M1051,807.9c0,0-15.1-2.1-22.6,2.5s-7.5,28.4,4.5,43.3"/>
				<path class="st20" d="M1040.1,868.6c0,0-9.3,8.3-25.1,2.2"/>
				<path class="st20" d="M1016.5,866.4c0,0-3.3,4.7-3.1,10"/>
				
					<ellipse transform="matrix(0.9658 -0.2593 0.2593 0.9658 -185.4631 287.0641)" class="st7" cx="995.4" cy="846.5" rx="3" ry="5.9"/>
				
					<ellipse transform="matrix(0.9658 -0.2593 0.2593 0.9658 -178.956 298.0269)" class="st7" cx="1040.2" cy="827.4" rx="2.7" ry="5.5"/>
				<path class="st20" d="M995.4,917l-23.1-18c-2.6-2-6.2-1.8-8.6,0.4l-1.4,1.3c-2.7,2.6-2.7,6.8,0,9.4"/>
			</g>
		</g>
	</g>
</g>
</svg>
