<?xml version="1.0" encoding="utf-8"?>
<!-- Generator: Adobe Illustrator 25.4.1, SVG Export Plug-In . SVG Version: 6.00 Build 0)  -->
<svg version="1.1" id="Слой_1" xmlns="http://www.w3.org/2000/svg" xmlns:xlink="http://www.w3.org/1999/xlink" x="0px" y="0px"
	 viewBox="0 0 3748 2495.9" style="enable-background:new 0 0 3748 2495.9;" xml:space="preserve">
<style type="text/css">
	.st0{fill:#D0F0E4;}
	.st1{fill:#FFFFFF;stroke:#66B0F0;stroke-width:6;stroke-miterlimit:10;}
	.st2{fill:#66B0F0;}
	.st3{fill:#66B0F0;stroke:#66B0F0;stroke-width:6;stroke-miterlimit:10;}
	.st4{fill:none;stroke:#66B0F0;stroke-width:6;stroke-miterlimit:10;}
	.st5{fill:#FFCF2D;}
	.st6{fill:#FFFFFF;}
	.st7{fill:#FFFFFF;stroke:#66B0F0;stroke-width:4;stroke-miterlimit:10;}
	.st8{fill:none;stroke:#66B0F0;stroke-width:4;stroke-linecap:round;stroke-miterlimit:10;}
	.st9{fill:#E57281;}
	.st10{fill:#9A3B82;}
	.st11{fill:#3FB1B5;}
	.st12{fill:#E6E6E6;}
	.st13{fill:none;stroke:#FFFFFF;stroke-width:6;stroke-linecap:round;stroke-miterlimit:10;}
	.st14{fill:none;stroke:#FFFFFF;stroke-width:6;stroke-miterlimit:10;}
	.st15{fill:#FFFFFF;stroke:#FFCF2D;stroke-width:6;stroke-miterlimit:10;}
	.st16{fill:none;stroke:#FFCF2D;stroke-width:6;stroke-linecap:round;stroke-miterlimit:10;}
	.st17{fill:#FFFFFF;stroke:#FE5244;stroke-width:6;stroke-miterlimit:10;}
	.st18{fill:none;stroke:#FE5244;stroke-width:6;stroke-miterlimit:10;}
	.st19{fill:#FFCF2D;stroke:#FE5244;stroke-width:6;stroke-linejoin:round;stroke-miterlimit:10;}
	.st20{fill:none;stroke:#9A3B82;stroke-width:5;stroke-linecap:round;stroke-miterlimit:10;}
	.st21{fill:#FE5244;}
	.st22{fill:#FFFFFF;stroke:#3FB1B5;stroke-width:5;stroke-miterlimit:10;}
	.st23{fill:none;stroke:#3FB1B5;stroke-width:5;stroke-miterlimit:10;}
	.st24{fill:#A0505A;}
	.st25{fill:#73325A;}
	.st26{fill:#FFFFFF;stroke:#FFCF2D;stroke-width:6;stroke-linecap:round;stroke-miterlimit:10;}
	.st27{fill:none;stroke:#73325A;stroke-width:5;stroke-linecap:round;stroke-miterlimit:10;}
</style>
<polygon id="FLOOR" class="st0" points="3748,2495 0,2495 672.8,2097.7 3085.5,2097.7 "/>
<g id="LAPTOP">
	<g>
		<path class="st1" d="M2148.9,552.7h-674.3V162.8c0-26.4,21.4-47.8,47.8-47.8h578.7c26.4,0,47.8,21.4,47.8,47.8V552.7z"/>
		<path class="st2" d="M2098,527.3h-569.7c-15,0-27.2-12.2-27.2-27.2V165.9c0-15,12.2-27.2,27.2-27.2H2098c15,0,27.2,12.2,27.2,27.2
			v334.3C2125.2,515.2,2113,527.3,2098,527.3z"/>
		<path class="st3" d="M2267.1,644.2c25.8,16.8,19.8,49.7-10.7,49.7h-918.6c-25.7,0-34.5-34.7-9.3-50.6L2267.1,644.2z"/>
		<path class="st1" d="M2256.4,671h-918.6c-16.4,0-22.9-19.3-9.3-27.7l146.3-90.6H2147l120,91.5C2279,653.3,2272,671,2256.4,671z"/>
		<g>
			<path class="st1" d="M2150.4,643.7h-706.6c-12.6,0-17.6-14.9-7.2-21.3l101.6-69.7h528l92.3,70.4
				C2167.8,630.1,2162.4,643.7,2150.4,643.7z"/>
			<g>
				<line class="st4" x1="2020.5" y1="552.7" x2="2112.9" y2="643.7"/>
				<line class="st4" x1="1971.5" y1="552.7" x2="2052.9" y2="643.7"/>
				<line class="st4" x1="1925.7" y1="552.7" x2="1996.3" y2="643.7"/>
				<line class="st4" x1="1874.5" y1="552.7" x2="1934.2" y2="643.7"/>
				<line class="st4" x1="1832" y1="552.7" x2="1861.1" y2="643.7"/>
			</g>
			<g>
				<line class="st4" x1="1581.1" y1="552.7" x2="1488.7" y2="643.7"/>
				<line class="st4" x1="1630.1" y1="552.7" x2="1548.7" y2="643.7"/>
				<line class="st4" x1="1675.9" y1="552.7" x2="1605.3" y2="643.7"/>
				<line class="st4" x1="1727.1" y1="552.7" x2="1667.4" y2="643.7"/>
				<line class="st4" x1="1769.6" y1="552.7" x2="1740.5" y2="643.7"/>
			</g>
			<line class="st4" x1="1798.4" y1="644.8" x2="1798.4" y2="552.7"/>
			<line class="st4" x1="1488.7" y1="586.7" x2="2110.9" y2="586.7"/>
		</g>
	</g>
	<g>
		<g id="SHIRT">
			<path class="st5" d="M2050.6,527.3h-505.9l9.1-64.5c5.6-39.7,34.1-72.3,72.6-83.3l123.3-25.6h95.9l123.3,25.6
				c38.6,10.9,67.1,43.6,72.6,83.3L2050.6,527.3z"/>
			<g>
				<g>
					<path class="st6" d="M1831.8,427.6l-36.5-36.9c-0.8-0.8-0.8-2.1,0-2.8c0.8-0.8,2.1-0.8,2.8,0l33.5,33.9l52-58.9
						c0.7-0.8,2-0.9,2.8-0.2s0.9,2,0.2,2.8L1831.8,427.6z"/>
				</g>
				<g>
					<path class="st6" d="M1764,427.6l-54.8-62.1c-0.7-0.8-0.7-2.1,0.2-2.8c0.8-0.7,2.1-0.7,2.8,0.2l52,58.9l33.5-33.9
						c0.8-0.8,2-0.8,2.8,0s0.8,2,0,2.8L1764,427.6z"/>
				</g>
				<g>
					<path class="st6" d="M1798.5,451.7c-4.8,0-8.7-3.9-8.7-8.7s3.9-8.7,8.7-8.7s8.7,3.9,8.7,8.7S1803.3,451.7,1798.5,451.7z
						 M1798.5,438.3c-2.6,0-4.7,2.1-4.7,4.7c0,2.6,2.1,4.7,4.7,4.7s4.7-2.1,4.7-4.7C1803.2,440.4,1801.1,438.3,1798.5,438.3z"/>
				</g>
				<g>
					<path class="st6" d="M1798.5,500.7c-4.8,0-8.7-3.9-8.7-8.7s3.9-8.7,8.7-8.7s8.7,3.9,8.7,8.7S1803.3,500.7,1798.5,500.7z
						 M1798.5,487.3c-2.6,0-4.7,2.1-4.7,4.7c0,2.6,2.1,4.7,4.7,4.7s4.7-2.1,4.7-4.7C1803.2,489.4,1801.1,487.3,1798.5,487.3z"/>
				</g>
			</g>
		</g>
		<g id="HAND_1_">
			<polygon class="st7" points="1749.1,525.2 1585.7,525.2 1542.1,395.8 1705.5,349 			"/>
			<g>
				<path class="st6" d="M1594.2,412.6h-3.1c-7.9,0-14.3-6.4-14.3-14.3v-44.9c0-3.2,2.6-5.8,5.8-5.8h13.5c3.2,0,5.8,2.6,5.8,5.8
					v51.4C1602,409.1,1598.5,412.6,1594.2,412.6z"/>
				<path class="st8" d="M1594.2,412.6h-3.1c-7.9,0-14.3-6.4-14.3-14.3v-44.9c0-3.2,2.6-5.8,5.8-5.8h13.5c3.2,0,5.8,2.6,5.8,5.8
					v51.4C1602,409.1,1598.5,412.6,1594.2,412.6z"/>
				<path class="st6" d="M1660,412.6h3.1c7.9,0,14.3-6.4,14.3-14.3v-44.9c0-3.2-2.6-5.8-5.8-5.8H1658c-3.2,0-5.8,2.6-5.8,5.8v51.4
					C1652.2,409.1,1655.7,412.6,1660,412.6z"/>
				<path class="st6" d="M1619.3,417.8h-7.2c-5.6,0-10.1-4.5-10.1-10.1v-54.2c0-3.2,2.6-5.8,5.8-5.8h13.5c3.2,0,5.8,2.6,5.8,5.8V410
					C1627.1,414.3,1623.6,417.8,1619.3,417.8z"/>
				<path class="st6" d="M1644.5,419.8h-6c-6.3,0-11.4-5.1-11.4-11.4v-55c0-3.2,2.6-5.8,5.8-5.8h13.5c3.2,0,5.8,2.6,5.8,5.8V412
					C1652.2,416.3,1648.7,419.8,1644.5,419.8z"/>
				<path class="st8" d="M1660,412.6h3.1c7.9,0,14.3-6.4,14.3-14.3v-44.9c0-3.2-2.6-5.8-5.8-5.8H1658c-3.2,0-5.8,2.6-5.8,5.8v51.4
					C1652.2,409.1,1655.7,412.6,1660,412.6z"/>
				<path class="st8" d="M1619.3,417.8h-7.2c-5.6,0-10.1-4.5-10.1-10.1v-54.2c0-3.2,2.6-5.8,5.8-5.8h13.5c3.2,0,5.8,2.6,5.8,5.8V410
					C1627.1,414.3,1623.6,417.8,1619.3,417.8z"/>
				<path class="st8" d="M1644.5,419.8h-6c-6.3,0-11.4-5.1-11.4-11.4v-55c0-3.2,2.6-5.8,5.8-5.8h13.5c3.2,0,5.8,2.6,5.8,5.8V412
					C1652.2,416.3,1648.7,419.8,1644.5,419.8z"/>
			</g>
		</g>
		<g id="HEAD_5_">
			<g id="NECK_2_">
				<path class="st6" d="M1845.7,295.1v73c0,12.6-21.5,22.9-48,22.9s-48-10.3-48-22.9v-73H1845.7z"/>
				<path class="st2" d="M1845.7,295.1c0,55.1-35.3,71.5-69.2,68.6c-0.1,0-0.2,0-0.3,0c-15-1.4-26.4-14.2-26.4-29.2v-39.3
					L1845.7,295.1L1845.7,295.1z"/>
			</g>
			<path id="HEAD_4_" class="st6" d="M1868,276.3v3.7c0,8.2-6.6,14.8-14.8,14.8h-7.6l0.1,1.7c0,23.6-19.1,42.7-42.7,42.7h-10.5
				c-23.6,0-42.7-19.1-42.7-42.7l0.1-1.7h-7.6c-8.2,0-14.8-6.6-14.8-14.8v-3.7c0-8.2,6.6-14.8,14.8-14.8h9.7l1.1-18.1
				c0-2.8,0.4-5.5,1.2-8c28.6,7.1,62.1-11.3,71.1-16.8c10,3.8,17.1,13.4,17.1,24.7l1.1,18.1h9.7C1861.4,261.5,1868,268.1,1868,276.3
				z"/>
			<path id="HAIR_2_" class="st9" d="M1853.9,261.5h-10.4l-1.1-18.1c0-11.3-7.1-20.9-17.1-24.7c-9,5.4-42.5,23.8-71.1,16.8
				c-0.8,2.5-1.2,5.2-1.2,8l-1.1,18.1h-6.5c0,0-13.3-64.4-0.2-76.2c9.7-8.7,98.5,10.3,108.3,23.8
				C1859,216.9,1853.9,261.5,1853.9,261.5z"/>
			<g id="FACE">
				<g>
					<path class="st2" d="M1828.9,257.6c-0.3,0-0.7-0.1-1-0.4l0,0c-0.1-0.1-6.6-5.4-17-5.4c-0.8,0-1.5-0.7-1.5-1.5s0.7-1.5,1.5-1.5
						c11.5,0,18.6,5.8,18.9,6.1c0.6,0.5,0.7,1.5,0.2,2.1C1829.8,257.4,1829.3,257.6,1828.9,257.6z"/>
				</g>
				<g>
					<path class="st2" d="M1790.9,288.6c-0.2,0-0.4,0-0.5-0.1c-0.8-0.3-1.2-1.2-0.9-1.9c2.8-7.4,2.1-16.7-1.8-24.9
						c-2.3-5-5.6-8.6-8.5-9.6c-6.4-2.2-15.4,0.9-15.5,0.9c-0.8,0.3-1.6-0.1-1.9-0.9c-0.3-0.8,0.1-1.6,0.9-1.9
						c0.4-0.1,10-3.4,17.4-0.9c3.7,1.3,7.5,5.4,10.2,11.2c4.2,8.9,4.9,19.1,1.9,27.3C1792.1,288.2,1791.5,288.6,1790.9,288.6z"/>
				</g>
				<g>
					<path class="st2" d="M1810.6,304.5c0.1,0.8-0.6,1.5-1.4,1.6h-0.1c-0.8,0-1.4-0.6-1.5-1.4c-0.1-1-0.3-2-0.6-2.9
						c-4.3,2.1-8.2,2.8-11.4,2.8c-6.3,0-10.1-2.6-10.3-2.8c-0.7-0.5-0.8-1.4-0.4-2.1c0.5-0.7,1.4-0.8,2.1-0.4
						c0.2,0.1,3.4,2.3,8.6,2.3c2.8,0,6.2-0.6,10.1-2.5c-0.6-1-1.2-1.6-1.2-1.6c-0.6-0.6-0.5-1.6,0.1-2.1s1.6-0.5,2.1,0.1
						C1806.9,295.8,1810.3,299.6,1810.6,304.5z"/>
				</g>
				
					<ellipse transform="matrix(0.9981 -6.221000e-02 6.221000e-02 0.9981 -13.3378 113.4787)" class="st2" cx="1815.7" cy="270.9" rx="2.5" ry="5"/>
				
					<ellipse transform="matrix(0.9981 -6.221000e-02 6.221000e-02 0.9981 -13.4167 110.9405)" class="st2" cx="1774.9" cy="270.9" rx="2.3" ry="4.6"/>
				<path class="st2" d="M1747.2,281.1c-0.8,0-1.5-0.7-1.5-1.5c0-4.4-3.6-7.9-7.9-7.9c-0.8,0-1.5-0.7-1.5-1.5s0.7-1.5,1.5-1.5
					c6,0,10.9,4.9,10.9,10.9C1748.7,280.5,1748,281.1,1747.2,281.1z"/>
				<path class="st2" d="M1847.8,281.1c-0.8,0-1.5-0.7-1.5-1.5c0-6,4.9-10.9,10.9-10.9c0.8,0,1.5,0.7,1.5,1.5s-0.7,1.5-1.5,1.5
					c-4.4,0-7.9,3.6-7.9,7.9C1849.3,280.5,1848.7,281.1,1847.8,281.1z"/>
			</g>
		</g>
	</g>
</g>
<g id="TABLE">
	<path class="st4" d="M3658,2495l-428.3-1416.2c-8.5-28.2-34.6-47.5-64.1-47.5H566.1c-29.8,0-56,19.7-64.3,48.4L93.1,2495"/>
	<line class="st4" x1="1278.2" y1="552.7" x2="2415.2" y2="552.7"/>
</g>
<g id="BOY">
	<path id="PAPER_1_" class="st5" d="M1672.8,767.9h268.6v230.7h-268.6C1672.8,998.6,1672.8,759.2,1672.8,767.9z"/>
	<g id="BOY_1_">
		<g id="LEGS_1_">
			<g>
				<polygon class="st10" points="2677.2,1839.8 2552.3,1528.8 2753.4,1528.8 				"/>
				<path class="st10" d="M2334.5,1113.7L2334.5,1113.7c26.8-50.7,79.5-82.4,136.8-82.4H2626l105.1,82.4H2334.5z"/>
			</g>
			<g>
				<g>
					<path class="st11" d="M2921,1477.8h-389.7l146.7,356.1c-10.2-16.6-71.3,0.7-136,40.4c-63.9,39.2-107.1,86.4-98.3,103.6
						l-316.2-550.2c-82-138.8,18-314,179.2-314H3180l1.9,6C3238.9,1296.7,3106.9,1477.8,2921,1477.8z"/>
					<path class="st12" d="M3195.1,1215.8c-1.4,32.5-8.6,63.9-20.8,93l-458-195h454.6l10.6,31
						C3188.9,1163.4,3193,1189.5,3195.1,1215.8z"/>
					<path class="st2" d="M2678.1,1833.9c10.2,16.6-34.4,61.9-99,101.6c-64.7,39.7-124.8,59.6-135,43s33.3-63.5,98-103.2
						C2606.7,1835.6,2667.8,1817.3,2678.1,1833.9z"/>
					<g>
						<path class="st13" d="M2534.6,1875.5l-284.4-502.8c-22.3-39.8,6.4-89,52.1-89h553.9c74.6,0,130.3-68.7,114.9-141.7"/>
						<path class="st13" d="M2440.8,1979.6c-10.2-16.6,33.9-69.4,101.3-108.7c75.7-44.1,124.7-57.2,139.3-33.8"/>
						<line class="st13" x1="2683.6" y1="1839.3" x2="2497.8" y2="1396.3"/>
						<line class="st14" x1="2295.8" y1="1110.4" x2="2749.1" y2="1110.4"/>
					</g>
				</g>
				<g>
					<path class="st9" d="M2552.2,2001.4l-27-36.8L2488,1914c15.2-12.8,33.5-26.1,54-38.7c40.8-25,80.1-41.6,106.2-46.2l18.1,36.1
						l22.6,45C2672.9,1967.1,2552.2,2001.4,2552.2,2001.4z"/>
					<path class="st10" d="M2666.4,1865.2c-16.8,20.5-48.4,46.4-87.3,70.3c-18.7,11.5-37,21.3-53.8,29.1l-37.2-50.6
						c15.2-12.8,33.5-26.1,54-38.7c40.8-25,80.1-41.6,106.2-46.2L2666.4,1865.2z"/>
				</g>
				<g>
					<path class="st15" d="M2812.5,2108.5l-274.4,197.1c-23.3,16.2-59.5,29.7-54.7-28.9c6.7-80.8,24.6-201,68.8-275.4l0,0
						c1.9-0.5,120.7-34.8,136.7-91.2L2814,1999C2850,2027,2849.2,2081.6,2812.5,2108.5z"/>
					<path class="st16" d="M2539.5,2027.4c21.8,4.1,144.2-39.3,163.2-106.2"/>
					<path class="st5" d="M2510,2285.3c0,0,179.1-248.8,306.5-234.8C2955.2,2065.6,2396.6,2430.4,2510,2285.3z"/>
					<path class="st16" d="M2504.9,2319.2c-13.9,0.9-28.6-15.3-8.3-41.3c0,0,186.4-258,319.1-243.4c20.5,2.2,27.4,18.9,22.6,33.3"/>
				</g>
			</g>
		</g>
		<g id="T-SHIRT">
			<path class="st17" d="M3196.1,1236.1c-63.4-15-221.2-54.5-401.2-96.1c-84.6-19.5-155.4-77.1-191.9-155.9l-163.9-354.6l99.2-157.2
				c30.5-48.4,82.5-79.2,139.6-82.7l97.6-6c98.4-6,177.4,55.4,207.4,149.3l198.5,580.8C3203.2,1168.1,3196.1,1236.1,3196.1,1236.1z"
				/>
			<path class="st18" d="M2525.4,649.4c0,0,52.2,82,171.1,100.1"/>
			<g>
				<path class="st19" d="M2595.8,500.2L2595.8,500.2c-5.4-5.8-14.9-4.2-18.2,2.9l0,0c-3.7,8,3,16.9,11.7,15.6l0,0
					C2598.2,517.4,2601.9,506.7,2595.8,500.2z"/>
				<path class="st19" d="M2844.9,671.1L2844.9,671.1c-5.4-5.8-14.9-4.2-18.2,2.9l0,0c-3.7,8,3,16.9,11.7,15.6l0,0
					C2847.3,688.3,2851,677.6,2844.9,671.1z"/>
				<path class="st19" d="M2923.8,741.1L2923.8,741.1c-5.4-5.8-14.9-4.2-18.2,2.9l0,0c-3.7,8,3,16.9,11.7,15.6l0,0
					C2926.1,758.4,2929.8,747.7,2923.8,741.1z"/>
				<path class="st19" d="M3075.1,1137.2L3075.1,1137.2c-5.4-5.8-14.9-4.2-18.2,2.9l0,0c-3.7,8,3,16.9,11.7,15.6l0,0
					C3077.4,1154.4,3081.1,1143.8,3075.1,1137.2z"/>
				<path class="st19" d="M2990.4,947.9L2990.4,947.9c-5.4-5.8-14.9-4.2-18.2,2.9l0,0c-3.7,8,3,16.9,11.7,15.6l0,0
					C2992.8,965.1,2996.5,954.4,2990.4,947.9z"/>
				<path class="st19" d="M3025.5,811.7L3025.5,811.7c-7.8,1-12.1,9.7-8.2,16.5l0,0c4.4,7.7,15.5,7.4,19.5-0.5l0,0
					C3040.9,819.7,3034.3,810.5,3025.5,811.7z"/>
				<path class="st19" d="M3089.4,1013.7L3089.4,1013.7c-7.8,1-12.1,9.7-8.2,16.5l0,0c4.4,7.7,15.5,7.4,19.5-0.5l0,0
					C3104.8,1021.7,3098.3,1012.5,3089.4,1013.7z"/>
				<path class="st19" d="M2824.4,795.8L2824.4,795.8c-5.4-5.8-14.9-4.2-18.2,2.9l0,0c-3.7,8,3,16.9,11.7,15.6l0,0
					C2826.7,813,2830.4,802.4,2824.4,795.8z"/>
				<path class="st19" d="M2769.3,909.1L2769.3,909.1c-5.4-5.8-14.9-4.2-18.2,2.9l0,0c-3.7,8,3,16.9,11.7,15.6l0,0
					C2771.7,926.3,2775.4,915.6,2769.3,909.1z"/>
				<path class="st19" d="M2670.7,869.5L2670.7,869.5c5.8-5.4,4.2-14.9-2.9-18.2l0,0c-8-3.7-16.9,3-15.6,11.7l0,0
					C2653.5,871.8,2664.1,875.5,2670.7,869.5z"/>
				<path class="st19" d="M2758.2,1064.5L2758.2,1064.5c5.8-5.4,4.2-14.9-2.9-18.2l0,0c-8-3.7-16.9,3-15.6,11.7l0,0
					C2741,1066.9,2751.7,1070.6,2758.2,1064.5z"/>
				<path class="st19" d="M2905.5,897.2L2905.5,897.2c5.8-5.4,4.2-14.9-2.9-18.2l0,0c-8-3.7-16.9,3-15.6,11.7l0,0
					C2888.3,899.5,2899,903.3,2905.5,897.2z"/>
				<path class="st19" d="M2955.8,1106.6L2955.8,1106.6c5.8-5.4,4.2-14.9-2.9-18.2l0,0c-8-3.7-16.9,3-15.6,11.7l0,0
					C2938.5,1109,2949.2,1112.7,2955.8,1106.6z"/>
				<path class="st19" d="M2654.2,682.5L2654.2,682.5c-5.4-5.8-14.9-4.2-18.2,2.9l0,0c-3.7,8,3,16.9,11.7,15.6l0,0
					C2656.6,699.7,2660.3,689,2654.2,682.5z"/>
				<path class="st19" d="M2672.1,423.1L2672.1,423.1c-5.4-5.8-14.9-4.2-18.2,2.9l0,0c-3.7,8,3,16.9,11.7,15.6l0,0
					C2674.5,440.3,2678.2,429.6,2672.1,423.1z"/>
				<path class="st19" d="M2844.9,423.1L2844.9,423.1c-5.4-5.8-14.9-4.2-18.2,2.9l0,0c-3.7,8,3,16.9,11.7,15.6l0,0
					C2847.3,440.3,2851,429.6,2844.9,423.1z"/>
				<path class="st19" d="M2845.2,535.1L2845.2,535.1c-7.3,2.9-9.4,12.3-3.9,18l0,0c6.1,6.3,16.8,3.4,18.8-5.2l0,0
					C2862.1,539.2,2853.5,531.8,2845.2,535.1z"/>
				<path class="st19" d="M2747,471.3L2747,471.3c-7.6,2.2-10.5,11.3-5.7,17.5l0,0c5.5,6.9,16.4,5,19.2-3.3l0,0
					C2763.4,477,2755.5,468.8,2747,471.3z"/>
				<path class="st19" d="M2732.5,748.3L2732.5,748.3c-7.8,0.9-12.2,9.5-8.4,16.4l0,0c4.3,7.7,15.4,7.6,19.5-0.2l0,0
					C2747.8,756.6,2741.4,747.3,2732.5,748.3z"/>
				<path class="st19" d="M2646.8,956.6L2646.8,956.6c-7.8,0.9-12.2,9.5-8.4,16.4l0,0c4.3,7.7,15.4,7.6,19.5-0.2l0,0
					C2662.1,964.9,2655.7,955.6,2646.8,956.6z"/>
				<path class="st19" d="M2675.6,553.9L2675.6,553.9c-7.6,2.2-10.5,11.3-5.7,17.5l0,0c5.5,6.9,16.4,5,19.2-3.3l0,0
					C2692,559.7,2684.2,551.5,2675.6,553.9z"/>
				<path class="st19" d="M2758.4,609.9L2758.4,609.9c-7.6,2.2-10.5,11.3-5.7,17.5l0,0c5.5,6.9,16.4,5,19.2-3.3l0,0
					C2774.8,615.6,2767,607.4,2758.4,609.9z"/>
				<path class="st19" d="M2579.1,607.5L2579.1,607.5c5-6.1,2.3-15.3-5.3-17.6l0,0c-8.4-2.6-16.4,5.2-13.9,13.6l0,0
					C2562.4,612.1,2573.4,614.4,2579.1,607.5z"/>
				<path class="st19" d="M2958.2,607.8L2958.2,607.8c5-6.1,2.3-15.3-5.3-17.6l0,0c-8.4-2.6-16.4,5.2-13.9,13.6l0,0
					C2941.4,612.4,2952.5,614.7,2958.2,607.8z"/>
				<path class="st19" d="M2862,1013.2L2862,1013.2c5-6.1,2.3-15.3-5.3-17.6l0,0c-8.4-2.6-16.4,5.2-13.9,13.6l0,0
					C2845.2,1017.7,2856.3,1020,2862,1013.2z"/>
			</g>
		</g>
		<g id="HEAD_2_">
			<g id="NECK_1_">
				<path class="st9" d="M2782.2,380.3c-2.2,0.1-4.4,0.2-6.7,0.3l-97.6,6c-24.9,1.5-48.7,8.2-70.3,19.3l-30-89.8l133.7-98
					L2782.2,380.3z"/>
				<path class="st10" d="M2607.2,404.5L2607.2,404.5c27.8-12.6,50-35,62.6-62.8l48.6-107.5l-7.1-16.2l-133.7,98L2607.2,404.5z"/>
			</g>
			<g id="HEAD_3_">
				<path class="st9" d="M2719.9,227.1c0,9.3-3.8,17.7-9.9,23.8c-6.1,6.1-14.5,9.9-23.8,9.9h-29.4c-11.6,45.1-56.5,76-104.8,67.5
					l-22.1-3.9c-24.2-4.3-40.7-26.9-37.3-51.2l25.9-129.7c4.5-27.7,33-44.6,59.5-35.1l42.9,17.2c23.2,8,38.8,29.8,38.8,54.3v12.5
					l26.5,1C2704.8,193.4,2719.9,208.5,2719.9,227.1z"/>
				<g>
					<path class="st20" d="M2670.1,233.6c0-12.9,10.4-23.3,23.3-23.3"/>
					<path class="st20" d="M2532.9,170.8c0,0,21,0,36,20.1"/>
					
						<ellipse transform="matrix(0.1788 -0.9839 0.9839 0.1788 1883.4531 2671.2388)" class="st10" cx="2541.9" cy="207.3" rx="10.7" ry="5"/>
				</g>
			</g>
			<g id="HAIR_1_">
				<path class="st5" d="M2686.2,193.4c18.6,0,33.7,15.1,33.7,33.7c0,0.1,0,0.3,0,0.5c15-23.1,51.8-81.9,51.8-101.8
					c0-26.7-33.3-53.4-67.8-41.2c2.3-1.7,4.7-3.5,7.2-5.4c13.3-10.4,20.3-18.2,21.4-23.8c0.4-2,0.1-3.8-0.9-5.2
					c-4-5.7-8.4-8.2-13.1-7.4c-6.9,1.1-14,9.6-21.1,25.2c-3.2,7.1-5.7,14.1-7.1,18.4c-2.8-16.7-16.3-72-74.3-63.5
					c-20,2.9-29.4,11.2-32,20.3c-16.6-13-38.8-23.2-57.2-13.5c-31.8,16.7-27.9,44.1-9.5,63.5c-17.4-0.3-29.6,4.8-29.6,19.5
					c0,13.5,13.9,20,33,22.6s43.6,1.2,64.8-1.2c15.1-1.7,28.7-3.8,37.4-5.3c-5.8,11.9-8.1,22.1-7.6,30.7c0.9,17.8,13.8,28.3,32,32
					c3.9,0.8,8.1,1.3,12.4,1.5L2686.2,193.4z M2719.1,46.8c0.3-0.1,0.6-0.1,1-0.1c2.8,0,5.5,2,8.2,5.8c0.2,0.4,0.5,1,0.3,2.1
					c-1.6,8.1-22.1,23.5-34,31.6C2699.3,72.4,2709.2,48.5,2719.1,46.8z"/>
				<g>
					<path class="st6" d="M2606.4,76.4c-6.9,0-13.9-3.7-19-10.2c-5.7-7.2-7.6-16.1-5.2-23.8c0.3-1,1.3-1.6,2.3-1.4
						c0.4,0,0.8,0.1,1.1,0.4c15.1,10.8,27.2,26.2,25.4,32.3c-0.4,1.6-1.7,2.6-3.4,2.7C2607.2,76.4,2606.8,76.4,2606.4,76.4z
						 M2585.4,46.2c-0.9,5.8,0.9,12.2,5.1,17.5c4.5,5.7,10.7,9,16.7,8.6C2607.4,69.7,2600.7,57.8,2585.4,46.2z"/>
				</g>
			</g>
		</g>
		<g id="HANDS">
			<g id="LEFT_1_">
				<path class="st9" d="M2409,959.4h-640c-15.8,0-25.3-17.4-16.9-30.7l85.2-133.8c11.1-17.4,30.2-27.9,50.8-27.9h433.2L2409,959.4z
					"/>
				<path class="st21" d="M1902.2,767.1l51-84c3-5,8.5-8.1,14.3-8.1l0,0c13.1,0,21.1,14.3,14.3,25.5l-40.5,66.6H1902.2z"/>
				<path class="st10" d="M2409,959.4h-143.9c-0.3-0.3-0.7-0.7-1-1c-35-36-49.9-90.6-30.2-143.2l20.5-48.2h66.9L2409,959.4z"/>
				<path class="st9" d="M1859.4,869.6h-80.2c-5.4,0-10.4,2.9-13.1,7.6l-8.5,14.8c-5.7,10,1.5,22.5,13.1,22.5h64.5
					c11.2,0,21.6-5.8,27.5-15.4l6.9-11.3C1874.4,879.8,1868.7,869.6,1859.4,869.6z"/>
				<path class="st9" d="M1838.7,914.5h-80.2c-5.4,0-10.4,2.9-13.1,7.6l-8.5,14.8c-5.7,10,1.5,22.5,13.1,22.5h64.5
					c11.2,0,21.6-5.8,27.5-15.4l6.9-11.3C1853.8,924.7,1848,914.5,1838.7,914.5z"/>
				<path class="st9" d="M1882.3,824.1h-80.2c-5.4,0-10.4,2.9-13.1,7.6l-8.5,14.8c-5.7,10,1.5,22.5,13.1,22.5h64.5
					c11.2,0,21.6-5.8,27.5-15.4l6.9-11.3C1897.4,834.3,1891.6,824.1,1882.3,824.1z"/>
				<path class="st20" d="M1859.4,869.6h-80.2c-5.4,0-10.4,2.9-13.1,7.6l-8.5,14.8c-5.7,10,1.5,22.5,13.1,22.5h64.5
					c11.2,0,21.6-5.8,27.5-15.4l6.9-11.3C1874.4,879.8,1868.7,869.6,1859.4,869.6z"/>
				<path class="st20" d="M1838.7,914.5h-80.2c-5.4,0-10.4,2.9-13.1,7.6l-8.5,14.8c-5.7,10,1.5,22.5,13.1,22.5h64.5
					c11.2,0,21.6-5.8,27.5-15.4l6.9-11.3C1853.8,924.7,1848,914.5,1838.7,914.5z"/>
				<path class="st20" d="M1882.3,824.1h-80.2c-5.4,0-10.4,2.9-13.1,7.6l-8.5,14.8c-5.7,10,1.5,22.5,13.1,22.5h64.5
					c11.2,0,21.6-5.8,27.5-15.4l6.9-11.3C1897.4,834.3,1891.6,824.1,1882.3,824.1z"/>
				<path class="st9" d="M1998.4,891c-24.1,0-47.3-8.7-65.5-24.6l-30.4-26.6h-28l-7.2,7.7c-12.9,13.8-28.8,21.7-47.7,21.7h-13.4
					c-7,0-11.3-7.8-7.5-13.7l33.7-52.8h166.1V891H1998.4z"/>
				<path class="st20" d="M1832.4,802.7l-33.7,52.8c-3.8,5.9,0.5,13.7,7.5,13.7h13.4c18.9,0,34.8-7.8,47.7-21.7l7.2-7.7h28
					l30.4,26.6c18.1,15.8,41.4,24.6,65.5,24.6"/>
			</g>
			<g id="RIGHT_1_">
				<path class="st9" d="M2673.6,772.4L2520.9,943c-32.1,35.9-78,56.4-126.2,56.4l0,0c-95.2,0-161.1-95-127.7-184.2L2448.4,389
					l-61.3-34.3c-8.7-6.8-12.9-17.9-11-28.7l10.4-70.1c3.2-15.6,19.1-27.8,34.6-31.4l71.8-16.2c6.1-1.4,11.7,3.8,10.7,9.9
					l-10.4,54.1c-4.1,26.4,13.7,49.2,40.1,53.7l0,0c21.6,3.7,36.8,25.4,34.8,47.2l-48.9,305C2519.1,678.4,2569.2,756.5,2673.6,772.4
					z"/>
				<line class="st20" x1="2556.5" y1="445.7" x2="2497.5" y2="828.8"/>
				<path class="st20" d="M2434.2,261l-0.8,24.8c-0.3,10.2,5.8,19.2,14.6,21.7l91.9,18.6"/>
				<path class="st20" d="M2602.4,334.1l-73.5-9.8c-24.2-4.3-40.7-26.9-37.3-51.2l9.5-54.3c0.9-5.1-3.7-9.4-8.7-8.2l-75,17.5"/>
				<line class="st18" x1="2561.8" y1="897" x2="2760.6" y2="675.8"/>
				<line class="st20" x1="2450.5" y1="389.1" x2="2485.6" y2="389.1"/>
				<path class="st20" d="M2434.3,267.6v8c0,9.5,6.9,17.3,15.4,17.3h11c4.8,0,8.6-4.3,8.6-9.7l0.7-52.2c0.1-8.1-8.5-13.1-15.5-11.4"
					/>
				<path class="st20" d="M2470,267.6v8c0,9.5,6.9,17.3,15.4,17.3h7"/>
			</g>
		</g>
	</g>
	<g id="CHAIR_1_">
		<line class="st4" x1="3134.1" y1="1528.8" x2="3250.2" y2="2495"/>
		<line class="st4" x1="2630.9" y1="1528.8" x2="2514.8" y2="2495"/>
		<line class="st4" x1="2554.6" y1="2163.2" x2="3210.3" y2="2163.2"/>
		<path class="st15" d="M2564,1531.8h631c8.4,0,15.2-6.8,15.2-15.2V1496c0-8.4-6.8-15.2-15.2-15.2h-631c-8.4,0-15.2,6.8-15.2,15.2
			v20.6C2548.8,1525,2555.6,1531.8,2564,1531.8z"/>
	</g>
</g>
<g id="GIRL">
	<g id="PAPER">
		<polygon class="st22" points="1514,800.6 1417.4,999.4 1125.5,999.4 1242.8,800.6 		"/>
		<path class="st23" d="M1450,849.1c0,0-12.7-21.7-43.2-16.1c-22.8,4.1-49.8,22.9-66.4,12.8s-31.3-22.7-52.8-16.7
			s-37.4,17.5-37.4,17.5"/>
		<path class="st23" d="M1440,880.1c0,0-12.7-21.7-43.2-16.1c-22.8,4.1-49.8,22.9-66.4,12.8s-31.3-22.7-52.8-16.7
			s-37.4,17.5-37.4,17.5"/>
	</g>
	<g id="GIRL_1_">
		<g id="LEGS">
			<g id="LEFT">
				<path class="st21" d="M1623.8,1692.8c0,26.7-74.1,48.3-166.9,48.3c-92.8,0-164.7-21.6-164.7-48.3s71.9-48.3,164.7-48.3
					C1549.7,1644.5,1623.8,1666.2,1623.8,1692.8z"/>
				<g>
					<path class="st24" d="M1581.1,1660.3v345l-10.5-49.8c-11.3-53.6-58.6-91.9-113.4-91.9c-16.5,0-32.7,3.5-47.4,10.1
						c-0.5,0.2-1,0.5-1.6,0.7l-38.5-140.4l-21.4-78.1c29.3-7.1,67.2-11.4,108.6-11.4C1506.1,1644.5,1550.4,1650.6,1581.1,1660.3z"/>
					<path class="st25" d="M1581.1,1660.3v65c-30.7,9.7-75,15.8-124.2,15.8c-31.9,0-61.7-2.6-87.2-7l-21.4-78.1
						c29.3-7.1,67.2-11.4,108.6-11.4C1506.1,1644.5,1550.4,1650.6,1581.1,1660.3z"/>
				</g>
				<g>
					<g>
						<g>
							<path class="st5" d="M1573.7,1995.2c2.7,0.8,28.1,7.9,50.6,7.9c12.2,0,23.5-2.1,29.9-8.5c5.5-5.5,6.8-13.5,3.9-23.6
								c-2.6-9-7.6-14.6-14.9-16.6c-13.4-3.6-32,6.4-46.7,16.9c22.9-27.8,45.5-63.1,37.1-86.2c-3-8.2-9.8-13.7-18.3-14.7
								c-7.1-0.8-13.7,1.7-16.8,6.4c-14.4,21.9-26.2,111.8-26.7,115.6L1573.7,1995.2z M1602.7,1879.6c1.8-2.7,5.6-4.3,10-4.3
								c0.7,0,1.4,0,2.1,0.1c3.2,0.4,10.9,2.2,14.2,11.4c2.2,6.1,3,17.3-5.9,36.1c-8.4,17.8-23.6,38.7-45.2,62.4
								C1581.1,1962.5,1591.3,1896.9,1602.7,1879.6z M1650.7,1991.1c-6.6,6.6-21.6,8.6-43.5,5.8c-11.5-1.5-22.2-3.9-27.9-5.4
								c4.3-3.8,12.3-10.7,21.6-17.1c17.8-12.3,32-17.6,41.1-15.1c5.5,1.5,9.2,5.8,11.4,13.1
								C1655.8,1980.8,1654.9,1986.9,1650.7,1991.1z"/>
						</g>
					</g>
					<path class="st22" d="M1370.7,1902.4l-23.1,25.9c-26.2,29.4-30.5,72.2-10.6,106.2l101.7,174.4c19.9,34.1,56.4,55,95.8,55h42.1
						c30.5,0,53.2-28,46.9-57.8l-53-250.5c-11.3-53.6-58.6-91.9-113.4-91.9l0,0C1424.2,1863.6,1392.7,1877.7,1370.7,1902.4z"/>
					<path class="st11" d="M1449.4,1977.8l131.3,254.4c6.2,11.5,13.9,18.9,22.7,23.6c-7.6,5.1-16.8,8.2-26.8,8.2h-42.1
						c-39.5,0-76-21-95.8-55L1337,2034.5c-4.1-7.1-7.2-14.5-9.3-22.2c-14.4-53.5,46.5-95.5,92.2-64.1
						C1430.3,1955.3,1440.5,1964.9,1449.4,1977.8z"/>
					<g>
						<g>
							<path class="st6" d="M1449.7,1978.4h-121.2c0.6-1.9,1.3-3.7,2.1-5.4h115.2c1.2,1.6,2.4,3.2,3.6,4.9L1449.7,1978.4z"/>
						</g>
						<g>
							<path class="st6" d="M1467.5,2012.8h-139.6c0-0.2-0.1-0.4-0.1-0.5c-0.4-1.6-0.8-3.3-1.1-4.9h138.1L1467.5,2012.8z"/>
						</g>
						<g>
							<polygon class="st6" points="1485.3,2047.3 1344.5,2047.3 1341.3,2041.8 1482.5,2041.8 							"/>
						</g>
						<g>
							<polygon class="st6" points="1503.1,2081.8 1364.6,2081.8 1361.4,2076.3 1500.3,2076.3 							"/>
						</g>
						<g>
							<polygon class="st6" points="1520.9,2116.2 1384.7,2116.2 1381.5,2110.8 1518.1,2110.8 							"/>
						</g>
						<g>
							<polygon class="st6" points="1538.7,2150.7 1404.8,2150.7 1401.6,2145.2 1535.8,2145.2 							"/>
						</g>
						<g>
							<polygon class="st6" points="1556.5,2185.2 1424.9,2185.2 1421.7,2179.7 1553.6,2179.7 							"/>
						</g>
						<g>
							<path class="st6" d="M1574.2,2219.6h-128.4c-1.3-1.8-2.6-3.6-3.8-5.4h129.4L1574.2,2219.6z"/>
						</g>
						<g>
							<path class="st6" d="M1600.5,2254.1h-111.6c-3.6-1.6-7.1-3.4-10.5-5.4h114.9C1595.6,2250.7,1598,2252.5,1600.5,2254.1z"/>
						</g>
					</g>
				</g>
			</g>
			<g id="RIGHT">
				<path class="st25" d="M1214.2,1685.7c-0.9,26.4-75.8,47.8-168,47.8s-167.1-21.3-168-47.8v-207.9h336V1685.7z"/>
				<g>
					<path class="st24" d="M1191.9,1720.2l-0.5,24.7l-4.8,241.1v-7c0-61.9-50.2-112.1-112.1-112.1h-6.8c-31.6,0-60.1,12.3-81.2,32.1
						l-14.7-99.4l-9.1-61.5c24.6,4.1,53.1,6.4,83.4,6.4C1108.5,1744.4,1162.8,1734.6,1191.9,1720.2z"/>
					<path class="st25" d="M1191.9,1720.2l-0.5,24.7c-37.2,26.4-152.1,58.9-219.5,54.6l-9.1-61.5c24.6,4,53.1,6.4,83.4,6.4
						C1108.5,1744.4,1162.8,1734.6,1191.9,1720.2z"/>
				</g>
				<g>
					<path class="st22" d="M1079.6,2267.2h18.6c48.8,0,88.4-39.6,88.4-88.4V1979c0-61.9-50.2-112.1-112.1-112.1h-6.8
						c-72,0-127.5,63.5-117.8,134.9l23.5,172.8C980.7,2227.6,1026,2267.2,1079.6,2267.2z"/>
					<path class="st11" d="M1158.8,2243.1c-15.8,14.9-37.2,24.1-60.6,24.1h-18.6c-53.6,0-98.9-39.6-106.1-92.6L950,2001.8
						c-0.4-3.3-0.8-6.6-0.9-9.8c6-38.3,39.1-67.6,79.1-67.6c19.7,0,37.9,7.2,52,19.2s24,28.9,27.1,48.4l30.9,210.9
						C1140.5,2218.6,1147.9,2232.6,1158.8,2243.1z"/>
					<g>
						<g>
							<path class="st6" d="M1098,1965.3H958.3c1-1.9,2.2-3.7,3.4-5.4h133C1095.9,1961.6,1097,1963.4,1098,1965.3z"/>
						</g>
						<g>
							<path class="st6" d="M1108.4,1999.7H949.7c-0.2-1.8-0.4-3.6-0.5-5.4h158.4L1108.4,1999.7z"/>
						</g>
						<g>
							<polygon class="st6" points="1113.5,2034.2 954.4,2034.2 953.6,2028.8 1112.7,2028.8 							"/>
						</g>
						<g>
							<polygon class="st6" points="1118.5,2068.7 959.1,2068.7 958.3,2063.2 1117.7,2063.2 							"/>
						</g>
						<g>
							<polygon class="st6" points="1123.6,2103.1 963.8,2103.1 963,2097.7 1122.8,2097.7 							"/>
						</g>
						<g>
							<polygon class="st6" points="1128.6,2137.6 968.4,2137.6 967.7,2132.2 1127.8,2132.2 							"/>
						</g>
						<g>
							<polygon class="st6" points="1133.7,2172.1 973.1,2172.1 972.4,2166.6 1132.9,2166.6 							"/>
						</g>
						<g>
							<path class="st6" d="M1138.8,2206.5H983c-0.9-1.8-1.7-3.6-2.4-5.4h157.3l0.3,1.8C1138.4,2204.1,1138.6,2205.3,1138.8,2206.5z
								"/>
						</g>
						<g>
							<path class="st6" d="M1156.7,2241h-147.3c-2-1.7-4-3.6-5.8-5.4h148.5C1153.5,2237.5,1155.1,2239.3,1156.7,2241z"/>
						</g>
					</g>
				</g>
			</g>
		</g>
		<g id="CLOTHES">
			<g>
				<path class="st5" d="M1286.9,605.1v168.4c-7.3-19.1-65.1-16.4-128.7,7.7c-54.5,20.7-95.4,49.1-101.4,68.8V613
					c0-70.5,37.7-133.5,95.6-167.9C1227.6,458.2,1286.9,523.7,1286.9,605.1z"/>
				<path class="st5" d="M1052.4,452.7c-51.2,35.6-83.8,94.7-83.8,160.3v195.5H683.9l39.3-169.2c16.7-72.1,68.9-129.6,136.9-154.1
					L1052.4,452.7z"/>
			</g>
			<g>
				<path class="st21" d="M1628.2,1289.5V1682c0-26.7-78.5-48.3-171.3-48.3s-168,21.6-168,48.3v-188.1c0-8.8-7.2-16-16-16H762.5
					c-153.5,0-267-142.9-232.3-292.4l123.2-530.8C673,570,741.6,505.5,827.3,490.9l32.8-5.6c-68,24.5-120.2,82-136.9,154.1
					l-39.3,169.2h284.7V613c0-65.6,32.7-124.8,83.8-160.3l0,0l45-7.6c9.3-1.6,18.4-2.3,27.5-2.3c1.2,0,2.3,0,3.5,0
					c1.1,0,2.2,0.1,3.2,0.1c0.2,0,0.4,0,0.6,0c0.8,0,1.7,0.1,2.5,0.1c0.1,0,0.3,0,0.4,0c0.5,0,1,0.1,1.4,0.1
					c0.9,0.1,1.7,0.1,2.6,0.2c1,0.1,2.1,0.2,3.1,0.3s1.9,0.2,2.9,0.3c0.2,0,0.4,0.1,0.7,0.1c1,0.1,2.1,0.3,3.1,0.4
					c0.1,0,0.2,0,0.2,0c1.1,0.2,2.2,0.3,3.3,0.5c-57.9,34.4-95.6,97.4-95.6,167.9v480.5h375.4
					C1540.4,1093.5,1628.2,1181.2,1628.2,1289.5z"/>
				<path class="st13" d="M1058.9,448.3c-51.2,35.6-90.4,99.1-90.4,164.7v195.5H683.8l39.3-169.2c16.7-72.1,64.5-130.7,132.6-155.2"
					/>
				<path class="st13" d="M1288.9,1433.6c0-55.7,19.7-109.6,55.6-152.1"/>
				<g>
					<path class="st6" d="M873,1413.7c-0.5,0-1-0.1-1.4-0.4l-13.2-7.2c-1.5-0.8-2-2.6-1.2-4.1s2.6-2,4.1-1.2l13.2,7.2
						c1.5,0.8,2,2.6,1.2,4.1C875.1,1413.1,874.1,1413.7,873,1413.7z M886.2,1410.3c-1.1,0-2.1-0.6-2.6-1.6c-0.8-1.5-0.3-3.3,1.2-4.1
						l13.2-7.2c1.5-0.8,3.3-0.2,4.1,1.2c0.8,1.5,0.3,3.3-1.2,4.1l-13.2,7.2C887.2,1410.1,886.7,1410.3,886.2,1410.3z M846.6,1399.4
						c-0.5,0-1-0.1-1.4-0.4l-13.2-7.2c-1.5-0.8-2-2.6-1.2-4.1s2.6-2,4.1-1.2l13.2,7.2c1.5,0.8,2,2.6,1.2,4.1
						C848.7,1398.8,847.7,1399.4,846.6,1399.4z M912.5,1395.9c-1.1,0-2.1-0.6-2.6-1.6c-0.8-1.5-0.3-3.3,1.2-4.1l13.2-7.2
						c2.3-1.2,4.4-2.6,6.5-4.1c1.3-1,3.2-0.7,4.2,0.6c1,1.3,0.7,3.2-0.6,4.2c-2.3,1.7-4.7,3.2-7.2,4.6l-13.2,7.2
						C913.5,1395.8,913,1395.9,912.5,1395.9z M820.5,1384.6c-0.6,0-1.2-0.2-1.8-0.6c-4.2-3.1-8.1-6.7-11.4-10.8
						c-1.1-1.3-0.9-3.2,0.4-4.2c1.3-1.1,3.2-0.9,4.2,0.4c3,3.7,6.5,6.9,10.3,9.7c1.3,1,1.6,2.9,0.7,4.2
						C822.4,1384.2,821.5,1384.6,820.5,1384.6z M943.4,1374.1c-0.7,0-1.3-0.2-1.9-0.7c-1.3-1-1.5-2.9-0.4-4.2
						c3-3.7,5.5-7.7,7.5-12.1c0.7-1.5,2.5-2.2,4-1.5s2.2,2.5,1.5,4c-2.2,4.8-5,9.3-8.3,13.3C945.1,1373.7,944.3,1374.1,943.4,1374.1
						z M801.7,1361.7c-1.1,0-2.2-0.6-2.7-1.7c-2.2-4.8-3.8-9.8-4.8-15c-0.3-1.6,0.8-3.2,2.4-3.5s3.2,0.8,3.5,2.4
						c0.9,4.7,2.3,9.2,4.3,13.5c0.7,1.5,0,3.3-1.5,4C802.5,1361.6,802.1,1361.7,801.7,1361.7z M955.8,1347.1c-0.2,0-0.4,0-0.5,0
						c-1.6-0.3-2.7-1.9-2.4-3.5c0.6-3.3,0.9-6.6,0.9-9.9v-4.5c0-1.7,1.3-3,3-3s3,1.3,3,3v4.5c0,3.7-0.3,7.4-1,11
						C958.5,1346.1,957.2,1347.1,955.8,1347.1z M796.2,1332.5c-1.7,0-3-1.3-3-3v-15c0-1.7,1.3-3,3-3s3,1.3,3,3v15
						C799.2,1331.1,797.8,1332.5,796.2,1332.5z M956.7,1317.2c-1.7,0-3-1.3-3-3v-15c0-1.7,1.3-3,3-3s3,1.3,3,3v15
						C959.7,1315.9,958.4,1317.2,956.7,1317.2z M796.2,1302.5c-1.7,0-3-1.3-3-3v-15c0-1.7,1.3-3,3-3s3,1.3,3,3v15
						C799.2,1301.1,797.8,1302.5,796.2,1302.5z M956.7,1287.2c-1.7,0-3-1.3-3-3v-15c0-1.7,1.3-3,3-3s3,1.3,3,3v15
						C959.7,1285.9,958.4,1287.2,956.7,1287.2z M796.2,1272.5c-1.7,0-3-1.3-3-3v-15c0-1.7,1.3-3,3-3s3,1.3,3,3v15
						C799.2,1271.1,797.8,1272.5,796.2,1272.5z M956.7,1257.2c-1.7,0-3-1.3-3-3v-15c0-1.7,1.3-3,3-3s3,1.3,3,3v15
						C959.7,1255.9,958.4,1257.2,956.7,1257.2z M796.2,1242.5c-1.7,0-3-1.3-3-3v-12.9h8.1c1.7,0,3,1.3,3,3s-1.3,3-3,3h-2.1v6.9
						C799.2,1241.1,797.8,1242.5,796.2,1242.5z M951.3,1232.6h-15c-1.7,0-3-1.3-3-3s1.3-3,3-3h15c1.7,0,3,1.3,3,3
						S953,1232.6,951.3,1232.6z M921.3,1232.6h-15c-1.7,0-3-1.3-3-3s1.3-3,3-3h15c1.7,0,3,1.3,3,3S923,1232.6,921.3,1232.6z
						 M891.3,1232.6h-15c-1.7,0-3-1.3-3-3s1.3-3,3-3h15c1.7,0,3,1.3,3,3S893,1232.6,891.3,1232.6z M861.3,1232.6h-15
						c-1.7,0-3-1.3-3-3s1.3-3,3-3h15c1.7,0,3,1.3,3,3S863,1232.6,861.3,1232.6z M831.3,1232.6h-15c-1.7,0-3-1.3-3-3s1.3-3,3-3h15
						c1.7,0,3,1.3,3,3S833,1232.6,831.3,1232.6z"/>
				</g>
				<g>
					<path class="st6" d="M590,1397.1c-1.1,0-2.1-0.6-2.6-1.6c-0.8-1.5-0.3-3.3,1.2-4.1l12.2-6.7c0.3-0.2,0.6-0.3,0.9-0.5
						c1.4-0.8,3.3-0.3,4.1,1.1c0.8,1.4,0.3,3.3-1.1,4.1c-0.3,0.2-0.6,0.4-1,0.5l-12.2,6.7C591,1397,590.5,1397.1,590,1397.1z
						 M615.3,1381.1c-0.8,0-1.6-0.3-2.2-1c-1.1-1.2-1-3.1,0.2-4.2c3.5-3.2,6.6-6.9,9.3-10.8c0.9-1.4,2.8-1.7,4.2-0.8
						c1.4,0.9,1.7,2.8,0.8,4.2c-2.9,4.3-6.4,8.3-10.2,11.9C616.7,1380.9,616,1381.1,615.3,1381.1z M632,1356.5
						c-0.4,0-0.7-0.1-1.1-0.2c-1.5-0.6-2.3-2.3-1.7-3.9c1.7-4.5,2.9-9.1,3.6-13.8c0.2-1.6,1.7-2.8,3.4-2.6c1.6,0.2,2.8,1.7,2.6,3.4
						c-0.7,5.2-2,10.3-3.9,15.2C634.3,1355.8,633.2,1356.5,632,1356.5z M636.3,1327.1c-1.7,0-3-1.3-3-3v-15c0-1.7,1.3-3,3-3
						s3,1.3,3,3v15C639.3,1325.7,638,1327.1,636.3,1327.1z M636.3,1297.1c-1.7,0-3-1.3-3-3v-15c0-1.7,1.3-3,3-3s3,1.3,3,3v15
						C639.3,1295.7,638,1297.1,636.3,1297.1z M636.3,1267.1c-1.7,0-3-1.3-3-3v-15c0-1.7,1.3-3,3-3s3,1.3,3,3v15
						C639.3,1265.7,638,1267.1,636.3,1267.1z M636.3,1237.1c-1.7,0-3-1.3-3-3v-1.5h-7.5c-1.7,0-3-1.3-3-3s1.3-3,3-3h13.5v7.5
						C639.3,1235.7,638,1237.1,636.3,1237.1z M610.8,1232.6h-15c-1.7,0-3-1.3-3-3s1.3-3,3-3h15c1.7,0,3,1.3,3,3
						S612.4,1232.6,610.8,1232.6z M580.8,1232.6h-15c-1.7,0-3-1.3-3-3s1.3-3,3-3h15c1.7,0,3,1.3,3,3S582.4,1232.6,580.8,1232.6z
						 M550.8,1232.6h-15c-1.7,0-3-1.3-3-3s1.3-3,3-3h15c1.7,0,3,1.3,3,3S552.4,1232.6,550.8,1232.6z"/>
				</g>
			</g>
		</g>
		<g id="HAND">
			<path class="st21" d="M1286.9,773.5c7.3,19.1-38.9,53-102.4,77.1s-120.4,27.8-127.7,8.6s37.8-53.8,101.4-77.9
				S1279.6,754.3,1286.9,773.5z"/>
			<path class="st25" d="M1322.4,1393.9v10.6c-3.3-0.8-6.8-1.2-10.3-1.2h-12.9c-19.1,0-35.4-12.2-41.6-29.2l36.6-4.9
				C1309.1,1367.2,1322.4,1378.8,1322.4,1393.9z"/>
			<path class="st24" d="M1356.2,1447.4v81.4c0,19-15.4,34.4-34.4,34.4h-38.3c-9.5,0-18.1-3.8-24.3-10.1
				c-6.2-6.2-10.1-14.8-10.1-24.3h24.9c8.2,0,14.8-6.6,14.8-14.8v-21.3c0-8.2-6.6-14.8-14.8-14.8h-127.3c-49.7,0-90-40.3-90-90
				V850.1c6-19.7,46.9-48.2,101.4-68.8c37.2-14.1,72.5-20.9,96.8-20.3v598.2c0,24.4,19.8,44.2,44.2,44.2h12.9
				C1336.4,1403.3,1356.2,1423,1356.2,1447.4z"/>
			<path class="st25" d="M1254.9,760.9v54.4c-18.1,12.2-42.6,24.7-70.5,35.2c-63.6,24.1-120.4,27.8-127.7,8.6V850
				c6-19.7,46.9-48.2,101.4-68.8C1195.4,767.1,1230.6,760.3,1254.9,760.9z"/>
		</g>
		<g id="HEAD_1_">
			<g id="NECK">
				<polygon class="st24" points="1088.6,355.8 1051,452.7 857.2,487.4 907.8,355.8 				"/>
				<polygon class="st25" points="1088.6,355.8 1068.3,408.2 876.1,438.2 907.8,355.8 				"/>
			</g>
			<g id="HAIR">
				<path class="st26" d="M1202.2,158.6c0,13.1-22.7,27.6-48.9,39.8c-35.7,16.7-77.8,29.4-77.8,29.4l-28.4,53.5
					c38.6,20.5,53.7,57.3,59.7,83c3.8,16.4,3.8,28.1,3.8,28.1H838.4c0,0-71.5-231.6,100.8-287
					C1044.6,71.5,1202.2,127.5,1202.2,158.6z"/>
				<circle class="st26" cx="914" cy="70.7" r="67.7"/>
			</g>
			<g id="HEAD">
				<path class="st24" d="M1106.7,364.3c-5.6-24.3-19.6-58.9-54.1-79.8h-8.9c-8.2,0-15.7-3.3-21.1-8.7s-8.7-12.9-8.7-21.1
					c0-16.5,13.3-29.8,29.8-29.8l37.7,0.8l0,0h1c0.7-0.2,1.4-0.5,2.2-0.7c10.2-2.2,42.5-10,69.3-23.4l3.1,18.5l10,59.3
					C1173.8,320.1,1145.9,357.6,1106.7,364.3z"/>
				<path class="st25" d="M1156.9,220c-32.8,13.3-75.6,5.6-75.6,5.6s40.3-8,72.5-24.1L1156.9,220z"/>
				<path class="st27" d="M1066.9,260.4c0-11.4-9.2-20.6-20.6-20.6"/>
			</g>
		</g>
	</g>
	<g id="CHAIR">
		<line class="st4" x1="1172.8" y1="1528.8" x2="1288.9" y2="2495"/>
		<line class="st4" x1="669.5" y1="1528.8" x2="553.5" y2="2495"/>
		<line class="st4" x1="593.3" y1="2163.2" x2="1249" y2="2163.2"/>
		<path class="st15" d="M568.6,1528.8h705.1c8.4,0,15.2-6.8,15.2-15.2V1493c0-8.4-6.8-15.2-15.2-15.2H568.6
			c-8.4,0-15.2,6.8-15.2,15.2v20.6C553.5,1522,560.3,1528.8,568.6,1528.8z"/>
	</g>
</g>
</svg>
