<?xml version="1.0" encoding="utf-8"?>
<!-- Generator: Adobe Illustrator 25.4.1, SVG Export Plug-In . SVG Version: 6.00 Build 0)  -->
<svg version="1.1" id="Слой_1" xmlns="http://www.w3.org/2000/svg" xmlns:xlink="http://www.w3.org/1999/xlink" x="0px" y="0px"
	 viewBox="0 0 3061.9 2728.1" style="enable-background:new 0 0 3061.9 2728.1;" xml:space="preserve">
<style type="text/css">
	.st0{fill:none;stroke:#66B0F0;stroke-width:6;stroke-miterlimit:10;}
	.st1{fill:#D0F0E4;}
	.st2{fill:none;stroke:#FFCF2D;stroke-width:6;stroke-miterlimit:10;}
	.st3{fill:#FFFFFF;}
	.st4{fill:#66B0F0;}
	.st5{fill:#FFFFFF;stroke:#FFCF2D;stroke-width:5;stroke-miterlimit:10;}
	.st6{fill:#FFCF2D;}
	.st7{fill:#FFFFFF;stroke:#FE5244;stroke-width:6;stroke-miterlimit:10;}
	.st8{fill:#FE5244;}
	.st9{fill:none;stroke:#FFFFFF;stroke-width:5;stroke-linecap:round;stroke-miterlimit:10;}
	.st10{fill:#3FB1B5;}
	.st11{fill:#FFFFFF;stroke:#66B0F0;stroke-width:6;stroke-miterlimit:10;}
	.st12{fill:none;stroke:#FFCF2D;stroke-width:5;stroke-miterlimit:10;}
	.st13{fill:#A0505A;}
	.st14{fill:#73325A;}
	.st15{fill:#FEB040;}
	.st16{fill:#E57281;}
	.st17{fill:#9A3B82;}
	.st18{fill:#FFFFFF;stroke:#FEB040;stroke-width:4;stroke-miterlimit:10;}
	.st19{fill:none;stroke:#FE5244;stroke-width:6;stroke-miterlimit:10;}
	.st20{fill:none;stroke:#FFFFFF;stroke-width:6;stroke-linecap:round;stroke-miterlimit:10;}
	.st21{fill:none;stroke:#73325A;stroke-width:5;stroke-linecap:round;stroke-miterlimit:10;}
	.st22{fill:#FFCF2D;stroke:#FFFFFF;stroke-width:5;stroke-miterlimit:10;}
</style>
<g id="FLOOR">
	<line class="st0" x1="2959.5" y1="2671.5" x2="0.1" y2="2671.5"/>
	<line class="st0" x1="258.6" y1="2725.1" x2="1953.3" y2="2725.1"/>
</g>
<g id="TABLE">
	<path class="st1" d="M2807,2006.4h-473.3c-22.4,0-40.6,18.2-40.6,40.6v624.5h554.4V2047C2847.6,2024.6,2829.4,2006.4,2807,2006.4z"
		/>
	<path class="st2" d="M2807,2006.4h-473.3c-22.4,0-40.6,18.2-40.6,40.6v624.5h554.4V2047C2847.6,2024.6,2829.4,2006.4,2807,2006.4z"
		/>
	<rect x="2229.3" y="1304.8" class="st2" width="683" height="1366.6"/>
	<polyline class="st2" points="2930.2,1133.7 587.9,1133.7 587.9,1304.8 3061.9,1304.8 	"/>
	<path class="st2" d="M2807,1626h-472.4c-22.4,0-40.6-18.2-40.6-40.6v-166.8c0-22.4,18.2-40.6,40.6-40.6H2807
		c22.4,0,40.6,18.2,40.6,40.6v166.9C2847.6,1607.9,2829.4,1626,2807,1626z"/>
	<path class="st2" d="M2807,1928h-472.4c-22.4,0-40.6-18.2-40.6-40.6v-166.8c0-22.4,18.2-40.6,40.6-40.6H2807
		c22.4,0,40.6,18.2,40.6,40.6v166.8C2847.6,1909.8,2829.4,1928,2807,1928z"/>
	<circle class="st0" cx="2572.4" cy="1499.9" r="32.5"/>
	<circle class="st0" cx="2572.4" cy="1802.8" r="32.5"/>
</g>
<g id="BACKET">
	<g>
		<polygon class="st3" points="2775.3,2214.4 2774.6,2218.7 2774.3,2221.2 2763.9,2287.5 2763.9,2287.5 2762.8,2294.6 
			2762.8,2294.6 2758.1,2324.8 2756.4,2335.4 2756.4,2335.4 2752,2363.4 2750.9,2370.5 2740.2,2439.1 2740.2,2439.4 2739.1,2446.5 
			2738.5,2449.7 2728.3,2515.3 2727.2,2522.4 2727.2,2522.4 2722.4,2553.3 2722.4,2553.4 2720.7,2564 2716.4,2591.2 2716.4,2591.2 
			2715.3,2598.3 2704.6,2667.2 2704.5,2667.6 2704.5,2667.6 2704,2670.8 2703.9,2671.5 2422.9,2671.5 2422.8,2670.7 2422.3,2667.9 
			2422.2,2667 2422.2,2667 2411.4,2598.2 2410.3,2591 2406.1,2564.3 2404.5,2553.6 2399.6,2522.2 2398.5,2515.1 2388.3,2450 
			2387.7,2446.3 2386.6,2439.3 2386.6,2439.2 2375.8,2370.3 2374.7,2363.2 2370.4,2335.7 2368.8,2325.1 2364,2294.4 2362.9,2287.3 
			2352.6,2221.5 2351.5,2214.4 		"/>
		<path class="st4" d="M2706.6,2674.6h-286.4l-1.2-7.4l-71.2-455.9h431.1L2706.6,2674.6z M2425.5,2668.4h275.7l70.4-450.8H2355
			L2425.5,2668.4z"/>
	</g>
	<path class="st4" d="M2779.2,2214.4c0,1.4-0.2,2.9-0.7,4.3c-3.4,10.5-19,20.2-43.5,28.2c-1.8,0.6-3.6,1.1-5.4,1.7
		c-15.8,4.7-34.7,8.8-56,11.9c-2,0.3-4,0.6-6.1,0.9c-18.8,2.6-39.3,4.5-61,5.6c-2.2,0.1-4.3,0.2-6.5,0.3
		c-11.9,0.5-24.2,0.8-36.7,0.8c-9.6,0-19.1-0.2-28.4-0.5c-2.3-0.1-4.6-0.2-6.9-0.3c-25-1-48.6-3.1-70-6.1c-2.6-0.4-5.1-0.7-7.6-1.1
		c-36.3-5.5-65.5-13.6-83.4-23.3c-10.4-5.6-16.9-11.7-19-18.1l-0.6-4.2c0-29.6,96.6-53.5,215.8-53.5c118.5,0,214.7,23.7,215.8,53.1
		C2779.2,2214.1,2779.2,2214.2,2779.2,2214.4z"/>
	<g>
		<g>
			<g>
				<path class="st4" d="M2704.7,2667.3v4l-0.7-0.5l-0.1,0.6h-2.6l-31.9-41.2l-3.3-4.3l-32.1-41.4l-3.3-4.3l-32.1-41.4l-3.3-4.3
					l-32.1-41.4l-3.3-4.3l-32.1-41.4l-3.3-4.3l-32-41.4l-3.3-4.3l-32.1-41.4l-3.3-4.3l-32-41.4l-3.3-4.3l-32-41.4l-3.3-4.3
					l-30.7-39.6l-0.5-2.9c2,6.3,8.4,12.3,18.6,17.8l15.8,20.4l3.3,4.3l32.1,41.4l3.3,4.3l32.1,41.4l3.3,4.3l32.1,41.4l3.3,4.3
					l32.1,41.4l3.3,4.3l32.1,41.4l3.3,4.3l32.1,41.4l3.3,4.3l32.1,41.4l3.3,4.3l32.1,41.4l3.3,4.3l31.9,41.2L2704.7,2667.3z"/>
			</g>
		</g>
		<g>
			<g>
				<path class="st4" d="M2716.4,2591.2L2716.4,2591.2l-1.1,7.1l-10.6-13.7l-3.3-4.3l-32.1-41.4l-3.3-4.3l-32.1-41.4l-3.3-4.3
					l-32.1-41.4l-3.3-4.3l-32.1-41.4l-3.3-4.3l-31.8-41l-3.3-4.3l-32.1-41.4l-3.3-4.3l-32.1-41.4l-3.3-4.3l-1.4-1.8
					c2.4,0.4,4.9,0.7,7.4,1.1l0.5,0.7l32.1,41.4l3.3,4.3l32.1,41.4l3.3,4.3l32.1,41.4l3.3,4.3l32.1,41.4l3.3,4.3l32.1,41.4l3.3,4.3
					l32.1,41.4l3.3,4.3l32.1,41.4l3.3,4.3L2716.4,2591.2z"/>
			</g>
		</g>
		<g>
			<g>
				<path class="st4" d="M2728.3,2515.3l-1.1,7.1l-22.5-29l-3.3-4.3l-32.1-41.4l-3.3-4.3l-32.1-41.4l-3.3-4.3l-32.1-41.4l-3.3-4.3
					l-32.1-41.4l-3.3-4.3l-31.3-40.4c2.3,0.1,4.5,0.2,6.8,0.3l27.8,35.8l3.3,4.3l32.1,41.4l3.3,4.3l32.1,41.4l3.3,4.3l32.1,41.4
					l3.3,4.3l32.1,41.4l3.3,4.3L2728.3,2515.3z"/>
			</g>
		</g>
		<g>
			<g>
				<path class="st4" d="M2740.2,2439.4l-1.1,7.1l-2.3-3l-32.1-41.4l-3.3-4.3l-32.1-41.4l-3.3-4.3l-32.1-41.4l-3.3-4.3l-31.3-40.4
					c2.1-0.1,4.3-0.2,6.4-0.3l28.2,36.4l3.3,4.3l32.1,41.4l3.3,4.3l32.1,41.4l3.3,4.3l32.1,41.4L2740.2,2439.4z"/>
			</g>
		</g>
		<g>
			<g>
				<polygon class="st4" points="2494.6,2669.9 2492.6,2671.4 2492.5,2671.5 2489.2,2671.5 2457.2,2630.3 2453.9,2626 
					2421.9,2584.6 2418.6,2580.4 2406.1,2564.3 2404.5,2553.6 2421.9,2576.1 2425.2,2580.4 2457.2,2621.7 2460.5,2626 
					2492.6,2667.4 				"/>
			</g>
		</g>
		<g>
			<g>
				<polygon class="st4" points="2423.8,2669.9 2422.8,2670.7 2422.3,2667.9 				"/>
			</g>
		</g>
		<g>
			<g>
				<polygon class="st4" points="2565.3,2669.9 2563.3,2671.4 2563.2,2671.5 2559.9,2671.5 2528,2630.3 2524.7,2626 2492.6,2584.6 
					2489.3,2580.4 2457.2,2539 2453.9,2534.8 2453.9,2534.7 2421.9,2493.4 2418.6,2489.1 2388.3,2450 2387.7,2446.3 2386.6,2439.3 
					2389.8,2443.5 2421.9,2484.9 2425.2,2489.1 2457.2,2530.5 2460.5,2534.8 2492.6,2576.1 2495.9,2580.4 2528,2621.7 2531.3,2626 
					2563.3,2667.4 				"/>
			</g>
		</g>
		<g>
			<g>
				<polygon class="st4" points="2636,2669.9 2634,2671.4 2633.9,2671.5 2630.6,2671.5 2598.7,2630.3 2595.4,2626 2563.3,2584.6 
					2560,2580.4 2528,2539 2524.7,2534.8 2492.6,2493.4 2489.3,2489.1 2457.2,2447.8 2453.9,2443.5 2421.9,2402.1 2418.6,2397.9 
					2386.5,2356.5 2383.2,2352.3 2370.4,2335.7 2368.8,2325.1 2386.5,2348 2389.8,2352.3 2421.9,2393.6 2425.2,2397.9 
					2457.2,2439.2 2460.5,2443.5 2492.6,2484.9 2495.9,2489.1 2528,2530.5 2531.3,2534.8 2563.3,2576.1 2566.6,2580.4 
					2598.7,2621.7 2602,2626 2634,2667.4 				"/>
			</g>
		</g>
		<g>
			<g>
				<path class="st4" d="M2752,2363.4l-1.1,7.1l-10.8-14l-3.3-4.3l-32.1-41.4l-3.3-4.3l-32.1-41.4l-3.3-4.3l-0.4-0.5
					c2-0.3,4-0.6,5.9-0.9l1.1,1.4l32.1,41.4l3.3,4.3l32.1,41.4l3.3,4.3L2752,2363.4z"/>
			</g>
		</g>
		<g>
			<g>
				<path class="st4" d="M2763.9,2287.5L2763.9,2287.5l-1.1,7.1l-22.7-29.3l-3.3-4.3l-10.1-13.1c1.8-0.5,3.6-1.1,5.3-1.7l8.1,10.5
					l3.3,4.3L2763.9,2287.5z"/>
			</g>
		</g>
		<g>
			<g>
				<path class="st4" d="M2778.2,2216l-2.8,3.6l-0.8-1l0,0c0.5-1.4,0.7-2.8,0.7-4.2c0-0.2,0-0.3,0-0.5l0.1-0.1L2778.2,2216z"/>
			</g>
		</g>
	</g>
	<g>
		<g>
			<g>
				<polygon class="st4" points="2758.1,2324.8 2756.4,2335.4 2756.4,2335.4 2743.4,2352.3 2740.1,2356.5 2708,2397.9 
					2704.7,2402.1 2672.7,2443.5 2669.4,2447.8 2637.3,2489.1 2634,2493.4 2602,2534.8 2598.7,2539 2566.6,2580.4 2563.3,2584.6 
					2531.3,2626 2528,2630.3 2496,2671.5 2492.7,2671.5 2492.6,2671.4 2490.7,2669.9 2492.6,2667.4 2524.7,2626 2528,2621.7 
					2560,2580.4 2563.3,2576.1 2595.4,2534.8 2598.7,2530.5 2630.7,2489.1 2634,2484.9 2666.1,2443.5 2669.4,2439.2 2701.4,2397.9 
					2704.7,2393.6 2736.8,2352.3 2740.1,2348 				"/>
			</g>
		</g>
		<g>
			<g>
				<path class="st4" d="M2774.3,2221.2l-30.9,39.9l-3.3,4.3l-32.1,41.4l-3.3,4.3l-32.1,41.4l-3.3,4.3l-32.1,41.4l-3.3,4.3l-31.9,41
					l-3.3,4.3l-32.1,41.4l-3.3,4.3l-32.1,41.4l-3.3,4.3l-32.1,41.4l-3.3,4.3l-32.1,41.4l-3.3,4.3l-31.9,41.2h-2.4l-0.1-0.8l-0.4-2.8
					l-0.4-0.5l0.3-0.4l0,0l31.8-41l3.3-4.3l32.1-41.4l3.3-4.3l32.1-41.4l3.3-4.3l32.1-41.4l3.3-4.3l32.1-41.4l3.3-4.3l32.1-41.4
					l3.3-4.3l32.1-41.4l3.3-4.3l32.1-41.4l3.3-4.3l32-41.4l3.3-4.3l15.7-20.3c10.3-5.5,16.8-11.5,18.9-17.9L2774.3,2221.2z"/>
			</g>
		</g>
		<g>
			<g>
				<path class="st4" d="M2674,2259.3l-1.4,1.8l-3.3,4.3l-32.1,41.4l-3.3,4.3l-32.1,41.4l-3.3,4.3l-32.1,41.4l-3.3,4.3l-32.1,41.4
					l-3.3,4.3l-32.1,41.4l-3.3,4.3l-32.1,41.4l-3.3,4.3l-32.1,41.4l-3.3,4.3l-10.5,13.5l-1.1-7.1l8.3-10.7l3.3-4.3l32-41.4l0,0
					l3.3-4.3l32.1-41.4l3.3-4.3l32-41.4l3.3-4.3l32.1-41.4l3.3-4.3l32.1-41.4l3.3-4.3l32.1-41.4l3.3-4.3l32.1-41.4l0.5-0.7
					c1.7-0.2,3.4-0.5,5-0.7C2672.4,2259.5,2673.2,2259.4,2674,2259.3z"/>
			</g>
		</g>
		<g>
			<g>
				<path class="st4" d="M2597.9,2266.3l-31.3,40.3l-3.3,4.3l-32.1,41.4l-3.3,4.3l-32.1,41.4l-3.3,4.3l-32.1,41.4l-3.3,4.3
					l-32.1,41.4l-3.3,4.3l-22.3,28.8l-1.1-7.1l20.1-26l3.3-4.3l32.1-41.4l3.3-4.3l32.1-41.4l3.3-4.3l32.1-41.4l3.3-4.3l32.1-41.4
					l3.3-4.3l27.8-35.8C2593.3,2266.5,2595.6,2266.4,2597.9,2266.3z"/>
			</g>
		</g>
		<g>
			<g>
				<polygon class="st4" points="2722.4,2553.4 2720.7,2564 2708,2580.4 2704.7,2584.6 2672.7,2626 2669.4,2630.3 2637.4,2671.5 
					2634.1,2671.5 2634,2671.4 2632.1,2669.9 2634,2667.4 2666.1,2626 2669.4,2621.7 2701.4,2580.4 2704.7,2576.1 				"/>
			</g>
		</g>
		<g>
			<g>
				<polygon class="st4" points="2738.5,2449.7 2708,2489.1 2704.7,2493.4 2672.7,2534.8 2669.4,2539 2637.3,2580.4 2634,2584.6 
					2602,2626 2598.7,2630.3 2566.7,2671.5 2563.4,2671.5 2563.3,2671.4 2561.4,2669.9 2563.3,2667.4 2595.4,2626 2598.7,2621.7 
					2630.7,2580.4 2634,2576.1 2666.1,2534.8 2669.4,2530.5 2701.4,2489.1 2704.7,2484.9 2736.8,2443.5 2740.1,2439.2 
					2740.2,2439.1 2740.2,2439.4 2739.1,2446.5 				"/>
			</g>
		</g>
		<g>
			<g>
				<path class="st4" d="M2527.2,2266.2l-31.3,40.4l-3.3,4.3l-32.1,41.4l-3.3,4.3l-32.1,41.4l-3.3,4.3l-32.1,41.4l-2.1,2.8l-1.1-6.9
					l-0.1-0.1l0.1-0.1l32-41.3l3.3-4.3l32-41.4l3.3-4.3l32.1-41.4l3.3-4.3l28.2-36.4C2523,2266,2525.1,2266.1,2527.2,2266.2z"/>
			</g>
		</g>
		<g>
			<g>
				<path class="st4" d="M2461,2260.5l-0.4,0.6l-3.3,4.3l-32.1,41.4l-3.3,4.3l-32.1,41.4l-3.3,4.3l-10.7,13.8l-1.1-7.1l8.5-11
					l3.3-4.3l32-41.4l3.3-4.3l32.1-41.4l1.1-1.4c1.6,0.2,3.3,0.5,5,0.7L2461,2260.5z"/>
			</g>
		</g>
		<g>
			<g>
				<path class="st4" d="M2400,2247.9l-10.2,13.1l-3.3,4.3l-22.6,29.1l-1.1-7.1l20.4-26.3l3.3-4.3l8.2-10.5
					C2396.4,2246.8,2398.2,2247.4,2400,2247.9z"/>
			</g>
		</g>
	</g>
	<g>
		<path class="st5" d="M2795.9,2155.7h-92.3v-28.1h56C2777.1,2127.6,2791.7,2139.6,2795.9,2155.7z"/>
		<path class="st5" d="M2760.2,2127.6c-26.2,0.3-49.1,17.8-56.1,43.1l-21.3,77.3c-3,0.5-6.1,1-9.2,1.4c-2,0.3-4,0.6-6.1,0.9
			c-18.8,2.6-39.3,4.5-61,5.6c-2.2,0.1-4.3,0.2-6.5,0.3c-11.9,0.5-24.2,0.8-36.7,0.8c-9.6,0-19.1-0.2-28.4-0.5
			c-2.3-0.1-4.6-0.2-6.9-0.3c-0.9,0-1.8-0.1-2.7-0.1l23.6-85.4c7-25.5,30.2-43.1,56.7-43.1H2760.2z"/>
	</g>
</g>
<g id="LAMP">
	<polygon class="st6" points="2697,461.3 2933.1,1133.7 2068.5,1133.7 2298.3,461.3 	"/>
	<g>
		<path class="st0" d="M2499.5,381.2c0-28,22.7-50.7,50.7-50.7h29.3c28,0,50.7,22.7,50.7,50.7v656.1"/>
		<path class="st7" d="M2698.3,1112.3v20.3h-213.8v-20.3c0-17.3,5.9-33.3,15.8-46c13.7-17.6,35.2-29,59.2-29h63.7c1,0,2.1,0,3.1,0.1
			C2666.4,1039,2698.3,1071.9,2698.3,1112.3z"/>
		<path class="st8" d="M2745.8,464.1h-494.7v-15.5c0-37.1,30.1-67.1,67.1-67.1h360.5c37.1,0,67.1,30.1,67.1,67.1L2745.8,464.1
			L2745.8,464.1z"/>
		<line class="st9" x1="2745.8" y1="451.7" x2="2251.1" y2="451.7"/>
		<path class="st3" d="M2694.1,464.1c0,17.7-11,32.1-24.7,32.1h-346.2c-13.6,0-24.7-14.4-24.7-32.1H2694.1z"/>
		<path class="st7" d="M2630.2,1056.9c0,32.1-29.3,58.2-65.4,58.2c-32.5,0-59.5-21.1-64.5-48.8c13.7-17.6,35.2-29,59.2-29h63.7
			c1,0,2.1,0,3.1,0.1C2628.9,1043.5,2630.2,1050.1,2630.2,1056.9z"/>
		<path class="st8" d="M2566.6,1023.6v31.4c0,6.4-5.9,11.6-13.1,11.6c-7.2,0-13.1-5.2-13.1-11.6v-31.4h0.2c1.2,5.5,6.5,9.7,12.8,9.7
			s11.6-4.2,12.8-9.7H2566.6z"/>
		<path class="st7" d="M2563.8,1022.5c0,0.7-0.1,1.4-0.2,2.1c-0.9,5-5.1,8.7-10.2,8.7c-5,0-9.2-3.7-10.2-8.7
			c-0.1-0.7-0.2-1.4-0.2-2.1c0-6,4.6-10.8,10.4-10.8C2559.1,1011.7,2563.8,1016.6,2563.8,1022.5z"/>
	</g>
</g>
<g id="BOOKS">
	<rect x="2189" y="677.9" class="st10" width="34.2" height="455.8"/>
	<path class="st5" d="M2174.7,1133.7h-58.6c-6.2,0-11.2-5-11.2-11.2V783.7c0-6.2,5-11.2,11.2-11.2h58.6c6.2,0,11.2,5,11.2,11.2
		v338.8C2185.9,1128.7,2180.9,1133.7,2174.7,1133.7z"/>
	<path class="st0" d="M2363.2,1126.4h-67.3c-4.9,0-9.1-3.5-10-8.3l-60.4-313.8c-1.2-6.3,3.6-12.1,10-12.1h67.3c4.9,0,9.1,3.5,10,8.3
		l60.4,313.8C2374.4,1120.6,2369.6,1126.4,2363.2,1126.4z"/>
	<path class="st8" d="M2091.5,1133.7h-317c-7.4,0-13.4-6-13.4-13.4v-64.9c0-7.4,6-13.4,13.4-13.4h317c7.4,0,13.4,6,13.4,13.4v64.9
		C2104.9,1127.7,2098.9,1133.7,2091.5,1133.7z"/>
</g>
<g id="NOTES">
	<g>
		<path class="st5" d="M904.4,21.3v206.8c0,40.5-32.9,73.4-73.4,73.4H601.7c40.5,0,73.4-32.8,73.4-73.4V21.3H904.4z"/>
		<rect x="780" y="1.3" class="st8" width="18.5" height="44.1"/>
		<g>
			<g>
				<path class="st6" d="M837.7,99.9c-2.6,0-5.2-1-7.3-2.9l-7.7-6.8c-2.4-2.1-5.6-2.1-8,0l-7.3,6.5c-4.3,3.8-10.3,3.8-14.7,0
					l-6.7-5.9c-2.4-2.1-5.6-2.1-8,0l-6.2,5.5c-4.3,3.8-10.3,3.8-14.7,0l-5.1-4.5c-2.4-2.1-5.6-2.1-8,0l-5.5,4.9
					c-4.3,3.8-10.3,3.8-14.7,0l-5.1-4.5c-2.4-2.1-5.6-2.1-8,0c-1,0.9-2.6,0.8-3.5-0.2s-0.8-2.6,0.2-3.5c4.3-3.8,10.3-3.8,14.7,0
					l5.1,4.5c2.4,2.1,5.6,2.1,8,0l5.5-4.9c4.3-3.8,10.3-3.8,14.7,0l5.1,4.5c2.4,2.1,5.6,2.1,8,0l6.2-5.5c4.3-3.8,10.3-3.8,14.7,0
					l6.7,5.9c2.4,2.1,5.6,2.1,8,0l7.3-6.5c4.3-3.8,10.3-3.8,14.7,0l7.7,6.8c2.4,2.1,5.6,2.1,8,0l8-7.1c4.3-3.8,10.3-3.8,14.7,0
					c1,0.9,1.1,2.5,0.2,3.5s-2.5,1.1-3.5,0.2c-2.4-2.1-5.6-2.1-8,0l-8,7.1C842.8,98.9,840.3,99.9,837.7,99.9z"/>
			</g>
			<g>
				<path class="st6" d="M837.7,141c-2.6,0-5.2-1-7.3-2.9l-7.7-6.8c-2.4-2.1-5.6-2.1-8,0l-7.3,6.5c-4.3,3.8-10.3,3.8-14.7,0
					l-6.7-5.9c-2.4-2.1-5.6-2.1-8,0l-6.2,5.5c-4.3,3.8-10.3,3.8-14.7,0l-5.1-4.5c-2.4-2.1-5.6-2.1-8,0l-5.5,4.9
					c-4.3,3.8-10.3,3.8-14.7,0l-5.1-4.5c-2.4-2.1-5.6-2.1-8,0c-1,0.9-2.6,0.8-3.5-0.2s-0.8-2.6,0.2-3.5c4.3-3.8,10.3-3.8,14.7,0
					l5.1,4.5c2.4,2.1,5.6,2.1,8,0l5.5-4.9c4.3-3.8,10.3-3.8,14.7,0l5.1,4.5c2.4,2.1,5.6,2.1,8,0l6.2-5.5c4.3-3.8,10.3-3.8,14.7,0
					l6.7,5.9c2.4,2.1,5.6,2.1,8,0l7.3-6.5c4.3-3.8,10.3-3.8,14.7,0l7.7,6.8c2.4,2.1,5.6,2.1,8,0l8-7.1c4.3-3.8,10.3-3.8,14.7,0
					c1,0.9,1.1,2.5,0.2,3.5s-2.5,1.1-3.5,0.2c-2.4-2.1-5.6-2.1-8,0l-8,7.1C842.8,140.1,840.3,141,837.7,141z"/>
			</g>
			<g>
				<path class="st6" d="M837.7,182.1c-2.6,0-5.2-1-7.3-2.9l-7.7-6.8c-2.4-2.1-5.6-2.1-8,0l-7.3,6.5c-4.3,3.8-10.3,3.8-14.7,0
					L786,173c-2.4-2.1-5.6-2.1-8,0l-6.2,5.5c-4.3,3.8-10.3,3.8-14.7,0L752,174c-2.4-2.1-5.6-2.1-8,0l-5.5,4.9
					c-4.3,3.8-10.3,3.8-14.7,0l-5.1-4.5c-2.4-2.1-5.6-2.1-8,0c-1,0.9-2.6,0.8-3.5-0.2s-0.8-2.6,0.2-3.5c4.3-3.8,10.3-3.8,14.7,0
					l5.1,4.5c2.4,2.1,5.6,2.1,8,0l5.5-4.9c4.3-3.8,10.3-3.8,14.7,0l5.1,4.5c2.4,2.1,5.6,2.1,8,0l6.2-5.5c4.3-3.8,10.3-3.8,14.7,0
					l6.7,5.9c2.4,2.1,5.6,2.1,8,0l7.3-6.5c4.3-3.8,10.3-3.8,14.7,0l7.7,6.8c2.4,2.1,5.6,2.1,8,0l8-7.1c4.3-3.8,10.3-3.8,14.7,0
					c1,0.9,1.1,2.5,0.2,3.5s-2.5,1.1-3.5,0.2c-2.4-2.1-5.6-2.1-8,0l-8,7.1C842.8,181.2,840.3,182.1,837.7,182.1z"/>
			</g>
			<g>
				<path class="st6" d="M837.7,223.3c-2.6,0-5.2-1-7.3-2.9l-7.7-6.8c-2.4-2.1-5.6-2.1-8,0l-7.3,6.5c-4.3,3.8-10.3,3.8-14.7,0
					l-6.7-5.9c-2.4-2.1-5.6-2.1-8,0l-6.2,5.5c-4.3,3.8-10.3,3.8-14.7,0l-5.1-4.5c-2.4-2.1-5.6-2.1-8,0l-5.5,4.9
					c-4.3,3.8-10.3,3.8-14.7,0l-5.1-4.5c-2.4-2.1-5.6-2.1-8,0c-1,0.9-2.6,0.8-3.5-0.2s-0.8-2.6,0.2-3.5c4.3-3.8,10.3-3.8,14.7,0
					l5.1,4.5c2.4,2.1,5.6,2.1,8,0l5.5-4.9c4.3-3.8,10.3-3.8,14.7,0l5.1,4.5c2.4,2.1,5.6,2.1,8,0l6.2-5.5c4.3-3.8,10.3-3.8,14.7,0
					l6.7,5.9c2.4,2.1,5.6,2.1,8,0l7.3-6.5c4.3-3.8,10.3-3.8,14.7,0l7.7,6.8c2.4,2.1,5.6,2.1,8,0l8-7.1c4.3-3.8,10.3-3.8,14.7,0
					c1,0.9,1.1,2.5,0.2,3.5s-2.5,1.1-3.5,0.2c-2.4-2.1-5.6-2.1-8,0l-8,7.1C842.8,222.3,840.3,223.3,837.7,223.3z"/>
			</g>
		</g>
	</g>
	<g>
		<rect x="980.1" y="21.3" class="st4" width="160.4" height="160.4"/>
		
			<rect x="961.1" y="15.1" transform="matrix(0.7778 -0.6286 0.6286 0.7778 204.354 626.6561)" class="st6" width="54.5" height="18.5"/>
		
			<rect x="1124.2" y="-2.9" transform="matrix(0.6286 -0.7778 0.7778 0.6286 402.084 890.5819)" class="st6" width="18.5" height="54.5"/>
		<g>
			<rect x="1009.3" y="59.3" class="st3" width="97.3" height="6"/>
		</g>
		<g>
			<rect x="1009.3" y="85.2" class="st3" width="97.3" height="6"/>
		</g>
		<g>
			<rect x="1009.3" y="111.2" class="st3" width="97.3" height="6"/>
		</g>
		<g>
			<rect x="1009.3" y="137.1" class="st3" width="97.3" height="6"/>
		</g>
	</g>
</g>
<g id="COMPUTER">
	<g>
		<polygon class="st11" points="1753.6,1133.7 1379.7,1133.7 1452.1,973.7 1462.7,950.2 1670.6,950.2 1699.8,1014.7 		"/>
		<polygon class="st4" points="1699.8,1014.7 1452.1,973.7 1462.7,950.2 1670.6,950.2 		"/>
	</g>
	<path class="st11" d="M2007.3,950.2h-880.1c-32.3,0-58.4-26.2-58.4-58.4V317.3c0-32.3,26.2-58.4,58.4-58.4h880.1
		c32.3,0,58.4,26.2,58.4,58.4v574.4C2065.7,924,2039.5,950.2,2007.3,950.2z"/>
	<g>
		<path class="st4" d="M1743.6,909.6h-352.8c-17.2,0-31.1-13.9-31.1-31.1v-42.7c0-17.2,13.9-31.1,31.1-31.1h352.8
			c17.2,0,31.1,13.9,31.1,31.1v42.7C1774.7,895.7,1760.7,909.6,1743.6,909.6z"/>
		<g>
			<g>
				<path class="st3" d="M1651,881.1h-23.8c-5.9,0-10.7-4.8-10.7-10.7v-18.6c0-5.9,4.8-10.7,10.7-10.7h23.8
					c5.9,0,10.7,4.8,10.7,10.7v18.6C1661.7,876.3,1656.9,881.1,1651,881.1z"/>
			</g>
			<g>
				<path class="st3" d="M1681.3,878l-8.8-5.6c-2.4-1.5-3.9-4.2-3.9-7.1v-8.4c0-2.9,1.5-5.6,3.9-7.1l8.8-5.6
					c2.1-1.3,4.8,0.2,4.8,2.6v28.5C1686.2,877.8,1683.4,879.3,1681.3,878z"/>
			</g>
		</g>
		<g>
			<g>
				<path class="st3" d="M1560.8,871.7h-2.2c-8.7,0-15.8-7.1-15.8-15.8v-9.3c0-0.8,0.7-1.5,1.5-1.5h30.7c0.8,0,1.5,0.7,1.5,1.5v9.3
					C1576.6,864.6,1569.5,871.7,1560.8,871.7z M1545.8,848.1v7.8c0,7,5.7,12.8,12.8,12.8h2.2c7,0,12.8-5.7,12.8-12.8v-7.8H1545.8z"
					/>
			</g>
			<g>
				<path class="st3" d="M1559.7,889c-0.8,0-1.5-0.7-1.5-1.5v-11.3c0-0.8,0.7-1.5,1.5-1.5s1.5,0.7,1.5,1.5v11.3
					C1561.2,888.3,1560.5,889,1559.7,889z"/>
			</g>
			<g>
				<path class="st3" d="M1567.6,889h-15.7c-0.8,0-1.5-0.7-1.5-1.5s0.7-1.5,1.5-1.5h15.7c0.8,0,1.5,0.7,1.5,1.5
					S1568.4,889,1567.6,889z"/>
			</g>
			<g>
				<path class="st3" d="M1560.4,864.7h-1.4c-5,0-9-4-9-9v-18.2c0-5,4-9,9-9h1.4c5,0,9,4,9,9v18.2
					C1569.4,860.7,1565.4,864.7,1560.4,864.7z"/>
			</g>
		</g>
		<g>
			<g>
				<path class="st3" d="M1468.4,853.4l-0.1,0.1c-1.9,2.3-1.3,5.8,1.2,7.9l9.2,7.4c2.5,2,6.1,1.8,8-0.5l0.1-0.1
					c1.9-2.3,5.5-2.4,7.9-0.3l8.3,7.5c2.6,2.4,2.6,6.4,0,8.2c-8.7,6.1-20,3.9-29.3-3.6l-14-11.3c-9.3-7.6-13.8-18.2-9.7-28
					c1.3-3,5.2-3.8,8-1.7l9.1,6.6C1469.6,847.6,1470.2,851.1,1468.4,853.4z"/>
			</g>
			<g>
				<path class="st3" d="M1492.8,859.2c-0.8,0-1.4-0.6-1.5-1.4c-0.5-7.2-6.7-12.7-13.9-12.2c-0.8,0-1.5-0.6-1.6-1.4s0.6-1.5,1.4-1.6
					c8.9-0.6,16.5,6.2,17.1,15C1494.4,858.4,1493.8,859.1,1492.8,859.2C1492.9,859.2,1492.9,859.2,1492.8,859.2z"/>
			</g>
			<g>
				<path class="st3" d="M1502.2,857.7c-0.8,0-1.4-0.6-1.5-1.4c-0.4-6-3.1-11.6-7.7-15.6s-10.4-6-16.4-5.6c-0.8,0-1.5-0.6-1.6-1.4
					s0.6-1.5,1.4-1.6c6.8-0.4,13.4,1.8,18.6,6.3s8.2,10.8,8.7,17.6C1503.8,857,1503.1,857.7,1502.2,857.7
					C1502.3,857.7,1502.3,857.7,1502.2,857.7z"/>
			</g>
		</g>
	</g>
	<g>
		<circle class="st12" cx="1840.4" cy="302.6" r="10.4"/>
		<circle class="st12" cx="1882.9" cy="302.6" r="10.4"/>
		<circle class="st12" cx="1925.5" cy="302.6" r="10.4"/>
	</g>
	<path class="st0" d="M1530.2,779.1h-313.4c-9.6,0-17.3-7.8-17.3-17.3V594c0-9.6,7.8-17.3,17.3-17.3h313.4c9.6,0,17.3,7.8,17.3,17.3
		v167.8C1547.5,771.3,1539.8,779.1,1530.2,779.1z"/>
	<g>
		<path class="st10" d="M1925.5,779.1h-313.4c-9.6,0-17.3-7.8-17.3-17.3V594c0-9.6,7.8-17.3,17.3-17.3h313.4
			c9.6,0,17.3,7.8,17.3,17.3v167.8C1942.8,771.3,1935.1,779.1,1925.5,779.1z"/>
		<g>
			<path class="st8" d="M1866.3,778.6h-204.8c20.7-25.5,52.3-41.9,87.7-41.9h29.4C1814,736.8,1845.6,753.1,1866.3,778.6z"/>
			<path class="st3" d="M1757.5,736.8c-2,15.1-14.9,26.7-30.5,26.7c-11.5,0-21.5-6.3-26.8-15.6c14.8-7.1,31.4-11.1,48.9-11.1H1757.5
				z"/>
			<path class="st3" d="M1818,743.8c-4.5,11.5-15.6,19.6-28.7,19.6c-15.6,0-28.5-11.6-30.5-26.7h19.9
				C1792.5,736.8,1805.7,739.2,1818,743.8z"/>
			<path class="st13" d="M1795.5,692.2v45.4c0,7.1-14.2,12.8-31.6,12.8c-3.2,0-6.3-0.2-9.2-0.5c-13-1.6-22.4-6.5-22.4-12.3v-45.4
				H1795.5z"/>
			<path class="st14" d="M1791.3,701.5c0,19.7-17.2,43.6-36.6,48.3c-13-1.6-22.4-6.5-22.4-12.3v-45.4h58L1791.3,701.5z"/>
			<path class="st13" d="M1811.7,686.4v1.1c0,7.7-6.3,14-14,14h-13.4c-6.1,13.1-19.4,22.1-34.8,22.1h-2.6
				c-17.2,0-31.1-13.9-31.1-31.1v-32.1c19.9,1.3,45.2-16.1,45.2-16.1c8.3,32.1,32,31.7,43,29.6
				C1808.5,676.2,1811.7,681,1811.7,686.4z"/>
			<g>
				<path class="st14" d="M1792,691.3c-0.8,0-1.5-0.7-1.5-1.5c0-6.4,5.2-11.6,11.6-11.6c0.8,0,1.5,0.7,1.5,1.5s-0.7,1.5-1.5,1.5
					c-4.7,0-8.6,3.8-8.6,8.6C1793.5,690.6,1792.8,691.3,1792,691.3z"/>
			</g>
			<path class="st6" d="M1795.5,701.5h2.2c7.7,0,14-6.3,14-14v-1.1c0-5.5-3.1-10.2-7.7-12.5c-3,0.6-7.1,1-11.5,0.7
				c-11.4-0.9-25.5-7.1-31.5-30.3c0,0-25.3,17.4-45.2,16.1c-3.7-0.2-7.2-1.1-10.3-2.9c-16.5-9.4,23.4-53.4,69.2-46.8
				c36.6,5.3,35.8,49.1,35.1,59.5c1.8-0.2,3.6-0.3,5.4-0.3c26.8,0,48.5,20.6,48.5,46.1c0,16.6-9.2,31.2-23.1,39.3
				c-13.3-8.8-28.6-14.8-45.1-17.3L1795.5,701.5z"/>
			<g>
				<path class="st14" d="M1736,692.4c-0.2,0-0.4,0-0.5-0.1c-0.8-0.3-1.2-1.2-0.9-1.9c0-0.1,3-8.2-2-16.9
					c-4.3-7.5-13.8-6.2-14.2-6.1c-0.8,0.1-1.6-0.4-1.7-1.3c-0.1-0.8,0.4-1.6,1.3-1.7c0.5-0.1,11.9-1.7,17.3,7.6
					c5.7,9.9,2.3,19.1,2.2,19.4C1737.1,692,1736.6,692.4,1736,692.4z"/>
			</g>
			<g>
				<path class="st14" d="M1770.1,673.4c-0.3,0-0.6-0.1-0.9-0.3c-8.7-6.7-20.3-5.9-20.4-5.9c-0.8,0.1-1.5-0.6-1.6-1.4
					s0.6-1.5,1.4-1.6c0.5,0,12.8-0.9,22.4,6.5c0.7,0.5,0.8,1.4,0.3,2.1C1770.9,673.2,1770.5,673.4,1770.1,673.4z"/>
			</g>
			<path class="st3" d="M1730.8,695.8c0,0,2.4,15.8,18.7,0.4C1749.5,696.2,1738.1,697.7,1730.8,695.8z"/>
			<ellipse class="st14" cx="1755.9" cy="677.8" rx="2.1" ry="4.7"/>
			<ellipse class="st14" cx="1724.7" cy="677.8" rx="1.8" ry="3.9"/>
		</g>
	</g>
	<g>
		<path class="st4" d="M1921.6,549.8h-313.4c-9.6,0-17.3-7.8-17.3-17.3V364.7c0-9.6,7.8-17.3,17.3-17.3h313.4
			c9.6,0,17.3,7.8,17.3,17.3v167.8C1938.9,542,1931.1,549.8,1921.6,549.8z"/>
		<g>
			<path class="st6" d="M1857.8,549.8h-191.3c19.3-25.7,48.8-42.1,81.9-42.1h27.5C1809,507.7,1838.5,524.1,1857.8,549.8z"/>
			<path class="st3" d="M1752,541.2h4.3c18.7,0,33.9-15.2,33.9-33.9v-24.1c0-0.1-0.1-0.2-0.2-0.2h-62.9c-0.1,0-0.2,0.1-0.2,0.2v33.1
				C1727,530.1,1738.2,541.2,1752,541.2z"/>
			<path class="st6" d="M1727,483v32.5c0,0.4,0,0.9,0,1.3c0.9,18.6,47.2,11.3,61.1-33.8H1727z"/>
			<path class="st3" d="M1808.5,468.5c0,4-1.6,7.6-4.3,10.3c-2.6,2.6-6.2,4.2-10.3,4.2h-13.7c-4.9,13-17.5,22.2-32.2,22.2h-10.7
				c-14.9,0-26.9-12.1-26.9-26.9v-42c15.4,1.3,28.4-11.1,28.9-11.6c-0.2,0.7-8,22.7,9.7,23.9c17.6,1.2,23.4-11.5,23.6-12
				c0,0.5,0.1,17.5,14,18.4l0,0h7.3C1802,455,1808.5,460.5,1808.5,468.5z"/>
			<path class="st8" d="M1787.9,455h-0.3c-0.3,0-0.6,0-0.9,0c-13.9-0.9-14-17.8-14-18.4c-0.2,0.5-6.1,13.2-23.6,12
				c-17.6-1.2-9.9-23.2-9.7-23.9c-0.5,0.4-13.5,12.9-28.9,11.6c-3.4-0.3-6.8-1.2-10.3-3.1c-22.5-12.2-8-37.3,14.1-37.6
				c17.6-0.2,25.1,9.4,25.1,9.4s3.8-19.7,25.4-16.3c21.6,3.4,17.7,22.5,17.7,22.5s18.1-8.4,28.1,7.1
				C1822.4,436.5,1804.7,455,1787.9,455z"/>
			<g>
				<path class="st6" d="M1728.8,473.3c-0.1,0-0.2,0-0.4,0c-0.8-0.2-1.3-1-1.1-1.8c0-0.1,2.4-10-1.9-18.1
					c-4.7-8.6-12.8-7.2-13.1-7.2c-0.8,0.1-1.6-0.4-1.7-1.2c-0.2-0.8,0.4-1.6,1.2-1.7c0.1,0,10.6-1.9,16.3,8.7
					c4.9,9.1,2.3,19.8,2.2,20.2C1730,472.8,1729.4,473.3,1728.8,473.3z"/>
			</g>
			<g>
				<path class="st6" d="M1734.1,484.9c-2.1,0-4-0.3-5.4-0.7c-0.8-0.2-1.3-1-1.1-1.8s1-1.3,1.8-1.1l0,0c0.5,0.1,11.9,3.1,16.1-5.7
					c0.4-0.7,1.2-1.1,2-0.7s1.1,1.2,0.7,2C1745.3,483.2,1739.2,484.9,1734.1,484.9z"/>
			</g>
			<ellipse class="st6" cx="1748.6" cy="456.6" rx="2.1" ry="4.7"/>
			<ellipse class="st6" cx="1717.5" cy="456.6" rx="1.8" ry="3.9"/>
			<g>
				<path class="st6" d="M1786.4,474c-0.8,0-1.5-0.7-1.5-1.5c0-6.4,5.2-11.6,11.6-11.6c0.8,0,1.5,0.7,1.5,1.5s-0.7,1.5-1.5,1.5
					c-4.7,0-8.6,3.8-8.6,8.6C1787.9,473.3,1787.2,474,1786.4,474z"/>
			</g>
		</g>
	</g>
	<g>
		<path class="st6" d="M1526.2,549.8h-313.4c-9.6,0-17.3-7.8-17.3-17.3V364.7c0-9.6,7.8-17.3,17.3-17.3h313.4
			c9.6,0,17.3,7.8,17.3,17.3v167.8C1543.6,542,1535.8,549.8,1526.2,549.8z"/>
		<g>
			<g>
				<path class="st3" d="M1450.5,549.8h-194.4c19.6-29.3,49.6-48,83.2-48h28C1400.9,501.8,1430.8,520.5,1450.5,549.8z"/>
				<g>
					<g>
						<path class="st15" d="M1450.5,549.8h-194.4c0.6-0.9,1.2-1.7,1.8-2.6c0.1-0.2,0.2-0.4,0.4-0.5h190.1c0.1,0.2,0.2,0.3,0.4,0.5
							C1449.3,548,1449.9,548.9,1450.5,549.8z"/>
					</g>
					<g>
						<path class="st15" d="M1442.3,538.9h-178c0.9-1.1,1.8-2.1,2.7-3.1h172.6C1440.5,536.8,1441.4,537.8,1442.3,538.9z"/>
					</g>
					<g>
						<path class="st15" d="M1431.3,527.5h-156c1.2-1.1,2.4-2.1,3.6-3.1h148.8C1428.9,525.4,1430.1,526.4,1431.3,527.5z"/>
					</g>
					<g>
						<path class="st15" d="M1414.5,515H1292c1.8-1.1,3.7-2.1,5.6-3.1h111.2C1410.8,512.9,1412.6,513.9,1414.5,515z"/>
					</g>
				</g>
			</g>
			<g>
				<path class="st16" d="M1384.3,464.4v44.7c0,4.6-14.2,8.3-31.6,8.3c-17,0-30.9-3.5-31.6-8c0-0.1,0-0.2,0-0.3v-44.7H1384.3z"/>
				<path class="st17" d="M1383.9,464.4v1c0,22-27.3,47.2-47,50.1c-3.1,0.5-12.7-1.4-15.7-6.2c0-0.1,0-0.2,0-0.3v-44.7h62.7V464.4z"
					/>
			</g>
			<path class="st16" d="M1401.5,450.3v1c0,7.7-6.3,14-14,14h-12.1c-3.9,14-16.7,24.2-31.9,24.2h-12.9c-14.3,0-26-11.6-26-26v-56.9
				c24,6.7,66.9,0.4,66.9,0.4s-3.9,14,3.5,29.2h12.6C1395.2,436.3,1401.5,442.6,1401.5,450.3z"/>
			<path class="st18" d="M1387,434.5h-11.4c-9.7-16.4-4.2-27.3-4.2-27.3s-42.9,6.2-66.9-0.4c-10.9-3-17.9-8.7-15.3-18.8
				c8.3-32.4,97.7,2.1,103.9,13.8C1399.4,413.5,1387,434.5,1387,434.5z"/>
			<g>
				<path class="st17" d="M1342.6,465.2c-0.3,0.3-0.6,0.4-1,0.4s-0.8-0.2-1.1-0.5l-1.4-1.5c-4.3,3.8-8.4,5.7-12.2,5.7
					c-0.4,0-0.8,0-1.1-0.1c-4.2-0.4-6.3-3.2-6.4-3.3c-0.5-0.7-0.4-1.6,0.3-2.1s1.6-0.4,2.1,0.3c0.1,0.1,1.5,1.9,4.4,2.2
					c3.2,0.3,6.9-1.4,10.9-4.9l-0.8-0.9c-0.6-0.6-0.5-1.6,0.1-2.1c0.6-0.6,1.6-0.5,2.1,0.1l4.2,4.6
					C1343.3,463.7,1343.2,464.6,1342.6,465.2z"/>
				<path class="st17" d="M1357.8,435.4c-0.4,0-0.8-0.1-1.1-0.4c-8.8-8.6-20-6.9-20.1-6.9c-0.8,0.1-1.6-0.4-1.7-1.2
					c-0.1-0.8,0.4-1.6,1.2-1.7c0.5-0.1,12.8-2.1,22.7,7.7c0.6,0.6,0.6,1.5,0,2.1C1358.6,435.3,1358.2,435.4,1357.8,435.4z"/>
				<path class="st17" d="M1323.7,456.4c-0.1,0-0.3,0-0.4-0.1c-0.8-0.2-1.2-1.1-1-1.9c0-0.1,3.1-10.3-1.9-19
					c-4.3-7.5-14-5.2-14.1-5.1c-0.8,0.2-1.6-0.3-1.8-1.1s0.3-1.6,1.1-1.8c4.1-1,13.1-1,17.4,6.6c5.7,9.9,2.4,20.9,2.2,21.4
					C1324.9,456,1324.4,456.4,1323.7,456.4z"/>
				<ellipse class="st17" cx="1312.5" cy="440.8" rx="1.8" ry="3.9"/>
				<ellipse class="st17" cx="1343.6" cy="440.8" rx="2.1" ry="4.7"/>
				<path class="st17" d="M1379.7,455.4c-0.8,0-1.5-0.7-1.5-1.5c0-6.5,5.3-11.8,11.8-11.8c0.8,0,1.5,0.7,1.5,1.5s-0.7,1.5-1.5,1.5
					c-4.9,0-8.8,3.9-8.8,8.8C1381.2,454.7,1380.6,455.4,1379.7,455.4z"/>
			</g>
		</g>
	</g>
</g>
<g id="WOMAN">
	<g id="LEGS">
		<g id="RIGHT_LEG">
			<g>
				<path class="st13" d="M1894.5,2341.9c-2.7-0.8-4.2-1.2-4.2-1.2l-32.7,107.1l-123.1-32.3c-1-0.9-1.5-1.4-1.5-1.4
					s-498.5-390.7-524.7-578.2c-26.1-187.5,182.7-365.4,182.7-365.4s445.3,841.7,500.4,869.2
					C1892.5,2340.3,1893.6,2341,1894.5,2341.9z"/>
				<path class="st14" d="M1496.4,1667.4c-15.6,83.5-70.4,252.6-127.1,416.2c-84-90.5-151.8-181.8-161-247.8
					c-16.6-118.8,61.3-233.9,120.5-302.1c21.7-17.4,45.1-33.4,70.4-47.7C1414.7,1515.1,1450.6,1582.5,1496.4,1667.4z"/>
			</g>
			<g>
				<path class="st7" d="M2174.3,2414l-183.1,117.5l-53.1-8l-48.9,31l15.8,32.4l-80.5,51.7c-106.7-97.1-91.6-223.4-91.6-223.4
					l124.6,32.7l32.7-107.1c0,0,111.9,32.7,194.5,29.9C2167.5,2367.9,2174.3,2414,2174.3,2414z"/>
				<path class="st19" d="M1966.2,2355.1c0,0-7.7-81.4-27-76.3c-19.3,5.2,4.9,86.4,26.6,77.5c21.7-8.9,43.4-66.6,43.4-66.6"/>
				<polyline class="st19" points="1752,2531.4 1874.7,2533.3 1935.6,2496.9 1993.4,2506.2 2166.7,2398 				"/>
				<g>
					<line class="st19" x1="1940.8" y1="2350.5" x2="1929.4" y2="2403.6"/>
					<line class="st19" x1="1965.6" y1="2356.5" x2="1954.2" y2="2409.6"/>
					<line class="st19" x1="1991.5" y1="2360.8" x2="1980.1" y2="2413.9"/>
				</g>
			</g>
		</g>
		<g id="LEFT_LEG">
			<path class="st13" d="M1348.7,1429.6c0,0,73.3,34.2,73.3,159.6c0,121.2-279.8,863.4-279.8,863.4l-86.1,73l-87.4-95.7
				C1011.4,2389.3,888.8,1655.3,1348.7,1429.6z"/>
			<g>
				<path class="st7" d="M1340.9,2667.8l-217.6,0.2l-40.4-35.4l-57.9-0.3l-4.2,35.8l-85.3,0.1c-46.4-144.4,33.6-238.4,33.6-238.4
					l86.8,95.6l86.7-72.9c0,0,75.2,88.2,146.2,130.4C1360,2625.2,1340.9,2667.8,1340.9,2667.8z"/>
				<path class="st19" d="M1192.2,2503.9c0,0,85.4-55.1,61.1-76.2c-24.3-21.1-73.2,70.5-59.9,77.8s105.4-20.4,105.4-20.4"/>
				<polyline class="st19" points="924,2540.5 1026.1,2604.9 1097,2604.9 1141.9,2642.6 1342.6,2642.6 				"/>
				<g>
					<line class="st19" x1="1173.2" y1="2483.1" x2="1134.8" y2="2521.5"/>
					<line class="st19" x1="1190.8" y1="2501.6" x2="1152.4" y2="2540"/>
					<line class="st19" x1="1210.2" y1="2519.2" x2="1171.8" y2="2557.6"/>
				</g>
			</g>
		</g>
	</g>
	<g id="SKIRT">
		<path class="st8" d="M1348.7,1429.6c-172.9,84.8-263.5,241.6-311.4,406.3H512.6c-134.3,0-234.4-123.9-206.1-255.2l38.5-178.8
			h912.3C1291.1,1401.9,1322.5,1412.1,1348.7,1429.6z"/>
		<polygon class="st13" points="959.1,1601 1148,1600.6 1120,1646.5 		"/>
		<path class="st20" d="M1349.7,1428.6c-86,42.2-151.6,102.2-201.8,172.1H669.2c-86.3,0-150.7-79.3-133.1-163.8l7.3-35"/>
		<path class="st20" d="M1038,1835.8c19.1-65.7,44.9-130.2,80-189.3l-158.9-45.6"/>
	</g>
	<g id="BLOUSE">
		<path class="st10" d="M222.4,921.6l96.1,377H139.2c-104.4,0-171.6-110.9-123.2-203.4l137.7-263.3c39-74.5,116.1-121.2,200.2-121.2
			h32.5C276,710.6,195.1,814.6,222.4,921.6z"/>
		<path class="st10" d="M1329,823.8c56.5,0,103.5-7.5,114.9-18l-175.3,380c-31.7,68.8-100.6,112.8-176.3,112.8
			c-22.2,0-44-3.8-64.6-11.1c-20.6-7.3-40-18-57.3-32l-110.5-89.2c0,0-11,64.7-89.5,81.2v154.2H344.9L222.4,921.5
			c-27.3-107,53.6-211.1,164-211.1h297.9c26.3,0,52.2,3.3,77.2,9.7c68.4,17.4,129.8,57.6,173.2,115.2l145.6,193.2l130.8-228.6l0,0
			c0,0.2-0.1,0.5-0.1,0.7C1211.1,813.9,1264,823.8,1329,823.8z"/>
		<line class="st20" x1="221.4" y1="921.6" x2="315.5" y2="1301.6"/>
		<line class="st20" x1="860.9" y1="1171.4" x2="777.3" y2="1082.4"/>
		<path class="st8" d="M1446.5,800.2l-2.6,5.6c-11.4,10.6-58.4,18-114.9,18c-65,0-117.9-9.9-117.9-23c0-0.2,0-0.5,0.1-0.7
			c1.8-12.8,54-23.8,117.9-23.8C1392.9,776.3,1444.7,787.3,1446.5,800.2C1446.5,800.1,1446.5,800.1,1446.5,800.2z"/>
	</g>
	<g id="ARM">
		<path class="st13" d="M1498.9,608.2c0,5.7-1.4,11.3-4,16.2s-6.4,9.2-11.1,12.5l-2.3,1.6l-17.9,95.5c-2.9,15.5-12.1,29.2-25.4,37.7
			l-24.5,15.6l-19.4,12.4l-9,21.5c-16.7,1.7-35.8,2.7-56.2,2.7c-20.6,0-40-1-56.9-2.8V673c0-6.4,1.4-12.7,4.1-18.5l32.6-70.2
			c0,0,35.6,8.8,19.2,52.5c-14.9,39.7,19.1,29.5,38.2,22.4c17.1-6.4,91.8-44.4,121-58.3C1492.7,598.3,1498.9,602.3,1498.9,608.2z"/>
		<g>
			<path class="st21" d="M1467.7,697.7c-2.9,15.5-12.1,29.1-25.4,37.6l-43.9,28"/>
			<path class="st21" d="M1474.9,657.2c-2.9,15.5-12.1,29.1-25.4,37.6l-43.9,28"/>
			<line class="st21" x1="1478.3" y1="639.6" x2="1407.7" y2="684.4"/>
		</g>
		<path class="st14" d="M1417.5,784.8l-3.9,2.5l-19.4,12.4l-9,21.5c-16.7,1.7-35.8,2.7-56.2,2.7c-20.6,0-40-1-56.9-2.8v-41.6
			c16.9-2,36.3-3.1,56.9-3.1C1364.3,776.3,1395.9,779.6,1417.5,784.8z"/>
	</g>
	<g id="HEAD">
		<g id="NECK">
			<path class="st13" d="M752.2,717.8c-14.5,19.5-68.5,65.4-250.3,65.4c-233.9,0-84.2-72.4-84.2-72.4l99.2-165.7l106.4,65.3v52.5
				c0,26.5,21.5,47.9,47.9,47.9h6.9C702.9,710.7,728.5,711.8,752.2,717.8z"/>
			<polygon class="st14" points="623.2,610.3 623.2,623.7 417.6,710.7 516.8,545 			"/>
		</g>
		<g id="HEAD_1_">
			<path class="st13" d="M628.8,616.8h22.6c20.8,0,37.7-16.9,37.7-37.7V453.2H554.2v89C554.2,583.4,587.6,616.8,628.8,616.8z"/>
			<path class="st21" d="M686.2,571.8c-14.5,0-20.3-10-20.3-10"/>
			<ellipse class="st14" cx="673.1" cy="522.2" rx="4.8" ry="9.3"/>
		</g>
		<path id="HAIR" class="st22" d="M579.9,466.3c0,0,111.3,67.2,147.5,8.7c31.8-51.3-109.1-77.7-158.3-77.9
			c-53.5-0.2-124.4,23.5-123.2,102.2c1,64.8,3.7,159.6-34.7,143.1c-136.6-58.6-258,2.6-258.4,119.2S287.7,889.1,291.1,859
			c3.5-30-84-23.1-72.2,54.8c11.7,77.9,63.9,175.3,183.1,175.3c144,0.1,235.7-189.5,146.6-208.8c-68.3-14.8,69.6,117,110.5-20
			c44-147.5-115-195.8-118.9-284.9S579.9,466.3,579.9,466.3z"/>
		<g id="GLASSES">
			<line class="st19" x1="572.1" y1="519.8" x2="651.7" y2="519.8"/>
			<ellipse class="st19" cx="676.2" cy="522.8" rx="22.6" ry="29"/>
		</g>
		<g id="HEADPHONES">
			<path class="st0" d="M529.9,484.1v-84.2c0-12.6,10.2-22.9,22.9-22.9h25c12.6,0,22.9,10.2,22.9,22.9"/>
			<path class="st11" d="M554,576.8h-48.1c-12.3,0-22.3-10-22.3-22.3v-48.1c0-12.3,10-22.3,22.3-22.3H554c12.3,0,22.3,10,22.3,22.3
				v48.1C576.2,566.8,566.3,576.8,554,576.8z"/>
			<path class="st11" d="M541.5,560.9H518c-10.1,0-18.4-8.2-18.4-18.4V519c0-10.1,8.2-18.4,18.4-18.4h23.5
				c10.1,0,18.4,8.2,18.4,18.4v23.5C559.9,552.7,551.7,560.9,541.5,560.9z"/>
			<g>
				<line class="st0" x1="550.8" y1="503" x2="509" y2="558.6"/>
				<line class="st0" x1="537" y1="501.1" x2="500.8" y2="549.1"/>
				<line class="st0" x1="558.9" y1="512.9" x2="522.7" y2="560.9"/>
				<line class="st0" x1="559.9" y1="530.8" x2="537.2" y2="560.9"/>
				<line class="st0" x1="522.3" y1="501.1" x2="499.7" y2="531"/>
			</g>
		</g>
	</g>
</g>
<g id="CHAIR">
	<path class="st0" d="M494.3,1892.8v55.1c0,26.6-21.6,48.2-48.2,48.2H322.5"/>
	<line class="st0" x1="540.4" y1="1893.4" x2="540.4" y2="2398.9"/>
	<path class="st0" d="M316.6,2561c0-89.5,88.9-162.1,198.5-162.1h49.8c109.6,0,198.5,72.6,198.5,162.1"/>
	<path class="st6" d="M1021.3,1901.1h-726c-36.4,0-65.8-29.5-65.8-65.8l0,0h809L1021.3,1901.1z"/>
	<circle class="st6" cx="312.2" cy="2614.6" r="53.6"/>
	<path class="st6" d="M284.9,2009.8h107.6c8.8,0,15.9-7.1,15.9-15.9v-1.2c0-8.8-7.1-15.9-15.9-15.9H284.9c-8.8,0-15.9,7.1-15.9,15.9
		v1.2C269,2002.7,276.1,2009.8,284.9,2009.8z"/>
	<path class="st2" d="M229.5,1837.3h515.1l-172.3-482.8c-12-33.5-43.7-55.9-79.3-55.9H114.3c-37.6,0-63.8,37.2-51.2,72.6
		L229.5,1837.3z"/>
	<path class="st2" d="M255,1837.3h447.8l-166.5-466.8c-11.6-32.4-42.2-54-76.6-54H76.3"/>
	<circle class="st6" cx="762.5" cy="2614.6" r="53.6"/>
</g>
</svg>
